<svg xmlns="http://www.w3.org/2000/svg" version="1.1" xmlns:xlink="http://www.w3.org/1999/xlink" width="1000" height="1000"><style>
    #light-icon {
      display: inline;
    }
    #dark-icon {
      display: none;
    }

    @media (prefers-color-scheme: dark) {
      #light-icon {
        display: none;
      }
      #dark-icon {
        display: inline;
      }
    }
  </style><g id="light-icon"><svg xmlns="http://www.w3.org/2000/svg" version="1.1" xmlns:xlink="http://www.w3.org/1999/xlink" width="1000" height="1000"><g><g transform="matrix(2,0,0,2,0,0)"><svg xmlns="http://www.w3.org/2000/svg" viewBox="0 0 500 500" xmlns:bx="https://boxy-svg.com" width="500px" height="500px"><defs><bx:export><bx:file format="svg"></bx:file></bx:export></defs><g id="svg1" style="" transform="matrix(2.724568, 0, 0, 2.724568, -383.136841, -194.85704)"><g id="layer1" transform="matrix(1, 0, 0, 1, 180.248062, 101.481277)"><g style="clip-rule:evenodd;fill:#000000;fill-opacity:1;fill-rule:nonzero;stroke-linecap:round;stroke-linejoin:round;stroke-miterlimit:10" id="g1" transform="translate(1.8286623e-5)"><g id="Layer-1" style="fill:#000000;fill-opacity:1"><g opacity="1" id="g2" style="fill:#000000;fill-opacity:1" transform="translate(-0.47620939,0.47620939)"><g transform="matrix(1, 0, 0, 1, 25.432545, -31.914452)"><path d="M 21.49 9.152 C 20.054 9.176 18.711 9.25 17.658 9.367 C 15.62 9.593 13.75 9.888 12.147 10.229 C 10.543 10.572 8.809 11.044 7.049 11.61 C 5.267 12.189 3.217 13.006 1.01 14.024 C -1.199 15.044 -3.19 16.099 -4.855 17.128 C -6.505 18.156 -8.178 19.331 -9.769 20.579 C -11.399 21.867 -13.434 23.834 -15.745 26.371 C -18.046 28.895 -19.739 30.947 -20.737 32.407 C -21.713 33.844 -22.738 35.572 -23.759 37.494 C -24.786 39.434 -25.72 41.515 -26.52 43.619 C -27.309 45.71 -27.951 47.661 -28.411 49.375 C -28.87 51.101 -29.278 53.181 -29.618 55.499 C -29.958 57.837 -30.164 60.479 -30.221 63.306 C -30.274 66.16 -30.069 69.306 -29.62 72.589 C -29.171 75.832 -28.734 78.301 -28.329 79.875 C -27.923 81.429 -27.256 83.467 -26.356 85.883 C -25.452 88.315 -24.462 90.583 -23.437 92.578 C -22.418 94.554 -21.317 96.468 -20.184 98.227 C -19.047 99.987 -17.77 101.758 -16.412 103.458 C -15.046 105.161 -13.449 106.937 -11.696 108.689 C -9.949 110.437 -8.293 111.948 -6.806 113.147 C -5.314 114.352 -3.365 115.719 -1.057 117.183 C 1.261 118.651 3.555 119.931 5.72 120.958 C 7.869 121.975 9.907 122.819 11.737 123.45 C 13.555 124.075 15.478 124.629 17.41 125.084 C 19.355 125.539 21.6 125.921 24.031 126.203 C 26.461 126.487 28.684 126.632 30.575 126.632 C 32.468 126.632 34.688 126.487 37.119 126.203 C 39.551 125.921 41.775 125.538 43.672 125.082 C 45.565 124.619 47.686 123.944 49.9 123.094 C 50.118 123.01 50.258 122.957 50.349 122.921 C 50.349 130.97 50.349 138.025 50.349 147.07 C 50.349 165.17 50.495 175.04 51.025 175.838 C 51.495 176.543 52.639 177.127 53.478 177.316 C 54.451 177.295 55.737 176.78 56.444 176.12 C 57.024 175.074 57.437 164.929 57.437 146.323 C 57.437 127.853 58.088 118.708 59.888 118.019 C 62.239 116.521 64.743 114.553 67.239 112.23 C 69.726 109.907 71.842 107.621 73.451 105.496 C 75.045 103.39 76.507 101.133 77.764 98.857 C 79.017 96.567 80.191 93.93 81.216 91.097 C 82.234 88.252 83.057 85.247 83.625 82.236 C 84.197 79.213 84.516 75.83 84.571 72.262 C 84.629 68.706 84.449 65.448 84.053 62.648 C 83.649 59.854 82.923 56.711 81.911 53.379 C 80.885 50.027 79.49 46.6 77.796 43.26 C 76.097 39.928 74.24 36.878 72.305 34.256 C 70.391 31.669 68.591 29.491 66.988 27.827 C 65.405 26.19 63.837 24.709 62.359 23.455 C 60.884 22.211 59.345 21.022 57.817 19.941 C 56.28 18.862 54.618 17.814 52.918 16.848 C 51.18 15.868 48.649 14.704 45.453 13.412 C 42.218 12.111 38.893 11.089 35.649 10.405 C 32.423 9.728 29.46 9.328 26.152 9.209 C 24.521 9.154 22.918 9.136 21.491 9.162 L 21.49 9.152 Z M 24.964 15.809 C 26.66 15.809 29.255 15.85 30.29 16.006 C 31.347 16.151 33.388 16.674 36.558 17.605 C 39.72 18.531 42.228 19.4 44.204 20.256 C 46.214 21.123 47.717 21.848 48.816 22.479 C 49.903 23.095 51.85 24.444 54.757 26.582 C 57.582 28.661 61.977 32.868 62.545 33.409 C 63.059 33.987 66.887 38.277 68.468 40.608 C 70.088 42.979 71.508 45.424 72.802 48.072 C 74.095 50.7 75.196 53.535 76.166 56.729 C 77.134 59.874 77.662 62.888 77.823 66.024 C 77.987 69.237 77.988 71.728 77.826 73.633 C 77.665 75.582 77.455 77.222 77.19 78.658 C 76.925 80.084 76.454 81.943 75.746 84.342 C 75.046 86.712 74.294 88.76 73.44 90.626 C 72.572 92.524 71.789 94.062 71.045 95.341 C 70.309 96.606 69.238 98.171 67.771 100.124 C 66.352 102.028 64.375 104.128 61.718 106.564 C 59.08 108.995 56.561 110.917 53.996 112.459 C 51.39 114.039 49.338 115.133 47.709 115.81 C 46.038 116.513 44.471 117.087 42.918 117.569 C 41.398 118.044 40.063 118.336 38.727 118.485 C 37.353 118.645 35.811 118.721 33.982 118.721 C 32.15 118.721 30.388 118.643 28.611 118.479 C 26.844 118.319 25.106 118.061 23.28 117.684 C 21.429 117.302 19.868 116.933 18.523 116.555 C 17.207 116.189 15.599 115.617 13.596 114.806 C 11.61 114.001 9.586 113.028 7.423 111.837 C 5.25 110.643 3.581 109.628 2.311 108.727 C 1.026 107.816 -0.457 106.65 -2.2 105.18 C -3.938 103.714 -5.209 102.549 -6.097 101.606 C -7.015 100.634 -8.028 99.488 -9.173 98.126 C -10.295 96.793 -11.501 95.163 -12.86 93.154 C -14.214 91.155 -15.313 89.32 -16.223 87.553 C -17.141 85.774 -17.959 83.979 -18.712 82.089 C -19.47 80.195 -20.101 78.379 -20.641 76.545 C -21.174 74.74 -21.531 73.098 -21.735 71.467 C -21.966 69.702 -22.293 68.066 -22.817 67.544 C -22.513 67.848 -22.455 67.974 -22.56 66.889 C -22.658 65.857 -22.608 64.279 -22.393 61.965 C -22.176 59.633 -21.916 57.715 -21.593 56.117 C -21.276 54.511 -20.857 52.865 -20.316 51.084 C -19.794 49.344 -18.849 47.018 -17.432 43.968 C -16.016 40.917 -15.149 39.275 -14.73 38.774 C -14.107 38.026 -13.498 37.103 -13.002 36.187 C -12.643 35.489 -12.24 34.954 -11.616 34.346 C -10.843 33.565 -10.113 32.709 -9.558 31.908 C -9.149 31.32 -8.141 30.258 -6.355 28.585 C -4.589 26.923 -2.864 25.529 -1.051 24.308 C 0.787 23.062 2.372 22.1 3.806 21.358 C 5.211 20.624 7.403 19.743 10.512 18.652 C 13.574 17.576 16.479 16.852 19.421 16.424 C 22.494 15.976 23.423 15.811 24.961 15.811 L 24.964 15.809 Z" fill="#ffffff" fill-rule="evenodd" opacity="1" stroke="none" id="path1" style="fill: rgb(0, 0, 0); fill-opacity: 1;"></path><path d="M 37.827 30.746 C 39.5 30.826 40.881 31.077 41.975 31.487 C 43.061 31.901 44.188 32.596 45.359 33.584 C 46.529 34.572 47.369 35.479 47.873 36.307 C 48.375 37.14 48.748 38.32 48.998 39.882 C 49.252 41.446 49.29 42.632 49.127 43.466 C 48.951 44.296 48.46 45.312 47.623 46.543 C 46.785 47.782 45.785 48.768 44.606 49.512 C 43.438 50.252 42.435 50.745 41.593 50.996 C 40.749 51.242 39.5 51.365 37.829 51.365 C 36.16 51.365 34.908 51.241 34.06 50.996 C 33.222 50.745 32.174 50.208 30.923 49.392 C 29.665 48.567 28.667 47.662 27.91 46.673 C 27.158 45.686 26.662 44.707 26.408 43.713 C 26.152 42.721 26.029 41.568 26.029 40.252 C 26.029 38.946 26.147 38.011 26.408 37.412 C 26.661 36.836 26.988 36.227 27.407 35.568 C 27.83 34.903 28.406 34.251 29.162 33.592 C 29.919 32.928 31.132 32.268 32.806 31.612 C 34.426 30.971 36.054 30.683 37.677 30.739 Z" fill="none" opacity="1" stroke-linecap="round" stroke-linejoin="round" id="path2" style="fill: none; fill-opacity: 1; stroke-dasharray: none; stroke-opacity: 1; stroke-width: 4.03734px;"></path><path d="M 37.923 28.73 C 39.728 28.825 41.426 29.143 42.694 29.601 C 43.95 30.099 45.369 30.966 46.661 32.042 C 47.92 33.115 48.976 34.276 49.602 35.265 C 50.202 36.315 50.707 37.855 50.991 39.561 C 51.257 41.253 51.283 42.825 51.102 43.885 C 50.847 44.945 50.205 46.317 49.294 47.676 C 48.329 49.068 47.033 50.341 45.684 51.219 C 44.422 52.011 43.157 52.622 42.158 52.934 C 41.13 53.215 39.599 53.384 37.829 53.384 C 36.061 53.384 34.509 53.21 33.481 52.93 C 32.472 52.61 31.158 51.949 29.816 51.08 C 28.433 50.159 27.185 49.02 26.304 47.896 C 25.454 46.753 24.784 45.414 24.452 44.214 C 24.17 43.077 24.01 41.675 24.01 40.252 C 24.01 38.82 24.222 37.476 24.559 36.6 C 24.847 35.952 25.246 35.207 25.703 34.484 C 26.221 33.692 26.984 32.824 27.831 32.073 C 28.771 31.281 30.278 30.443 32.064 29.734 C 33.879 29.038 35.937 28.681 37.77 28.722 Z M 37.583 32.755 C 36.171 32.684 34.973 32.903 33.549 33.489 C 31.989 34.092 31.067 34.573 30.493 35.11 C 29.83 35.676 29.438 36.113 29.11 36.652 C 28.729 37.247 28.476 37.715 28.258 38.219 C 28.073 38.541 28.047 39.073 28.047 40.252 C 28.047 41.461 28.132 42.362 28.362 43.209 C 28.538 43.997 28.859 44.617 29.514 45.448 C 30.147 46.302 30.896 46.975 32.03 47.704 C 33.19 48.467 33.962 48.877 34.63 49.06 C 35.297 49.268 36.26 49.347 37.829 49.347 C 39.401 49.347 40.363 49.27 41.023 49.06 C 41.706 48.87 42.453 48.494 43.526 47.807 C 44.535 47.198 45.241 46.498 45.951 45.412 C 46.714 44.309 47.053 43.661 47.15 43.061 C 47.29 42.454 47.247 41.64 47.006 40.205 C 46.79 38.788 46.549 37.967 46.147 37.351 C 45.764 36.686 45.139 36.028 44.058 35.126 C 43.008 34.226 42.178 33.704 41.262 33.374 C 40.343 33.013 39.272 32.826 37.732 32.761 Z" style=""></path></g></g></g></g></g></g></svg></g></g></svg></g><g id="dark-icon"><svg xmlns="http://www.w3.org/2000/svg" version="1.1" xmlns:xlink="http://www.w3.org/1999/xlink" width="1000" height="1000"><g><g transform="matrix(2,0,0,2,0,0)"><svg xmlns="http://www.w3.org/2000/svg" viewBox="0 0 500 500" xmlns:bx="https://boxy-svg.com" width="500px" height="500px"><defs><bx:export><bx:file format="svg"></bx:file></bx:export></defs><rect width="500" height="500" style="stroke: rgb(0, 0, 0);"></rect><g id="svg1" style="" transform="matrix(2.724568, 0, 0, 2.724568, -383.136841, -194.85704)"><g id="layer1" transform="matrix(1, 0, 0, 1, 180.248062, 101.481277)"><g style="clip-rule:evenodd;fill:#000000;fill-opacity:1;fill-rule:nonzero;stroke-linecap:round;stroke-linejoin:round;stroke-miterlimit:10" id="g1" transform="translate(1.8286623e-5)"><g id="Layer-1" style="fill:#000000;fill-opacity:1"><g opacity="1" id="g2" style="fill:#000000;fill-opacity:1" transform="translate(-0.47620939,0.47620939)"><g transform="matrix(1, 0, 0, 1, 25.432545, -31.914452)"><path d="M 21.49 9.152 C 20.054 9.176 18.711 9.25 17.658 9.367 C 15.62 9.593 13.75 9.888 12.147 10.229 C 10.543 10.572 8.809 11.044 7.049 11.61 C 5.267 12.189 3.217 13.006 1.01 14.024 C -1.199 15.044 -3.19 16.099 -4.855 17.128 C -6.505 18.156 -8.178 19.331 -9.769 20.579 C -11.399 21.867 -13.434 23.834 -15.745 26.371 C -18.046 28.895 -19.739 30.947 -20.737 32.407 C -21.713 33.844 -22.738 35.572 -23.759 37.494 C -24.786 39.434 -25.72 41.515 -26.52 43.619 C -27.309 45.71 -27.951 47.661 -28.411 49.375 C -28.87 51.101 -29.278 53.181 -29.618 55.499 C -29.958 57.837 -30.164 60.479 -30.221 63.306 C -30.274 66.16 -30.069 69.306 -29.62 72.589 C -29.171 75.832 -28.734 78.301 -28.329 79.875 C -27.923 81.429 -27.256 83.467 -26.356 85.883 C -25.452 88.315 -24.462 90.583 -23.437 92.578 C -22.418 94.554 -21.317 96.468 -20.184 98.227 C -19.047 99.987 -17.77 101.758 -16.412 103.458 C -15.046 105.161 -13.449 106.937 -11.696 108.689 C -9.949 110.437 -8.293 111.948 -6.806 113.147 C -5.314 114.352 -3.365 115.719 -1.057 117.183 C 1.261 118.651 3.555 119.931 5.72 120.958 C 7.869 121.975 9.907 122.819 11.737 123.45 C 13.555 124.075 15.478 124.629 17.41 125.084 C 19.355 125.539 21.6 125.921 24.031 126.203 C 26.461 126.487 28.684 126.632 30.575 126.632 C 32.468 126.632 34.688 126.487 37.119 126.203 C 39.551 125.921 41.775 125.538 43.672 125.082 C 45.565 124.619 47.686 123.944 49.9 123.094 C 50.118 123.01 50.258 122.957 50.349 122.921 C 50.349 130.97 50.349 138.025 50.349 147.07 C 50.349 165.17 50.495 175.04 51.025 175.838 C 51.495 176.543 52.639 177.127 53.478 177.316 C 54.451 177.295 55.737 176.78 56.444 176.12 C 57.024 175.074 57.437 164.929 57.437 146.323 C 57.437 127.853 58.088 118.708 59.888 118.019 C 62.239 116.521 64.743 114.553 67.239 112.23 C 69.726 109.907 71.842 107.621 73.451 105.496 C 75.045 103.39 76.507 101.133 77.764 98.857 C 79.017 96.567 80.191 93.93 81.216 91.097 C 82.234 88.252 83.057 85.247 83.625 82.236 C 84.197 79.213 84.516 75.83 84.571 72.262 C 84.629 68.706 84.449 65.448 84.053 62.648 C 83.649 59.854 82.923 56.711 81.911 53.379 C 80.885 50.027 79.49 46.6 77.796 43.26 C 76.097 39.928 74.24 36.878 72.305 34.256 C 70.391 31.669 68.591 29.491 66.988 27.827 C 65.405 26.19 63.837 24.709 62.359 23.455 C 60.884 22.211 59.345 21.022 57.817 19.941 C 56.28 18.862 54.618 17.814 52.918 16.848 C 51.18 15.868 48.649 14.704 45.453 13.412 C 42.218 12.111 38.893 11.089 35.649 10.405 C 32.423 9.728 29.46 9.328 26.152 9.209 C 24.521 9.154 22.918 9.136 21.491 9.162 L 21.49 9.152 Z M 24.964 15.809 C 26.66 15.809 29.255 15.85 30.29 16.006 C 31.347 16.151 33.388 16.674 36.558 17.605 C 39.72 18.531 42.228 19.4 44.204 20.256 C 46.214 21.123 47.717 21.848 48.816 22.479 C 49.903 23.095 51.85 24.444 54.757 26.582 C 57.582 28.661 61.977 32.868 62.545 33.409 C 63.059 33.987 66.887 38.277 68.468 40.608 C 70.088 42.979 71.508 45.424 72.802 48.072 C 74.095 50.7 75.196 53.535 76.166 56.729 C 77.134 59.874 77.662 62.888 77.823 66.024 C 77.987 69.237 77.988 71.728 77.826 73.633 C 77.665 75.582 77.455 77.222 77.19 78.658 C 76.925 80.084 76.454 81.943 75.746 84.342 C 75.046 86.712 74.294 88.76 73.44 90.626 C 72.572 92.524 71.789 94.062 71.045 95.341 C 70.309 96.606 69.238 98.171 67.771 100.124 C 66.352 102.028 64.375 104.128 61.718 106.564 C 59.08 108.995 56.561 110.917 53.996 112.459 C 51.39 114.039 49.338 115.133 47.709 115.81 C 46.038 116.513 44.471 117.087 42.918 117.569 C 41.398 118.044 40.063 118.336 38.727 118.485 C 37.353 118.645 35.811 118.721 33.982 118.721 C 32.15 118.721 30.388 118.643 28.611 118.479 C 26.844 118.319 25.106 118.061 23.28 117.684 C 21.429 117.302 19.868 116.933 18.523 116.555 C 17.207 116.189 15.599 115.617 13.596 114.806 C 11.61 114.001 9.586 113.028 7.423 111.837 C 5.25 110.643 3.581 109.628 2.311 108.727 C 1.026 107.816 -0.457 106.65 -2.2 105.18 C -3.938 103.714 -5.209 102.549 -6.097 101.606 C -7.015 100.634 -8.028 99.488 -9.173 98.126 C -10.295 96.793 -11.501 95.163 -12.86 93.154 C -14.214 91.155 -15.313 89.32 -16.223 87.553 C -17.141 85.774 -17.959 83.979 -18.712 82.089 C -19.47 80.195 -20.101 78.379 -20.641 76.545 C -21.174 74.74 -21.531 73.098 -21.735 71.467 C -21.966 69.702 -22.293 68.066 -22.817 67.544 C -22.513 67.848 -22.455 67.974 -22.56 66.889 C -22.658 65.857 -22.608 64.279 -22.393 61.965 C -22.176 59.633 -21.916 57.715 -21.593 56.117 C -21.276 54.511 -20.857 52.865 -20.316 51.084 C -19.794 49.344 -18.849 47.018 -17.432 43.968 C -16.016 40.917 -15.149 39.275 -14.73 38.774 C -14.107 38.026 -13.498 37.103 -13.002 36.187 C -12.643 35.489 -12.24 34.954 -11.616 34.346 C -10.843 33.565 -10.113 32.709 -9.558 31.908 C -9.149 31.32 -8.141 30.258 -6.355 28.585 C -4.589 26.923 -2.864 25.529 -1.051 24.308 C 0.787 23.062 2.372 22.1 3.806 21.358 C 5.211 20.624 7.403 19.743 10.512 18.652 C 13.574 17.576 16.479 16.852 19.421 16.424 C 22.494 15.976 23.423 15.811 24.961 15.811 L 24.964 15.809 Z" fill-rule="evenodd" opacity="1" id="path1" style="fill-opacity: 1; fill: rgb(255, 255, 255);"></path><path d="M 37.827 30.746 C 39.5 30.826 40.881 31.077 41.975 31.487 C 43.061 31.901 44.188 32.596 45.359 33.584 C 46.529 34.572 47.369 35.479 47.873 36.307 C 48.375 37.14 48.748 38.32 48.998 39.882 C 49.252 41.446 49.29 42.632 49.127 43.466 C 48.951 44.296 48.46 45.312 47.623 46.543 C 46.785 47.782 45.785 48.768 44.606 49.512 C 43.438 50.252 42.435 50.745 41.593 50.996 C 40.749 51.242 39.5 51.365 37.829 51.365 C 36.16 51.365 34.908 51.241 34.06 50.996 C 33.222 50.745 32.174 50.208 30.923 49.392 C 29.665 48.567 28.667 47.662 27.91 46.673 C 27.158 45.686 26.662 44.707 26.408 43.713 C 26.152 42.721 26.029 41.568 26.029 40.252 C 26.029 38.946 26.147 38.011 26.408 37.412 C 26.661 36.836 26.988 36.227 27.407 35.568 C 27.83 34.903 28.406 34.251 29.162 33.592 C 29.919 32.928 31.132 32.268 32.806 31.612 C 34.426 30.971 36.054 30.683 37.677 30.739 Z" fill="none" opacity="1" stroke-linecap="round" stroke-linejoin="round" id="path2" style="fill: none; fill-opacity: 1; stroke-dasharray: none; stroke-opacity: 1; stroke-width: 4.03734px;"></path><path d="M 37.923 28.73 C 39.728 28.825 41.426 29.143 42.694 29.601 C 43.95 30.099 45.369 30.966 46.661 32.042 C 47.92 33.115 48.976 34.276 49.602 35.265 C 50.202 36.315 50.707 37.855 50.991 39.561 C 51.257 41.253 51.283 42.825 51.102 43.885 C 50.847 44.945 50.205 46.317 49.294 47.676 C 48.329 49.068 47.033 50.341 45.684 51.219 C 44.422 52.011 43.157 52.622 42.158 52.934 C 41.13 53.215 39.599 53.384 37.829 53.384 C 36.061 53.384 34.509 53.21 33.481 52.93 C 32.472 52.61 31.158 51.949 29.816 51.08 C 28.433 50.159 27.185 49.02 26.304 47.896 C 25.454 46.753 24.784 45.414 24.452 44.214 C 24.17 43.077 24.01 41.675 24.01 40.252 C 24.01 38.82 24.222 37.476 24.559 36.6 C 24.847 35.952 25.246 35.207 25.703 34.484 C 26.221 33.692 26.984 32.824 27.831 32.073 C 28.771 31.281 30.278 30.443 32.064 29.734 C 33.879 29.038 35.937 28.681 37.77 28.722 Z M 37.583 32.755 C 36.171 32.684 34.973 32.903 33.549 33.489 C 31.989 34.092 31.067 34.573 30.493 35.11 C 29.83 35.676 29.438 36.113 29.11 36.652 C 28.729 37.247 28.476 37.715 28.258 38.219 C 28.073 38.541 28.047 39.073 28.047 40.252 C 28.047 41.461 28.132 42.362 28.362 43.209 C 28.538 43.997 28.859 44.617 29.514 45.448 C 30.147 46.302 30.896 46.975 32.03 47.704 C 33.19 48.467 33.962 48.877 34.63 49.06 C 35.297 49.268 36.26 49.347 37.829 49.347 C 39.401 49.347 40.363 49.27 41.023 49.06 C 41.706 48.87 42.453 48.494 43.526 47.807 C 44.535 47.198 45.241 46.498 45.951 45.412 C 46.714 44.309 47.053 43.661 47.15 43.061 C 47.29 42.454 47.247 41.64 47.006 40.205 C 46.79 38.788 46.549 37.967 46.147 37.351 C 45.764 36.686 45.139 36.028 44.058 35.126 C 43.008 34.226 42.178 33.704 41.262 33.374 C 40.343 33.013 39.272 32.826 37.732 32.761 Z" style="fill: rgb(255, 255, 255);"></path></g></g></g></g></g></g></svg></g></g></svg></g></svg>