<?xml version="1.0" encoding="UTF-8" standalone="no"?>
<!DOCTYPE svg PUBLIC "-//W3C//DTD SVG 1.1//EN" "http://www.w3.org/Graphics/SVG/1.1/DTD/svg11.dtd">
<!-- Created with Vectornator (http://vectornator.io/) -->
<svg height="100%" stroke-miterlimit="10" style="fill-rule:nonzero;clip-rule:evenodd;stroke-linecap:round;stroke-linejoin:round;" version="1.1" viewBox="0 0 1080 2400" width="100%" xml:space="preserve" xmlns="http://www.w3.org/2000/svg" xmlns:xlink="http://www.w3.org/1999/xlink">
<defs/>
<clipPath id="ArtboardFrame">
<rect height="2400" width="1080" x="0" y="0"/>
</clipPath>
<g clip-path="url(#ArtboardFrame)" id="Layer-1">
<path d="M132.3 0L947.7 0C1020.77 0 1080 56.5901 1080 126.397L1080 2273.6C1080 2343.41 1020.77 2400 947.7 2400L132.3 2400C59.2328 2400 0 2343.41 0 2273.6L0 126.397C0 56.5901 59.2328 0 132.3 0Z" fill="#000000" fill-rule="evenodd" opacity="1" stroke="none"/>
<g opacity="1">
<path d="M1 1236.41C1 1416.41 1 1596.41 1 1776.41C181 1776.41 361 1776.41 541 1776.41C721 1776.41 901 1776.41 1081 1776.41C1081 1596.41 1081 1416.41 1081 1236.41C1081 1056.41 1081 876.41 1081 696.41C901 696.41 721 696.41 541 696.41C361 696.41 181 696.41 1 696.41C1 876.41 1 1056.41 1 1236.41Z" fill="#000000" fill-rule="evenodd" opacity="1" stroke="none"/>
<path d="M442 784.41C430 785.743 419.333 787.41 410 789.41C400.667 791.41 390.833 794.077 380.5 797.41C370.167 800.743 358.5 805.41 345.5 811.41C332.5 817.41 321.167 823.41 311.5 829.41C301.833 835.41 292.333 842.077 283 849.41C273.667 856.743 262.167 867.91 248.5 882.91C234.833 897.91 225.167 909.577 219.5 917.91C213.833 926.243 208 936.077 202 947.41C196 958.743 190.667 970.577 186 982.91C181.333 995.243 177.667 1006.41 175 1016.41C172.333 1026.41 170 1038.24 168 1051.91C166 1065.58 164.833 1080.74 164.5 1097.41C164.167 1114.08 165.333 1132.08 168 1151.41C170.667 1170.74 173.167 1184.91 175.5 1193.91C177.833 1202.91 181.667 1214.58 187 1228.91C192.333 1243.24 198 1256.24 204 1267.91C210 1279.58 216.333 1290.58 223 1300.91C229.667 1311.24 237 1321.41 245 1331.41C253 1341.41 262.167 1351.58 272.5 1361.91C282.833 1372.24 292.333 1380.91 301 1387.91C309.667 1394.91 320.833 1402.74 334.5 1411.41C348.167 1420.08 361.333 1427.41 374 1433.41C386.667 1439.41 398.333 1444.24 409 1447.91C419.667 1451.58 430.667 1454.74 442 1457.41C453.333 1460.08 466.167 1462.24 480.5 1463.91C494.833 1465.58 507.5 1466.41 518.5 1466.41C529.5 1466.41 542.167 1465.58 556.5 1463.91C570.833 1462.24 583.5 1460.08 594.5 1457.41C605.5 1454.74 617.5 1450.91 630.5 1445.91C637 1443.41 643.5 1440.91 650 1438.41C650 1492.91 650 1547.41 650 1601.91C650 1710.91 650.667 1766.41 652 1768.41C653.333 1770.41 655.333 1771.58 658 1771.91C660.667 1772.24 663 1771.24 665 1768.91C667 1766.58 668 1709.41 668 1597.41C668 1485.41 674.833 1425.08 688.5 1416.41C702.167 1407.74 716.333 1396.58 731 1382.91C745.667 1369.24 757.667 1356.24 767 1343.91C776.333 1331.58 784.667 1318.74 792 1305.41C799.333 1292.08 806 1277.08 812 1260.41C818 1243.74 822.667 1226.58 826 1208.91C829.333 1191.24 831.167 1171.91 831.5 1150.91C831.833 1129.91 830.833 1111.24 828.5 1094.91C826.167 1078.58 822 1060.58 816 1040.91C810 1021.24 802 1001.58 792 981.91C782 962.243 771.333 944.743 760 929.41C748.667 914.077 738.333 901.577 729 891.91C719.667 882.243 710.667 873.743 702 866.41C693.333 859.077 684.5 852.243 675.5 845.91C666.5 839.577 657 833.577 647 827.91C637 822.243 622.5 815.577 603.5 807.91C584.5 800.243 565.5 794.41 546.5 790.41C527.5 786.41 510.704 784.167 491.371 783.5C472.038 782.833 454 783.077 442 784.41Z" fill="#ffffff" fill-rule="evenodd" opacity="1" stroke="none"/>
<path d="M449.5 802.41C431.167 805.077 412.5 809.743 393.5 816.41C374.5 823.077 360.5 828.743 351.5 833.41C342.5 838.077 332.333 844.243 321 851.91C309.667 859.577 298.5 868.577 287.5 878.91C276.5 889.243 269.5 896.577 266.5 900.91C263.5 905.243 259.833 909.577 255.5 913.91C251.167 918.243 247.667 922.91 245 927.91C242.333 932.91 239.333 937.41 236 941.41C232.667 945.41 226.667 956.743 218 975.41C209.333 994.077 203.333 1008.91 200 1019.91C196.667 1030.91 194 1041.41 192 1051.41C190 1061.41 188.333 1073.58 187 1087.91C185.667 1102.24 185.333 1112.91 186 1119.91C186.667 1126.91 187.333 1130.74 188 1131.41C188.667 1132.08 189.667 1137.58 191 1147.91C192.333 1158.24 194.667 1169.08 198 1180.41C201.333 1191.74 205.333 1203.24 210 1214.91C214.667 1226.58 219.833 1237.91 225.5 1248.91C231.167 1259.91 238.167 1271.58 246.5 1283.91C254.833 1296.24 262.5 1306.58 269.5 1314.91C276.5 1323.24 282.833 1330.41 288.5 1336.41C294.167 1342.41 302.333 1349.91 313 1358.91C323.667 1367.91 333 1375.24 341 1380.91C349 1386.58 359.667 1393.08 373 1400.41C386.333 1407.74 399.167 1413.91 411.5 1418.91C423.833 1423.91 434.167 1427.58 442.5 1429.91C450.833 1432.24 460.667 1434.58 472 1436.91C483.333 1439.24 494.5 1440.91 505.5 1441.91C516.5 1442.91 527.667 1443.41 539 1443.41C550.333 1443.41 560.333 1442.91 569 1441.91C577.667 1440.91 586.833 1438.91 596.5 1435.91C606.167 1432.91 616.167 1429.24 626.5 1424.91C636.833 1420.58 650 1413.58 666 1403.91C682 1394.24 698.167 1381.91 714.5 1366.91C730.833 1351.91 743.5 1338.41 752.5 1326.41C761.5 1314.41 768.333 1304.41 773 1296.41C777.667 1288.41 782.667 1278.58 788 1266.91C793.333 1255.24 798.167 1242.08 802.5 1227.41C806.833 1212.74 809.833 1200.91 811.5 1191.91C813.167 1182.91 814.5 1172.41 815.5 1160.41C816.5 1148.41 816.5 1132.58 815.5 1112.91C814.5 1093.24 811 1073.58 805 1053.91C799 1034.24 792 1016.24 784 999.91C776 983.577 767 968.077 757 953.41C747 938.743 734.667 923.743 720 908.41C705.333 893.077 689.167 878.91 671.5 865.91C653.833 852.91 641.5 844.41 634.5 840.41C627.5 836.41 617.833 831.743 605.5 826.41C593.167 821.077 577.333 815.577 558 809.91C538.667 804.243 525.5 800.91 518.5 799.91C511.5 798.91 494.969 798.627 484.635 798.627C474.302 798.627 467.833 799.743 449.5 802.41Z" fill="#000000" fill-rule="evenodd" opacity="1" stroke="none"/>
<path d="M565 878.41C558.333 881.077 553.5 883.743 550.5 886.41C547.5 889.077 545.167 891.743 543.5 894.41C541.833 897.077 540.5 899.577 539.5 901.91C538.5 904.243 538 908.077 538 913.41C538 918.743 538.5 923.41 539.5 927.41C540.5 931.41 542.5 935.41 545.5 939.41C548.5 943.41 552.5 947.077 557.5 950.41C562.5 953.743 566.667 955.91 570 956.91C573.333 957.91 578.333 958.41 585 958.41C591.667 958.41 596.667 957.91 600 956.91C603.333 955.91 607.333 953.91 612 950.91C616.667 947.91 620.667 943.91 624 938.91C627.333 933.91 629.333 929.743 630 926.41C630.667 923.077 630.5 918.243 629.5 911.91C628.5 905.577 627 900.743 625 897.41C623 894.077 619.667 890.41 615 886.41C610.333 882.41 605.833 879.577 601.5 877.91C597.167 876.243 591.667 875.243 585 874.91C578.333 874.577 571.667 875.743 565 878.41Z" fill="#ffffff" fill-rule="evenodd" opacity="1" stroke="none"/>
<path d="M570.5 893.41C566.167 895.41 563 897.577 561 899.91C559 902.243 557.5 904.41 556.5 906.41C555.5 908.41 555.333 912.243 556 917.91C556.667 923.577 558.333 928.077 561 931.41C563.667 934.743 566.5 937.243 569.5 938.91C572.5 940.577 576.833 941.577 582.5 941.91C588.167 942.243 592.167 942.077 594.5 941.41C596.833 940.743 599.667 939.243 603 936.91C606.333 934.577 608.833 931.91 610.5 928.91C612.167 925.91 612.833 921.743 612.5 916.41C612.167 911.077 611.333 907.243 610 904.91C608.667 902.577 606.167 899.91 602.5 896.91C598.833 893.91 593.667 892.077 587 891.41C580.333 890.743 574.833 891.41 570.5 893.41Z" fill="#000000" fill-rule="evenodd" opacity="1" stroke="none"/>
</g>
</g>
</svg>
