<?xml version="1.0" encoding="UTF-8" standalone="no"?>
<!DOCTYPE svg PUBLIC "-//W3C//DTD SVG 1.1//EN" "http://www.w3.org/Graphics/SVG/1.1/DTD/svg11.dtd">
<!-- Created with Vectornator (http://vectornator.io/) -->
<svg height="100%" stroke-miterlimit="10" style="fill-rule:nonzero;clip-rule:evenodd;stroke-linecap:round;stroke-linejoin:round;" version="1.1" viewBox="0 0 960 450" width="100%" xml:space="preserve" xmlns="http://www.w3.org/2000/svg" xmlns:xlink="http://www.w3.org/1999/xlink">
<defs/>
<clipPath id="ArtboardFrame">
<rect height="450" width="960" x="0" y="0"/>
</clipPath>
<g clip-path="url(#ArtboardFrame)" id="Layer-1">
<path d="M407.851 24.3415C414.885 24.3415 416.896 29.1532 420.951 33.6893C424.846 38.047 428.124 34.9515 432.603 41.1939C429.018 36.714 423.543 38.2477 420.753 35.1376C416.176 30.0351 414.979 25.8154 407.324 25.3948C400.683 25.0299 396.25 35.778 390.472 28.5546C397.864 31.5115 400.645 24.3415 407.851 24.3415ZM389.418 28.5546C383.648 31.8519 375.925 41.3757 369.406 40.1406C377.102 39.7071 382.55 32.0525 389.418 28.5546ZM594.807 31.7144C588.087 34.5944 587.211 39.8726 581.641 43.3005C585.831 36.0027 587.177 33.8944 594.807 31.7144ZM599.415 32.7019C609.216 33.9106 628.643 43.9832 633.778 47.5136C633.278 47.6804 602.553 33.9035 595.86 32.7677C596.797 32.5335 598.015 32.5292 599.415 32.7019ZM434.709 39.0874C438.396 42.2472 438.396 42.2472 442.082 45.407C437.409 44.5573 438.842 41.417 433.656 41.1939C434.183 40.1406 434.183 40.1406 434.709 39.0874ZM368.353 39.0874C363.694 46.0749 358.298 47.9955 350.447 51.7267C399.424 51.7267 399.424 51.7267 448.402 51.7267C446.822 50.6734 446.822 50.6734 445.242 49.6201C448.176 48.5051 449.569 50.7865 451.562 52.7799C398.898 52.7799 398.898 52.7799 346.234 52.7799C358.259 46.8215 360.282 46.7367 368.353 39.0874ZM579.008 41.1939C571.875 48.3271 564.289 49.8267 556.889 56.993C562.422 50.9656 571.217 43.4902 579.008 41.1939ZM444.189 45.407C444.365 45.7581 445.066 47.1625 445.242 47.5136C444.891 47.5136 443.486 47.5136 443.135 47.5136C443.311 47.1625 444.013 45.7581 444.189 45.407ZM636.083 47.4807C639.221 48.1045 643.88 53.3507 646.187 54.656C649.693 56.6398 653.363 58.3206 656.95 60.1529C604.286 60.1529 604.286 60.1529 551.623 60.1529C553.203 58.5729 553.203 58.5729 554.783 56.993C554.783 58.0463 554.783 58.0463 554.783 59.0996C603.76 59.0996 603.76 59.0996 652.737 59.0996C645.098 55.5307 640.795 53.2367 634.831 47.5136C635.206 47.3886 635.634 47.3915 636.083 47.4807ZM137.126 51.595C142.562 52.0856 144.151 55.7895 150.457 58.178C154.624 59.7568 160.331 56.045 165.202 58.5729C182.453 67.5258 196.842 78.1786 214.575 87.538C146.638 87.538 146.638 87.538 78.7022 87.538C88.564 80.7903 98.6618 69.2292 109.247 64.366C111.934 63.1316 115.441 64.801 118.068 63.4443C123.53 60.6237 122.376 54.1981 130.082 52.3521C133.062 51.6383 135.314 51.4314 137.126 51.595ZM136.83 52.2862C135.848 52.2985 134.746 52.46 133.473 52.7799C121.311 55.8355 127.373 59.3006 118.595 64.7609C114.309 67.4272 102.412 70.7208 97.3978 73.4505C91.7355 76.5325 87.6277 82.8369 81.862 86.4847C146.112 86.4847 146.112 86.4847 210.362 86.4847C202.498 82.5208 195.724 76.5988 187.848 72.6605C185.871 71.6721 183.25 72.8408 181.265 71.8705C167.189 64.9924 168.501 59.976 151.247 59.0996C144.37 58.7502 143.708 52.2003 136.83 52.2862ZM318.849 73.8454C320.552 75.0678 322.838 75.9016 324.707 77.0053C324.032 77.0053 323.358 77.0053 322.009 77.0053C322.009 122.296 322.009 122.296 322.009 167.587C332.015 167.587 332.015 167.587 342.021 167.587C342.021 168.64 342.021 168.64 342.021 169.693C332.015 169.693 332.015 169.693 322.009 169.693C322.009 176.013 322.009 176.013 322.009 182.333C343.074 182.333 343.074 182.333 364.14 182.333C364.14 183.386 364.14 183.386 364.14 184.439C343.074 184.439 343.074 184.439 322.009 184.439C322.009 190.759 322.009 190.759 322.009 197.079C352.027 196.552 352.027 196.552 382.045 196.025C382.045 197.079 382.045 197.079 382.045 198.132C352.027 198.132 352.027 198.132 322.009 198.132C322.009 204.978 322.009 204.978 322.009 211.824C352.027 211.298 352.027 211.298 382.045 210.771C382.045 211.824 382.045 211.824 382.045 212.878C352.027 212.878 352.027 212.878 322.009 212.878C322.009 219.197 322.009 219.197 322.009 225.517C352.027 225.517 352.027 225.517 382.045 225.517C382.045 226.57 382.045 226.57 382.045 227.624C352.027 227.624 352.027 227.624 322.009 227.624C322.009 233.943 322.009 233.943 322.009 240.263C352.027 240.263 352.027 240.263 382.045 240.263C382.045 241.316 382.045 241.316 382.045 242.369C352.027 242.369 352.027 242.369 322.009 242.369C322.009 248.689 322.009 248.689 322.009 255.009C352.027 255.009 352.027 255.009 382.045 255.009C382.045 256.062 382.045 256.062 382.045 257.115C352.027 257.115 352.027 257.115 322.009 257.115C322.009 263.435 322.009 263.435 322.009 269.755C352.027 269.228 352.027 269.228 382.045 268.701C382.045 270.281 382.045 270.281 382.045 271.861C352.027 271.335 352.027 271.335 322.009 270.808C322.009 277.128 322.009 277.128 322.009 283.447C352.027 283.447 352.027 283.447 382.045 283.447C382.045 284.5 382.045 284.5 382.045 285.554C352.027 285.554 352.027 285.554 322.009 285.554C322.009 292.4 322.009 292.4 322.009 299.246C352.027 298.72 352.027 298.72 382.045 298.193C382.045 299.246 382.045 299.246 382.045 300.3C352.027 300.3 352.027 300.3 322.009 300.3C322.009 306.619 322.009 306.619 322.009 312.939C352.027 312.939 352.027 312.939 382.045 312.939C382.045 313.992 382.045 313.992 382.045 315.045C352.027 315.045 352.027 315.045 322.009 315.045C322.009 321.365 322.009 321.365 322.009 327.685C337.494 327.147 352.655 321.644 368.09 324.262C381.736 326.576 388.804 337.014 401.531 339.797C403.529 334.006 404.133 327.752 404.296 321.628C405.2 287.81 409.305 247.596 397.318 214.227C387.363 186.517 365.571 178.705 346.86 160.939C353.533 166.082 362.356 169.13 369.406 173.907C369.406 162.321 369.406 162.321 369.406 150.735C402.584 150.735 402.584 150.735 435.762 150.735C435.762 196.552 435.762 196.552 435.762 242.369C444.715 242.369 444.715 242.369 453.668 242.369C453.668 239.21 453.668 239.21 453.668 236.05C470.806 233.372 456.83 227.871 476.84 225.517C476.84 208.138 476.84 208.138 476.84 190.759C480.527 190.759 480.527 190.759 484.213 190.759C484.213 172.327 484.213 172.327 484.213 153.894C486.846 153.894 486.846 153.894 489.479 153.894C489.479 172.327 489.479 172.327 489.479 190.759C493.166 190.759 493.166 190.759 496.852 190.759C496.852 208.138 496.852 208.138 496.852 225.517C515.083 226.689 503.447 233.46 520.024 236.05C520.024 258.169 520.024 258.169 520.024 280.287C527.134 279.234 527.134 279.234 534.244 278.181C534.639 248.92 536.695 219.633 535.429 190.397C535.358 188.757 535.233 187.093 535.133 185.427C537.209 204.164 537 223.323 537.173 242.139C537.597 288.29 536.271 334.459 536.449 380.612C536.486 390.198 537.315 400.505 542.143 408.787C546.356 405.1 546.356 405.1 550.569 401.414C545.427 394.932 548.763 384.935 548.726 376.662C548.477 321.014 548.55 265.366 548.463 209.718C550.043 209.718 550.043 209.718 551.623 209.718C551.371 194.637 546.422 172.886 555.441 157.646C560.134 149.715 578.529 154.949 576.901 141.255C575.351 128.214 565.746 132.338 560.707 127.036C566.868 129.932 573.658 132.137 579.502 135.397C578.547 140.333 579.995 146.463 576.638 150.208C571.919 155.471 562.257 154.334 557.679 159.72C553.674 164.432 553.265 171.541 553.235 177.725C553.199 185.296 553.4 193.686 557.515 200.04C566.691 214.211 591.965 209.615 603.233 209.718C603.233 187.073 603.233 187.073 603.233 164.427C630.618 164.954 630.618 164.954 658.003 165.48C658.574 157.449 656.91 148.933 659.715 141.387C661.052 137.791 667.168 138.206 669.326 135.034C672.659 130.138 671.79 121.665 674.856 117.161C674.856 125.607 674.856 128.681 674.856 140.202C668.01 140.202 668.01 140.202 661.163 140.202C661.273 191.713 660.763 243.23 661.492 294.737C661.75 312.925 662.82 331.101 664.125 349.244C664.728 357.615 665.084 355.939 671.696 358.23C671.696 352.963 671.696 352.963 671.696 347.697C675.134 347.762 678.158 348.592 680.616 349.803C678.397 349.803 676.682 349.803 672.749 349.803C673.624 359.418 674.493 361.315 684.072 361.357C682.642 362.295 680.811 363.105 678.016 363.496C684.347 370.374 690.027 378.122 693.815 386.668C716.554 374.568 731.063 374.431 751.745 389.828C751.745 266.644 751.745 263.47 751.745 143.461C753.168 147.487 753.54 151.926 753.72 156.199C754.887 183.842 754.512 211.543 754.905 239.21C773.337 239.21 773.337 239.21 791.769 239.21C792.999 217.31 789.373 194.586 795.456 173.512C799.586 159.204 812.659 149.199 821.261 137.042C831.366 149.493 843.369 159.316 844.466 176.572C847.551 225.106 847.256 273.807 848.646 322.418C851.279 322.418 851.279 322.418 853.913 322.418C853.913 249.742 853.913 249.742 853.913 177.066C860.759 177.066 860.759 177.066 867.605 177.066C867.605 160.741 867.605 160.741 867.605 144.415C876.031 144.415 876.031 144.415 884.458 144.415C884.777 128.712 881.702 110.326 886.564 95.7999C886.564 115.542 886.564 121.687 886.564 147.575C878.138 147.575 878.138 147.575 869.712 147.575C869.688 155.904 870.237 164.249 869.646 172.557C869.056 180.854 860.322 179.351 859.146 188.85C853.728 232.617 856.202 283.367 856.019 324.525C852.333 324.525 852.333 324.525 848.646 324.525C849.173 355.597 849.173 355.597 849.7 386.668C852.333 382.631 854.185 377.959 857.599 374.555C860.71 371.454 866.18 371.144 868.79 367.61C871.25 364.282 871.278 359.653 871.654 355.531C872.941 341.411 873.558 327.214 873.793 313.038C874.317 281.406 873.877 249.78 873.925 218.144C897.624 218.144 897.624 218.144 921.322 218.144C921.322 198.659 921.322 198.659 921.322 179.173C914.476 179.173 914.476 179.173 907.63 179.173C907.63 164.196 907.63 161.926 907.63 149.22C908.066 149.852 908.453 150.53 908.716 151.261C911.634 159.365 909.392 168.46 909.736 177.066C917.109 177.066 917.109 177.066 924.482 177.066C924.482 197.605 924.482 197.605 924.482 218.144C937.648 218.144 937.648 218.144 950.814 218.144C950.814 240.79 950.814 240.79 950.814 263.435C968.193 263.435 968.193 263.435 985.572 263.435C968.193 264.488 968.193 264.488 950.814 265.541C950.814 287.66 950.814 287.66 950.814 309.779C954.231 307.634 957.817 305.669 961.478 303.822C954.788 307.931 952.161 317.809 944.758 320.443C937.011 323.2 928.294 317.2 920.17 318.469C911.834 319.77 903.787 323.367 896.702 327.948C884.369 335.921 885.274 355.313 876.493 367.084C872.996 371.771 864.797 370.332 860.496 374.292C856.13 378.311 854.703 384.649 851.806 389.828C846.584 387.349 841.919 382.509 836.139 382.39C826.287 382.185 817.157 389.139 807.305 388.906C798.447 388.697 790.746 380.687 781.895 381.106C771.231 381.609 762.283 391.923 751.613 391.54C740.984 391.158 732.918 379.28 722.286 378.967C712.133 378.665 703.305 386.207 693.815 389.828C686.486 380.393 681.705 368.242 671.828 361.521C663.675 355.974 652.776 354.694 642.929 355.202C634.151 355.653 625.147 358.933 618.177 364.286C610.658 370.06 609.541 382.492 601.291 387.162C587.101 395.195 569.167 393.967 554.223 400.492C548.911 402.812 546.17 408.831 542.143 413C537.228 403.565 533.438 393.451 527.397 384.693C523.919 379.651 519.856 373.839 513.968 372.153C503.248 369.082 491.174 374.579 480.527 371.264C473.674 369.131 470.985 360.051 464.596 356.781C459.258 354.05 452.383 356.258 446.822 354.017C440.191 351.344 435.725 344.207 428.817 342.365C418.874 339.711 407.955 343.495 397.976 340.982C384.233 337.521 372.505 324.937 358.347 325.578C349.457 325.982 340.146 327.5 332.41 331.898C322.632 337.456 318.095 351.076 307.395 354.543C298.641 357.38 289.595 349.194 280.404 348.75C273.853 348.434 267.147 349.885 261.05 352.305C254.975 354.717 249.255 358.388 244.593 362.969C238.858 368.606 237.96 379.787 230.374 382.455C220.844 385.807 210.378 377.571 200.323 378.538C191.573 379.379 183.843 384.661 175.604 387.721C169.381 374.223 162.571 357.911 148.943 351.975C135.874 346.286 118.522 351.594 107.108 343.056C96.9839 335.483 98.0772 319.222 91.0782 308.693C82.2117 295.354 60.6269 297.046 48.1899 287.002C52.1133 270.015 49.2105 247.738 49.2105 230.783C47.6306 230.783 47.6306 230.783 46.0507 230.783C47.1008 258.876 47.1134 259.04 48.1572 286.969C47.8686 286.736 47.5137 286.59 47.2356 286.344C36.5565 276.865 34.136 260.389 23.9319 250.401C16.2683 242.899 5.1815 240.618-6.18544 239.802C-2.29146 239.921 1.50031 240.03 9.18605 240.263C9.18605 229.204 9.18605 229.204 9.18605 218.144C27.6184 218.144 27.6184 218.144 46.0507 218.144C46.0507 173.907 46.0507 173.907 46.0507 129.669C62.1005 141.548 78.9266 152.461 94.2054 165.316C121.414 188.209 120.09 208.636 120.833 242.369C121.886 234.47 121.886 234.47 122.94 226.57C132.946 226.57 132.946 226.57 142.952 226.57C142.425 212.878 142.425 212.878 141.899 199.185C146.638 199.185 146.638 199.185 151.378 199.185C151.378 212.779 151.378 212.974 151.378 226.372C146.435 220.472 148.218 208.546 148.218 202.345C146.638 202.345 146.638 202.345 145.059 202.345C145.059 216.038 145.059 216.038 145.059 229.73C135.579 229.73 135.579 229.73 126.1 229.73C126.1 237.63 126.1 237.63 126.1 245.529C121.36 245.529 121.36 245.529 116.62 245.529C116.62 294.507 116.62 294.507 116.62 343.484C136.584 344.783 153.246 351.587 173.497 351.91C173.497 352.963 173.497 352.963 173.497 354.017C164.544 354.017 164.544 354.017 155.591 354.017C161.204 360.191 164.839 364.733 173.497 363.496C173.497 365.076 173.497 365.076 173.497 366.656C170.864 366.656 170.864 366.656 168.231 366.656C171.233 371.015 173.281 379.057 177.71 381.402C177.183 313.466 177.183 313.466 176.657 245.529C171.917 245.529 171.917 245.529 167.177 245.529C166.584 217.414 163.413 239.506 151.642 226.768C151.589 226.71 151.561 226.629 151.51 226.57C160.793 226.57 160.923 226.57 170.337 226.57C171.39 234.47 171.39 234.47 172.444 242.369C172.444 218.671 172.444 218.671 172.444 194.972C191.929 194.972 191.929 194.972 211.415 194.972C211.681 183.288 212.755 168.748 221.948 161.531C245.426 143.098 271.101 127.65 295.677 110.71C295.677 187.073 295.677 187.073 295.677 263.435C307.263 263.435 307.263 263.435 318.849 263.435C318.849 168.64 318.849 168.64 318.849 73.8454ZM151.51 226.57C151.445 226.57 151.445 226.57 151.378 226.57C151.378 226.471 151.378 226.47 151.378 226.372C151.429 226.432 151.458 226.511 151.51 226.57ZM-6.18544 239.802C-11.0969 239.653-15.8787 239.503-25.572 239.21C-19.3788 239.218-12.7494 239.331-6.18544 239.802ZM48.1572 286.969C48.1688 286.979 48.1783 286.992 48.1899 287.002C48.1804 287.045 48.1667 287.09 48.1572 287.134C48.1541 287.051 48.1604 287.05 48.1572 286.969ZM961.478 303.822C961.525 303.792 961.563 303.751 961.61 303.723C962.319 303.299 963.111 303.062 963.848 302.702C963.059 303.075 962.258 303.428 961.478 303.822ZM963.848 302.702C970.792 299.422 978.053 296.854 985.572 296.086C978.371 298.382 970.597 299.405 963.848 302.702ZM907.63 149.22C906.986 148.288 906.153 147.474 905.26 146.686C906.159 146.63 906.444 146.595 907.63 146.521C907.63 147.871 907.63 148.076 907.63 149.22ZM905.26 146.686C899.77 147.029 898.018 147.122 890.777 147.575C890.777 117.556 890.777 117.556 890.777 87.538C890.744 87.538 890.743 87.538 890.711 87.538C891.429 86.4837 892.015 85.3556 892.884 84.3782C893.586 101.626 891.016 119.323 894.99 136.12C896.115 140.873 901.456 143.331 905.26 146.686ZM890.711 87.538C888.958 90.1133 887.553 92.8455 886.564 95.7999C886.564 92.6495 886.564 91.669 886.564 87.538C888.638 87.538 888.702 87.538 890.711 87.538ZM751.745 143.461C751.445 142.611 751.167 141.764 750.757 140.959C750.607 140.664 750.322 140.469 750.132 140.202C750.781 140.202 750.938 140.202 751.745 140.202C751.745 141.831 751.745 141.873 751.745 143.461ZM750.132 140.202C744.845 140.202 743.565 140.202 736.999 140.202C736.999 126.509 736.999 126.509 736.999 112.817C710.519 112.817 703.849 112.817 684.039 112.817C702.008 108.341 721.545 111.131 740.159 109.657C740.46 116.878 738.73 124.469 741.048 131.314C742.403 135.318 747.707 136.783 750.132 140.202ZM684.039 112.817C681.991 113.326 679.954 113.876 677.95 114.595C676.558 115.093 675.621 116.038 674.856 117.161C674.856 115.569 674.856 114.99 674.856 112.817C679.447 112.817 680.604 112.817 684.039 112.817ZM684.072 361.357C684.162 361.298 684.251 361.253 684.335 361.192C684.335 361.287 684.335 361.291 684.335 361.39C684.224 361.39 684.182 361.357 684.072 361.357ZM684.335 361.192C684.335 356.913 684.335 355.252 684.335 352.338C687.359 355.244 687.692 358.795 684.335 361.192ZM684.335 352.338C683.347 351.389 682.086 350.527 680.616 349.803C681.665 349.803 682.475 349.803 684.335 349.803C684.335 351.071 684.335 351.503 684.335 352.338ZM560.707 127.036C557.295 125.431 553.998 123.695 551.327 121.243C552.985 121.243 554.634 121.243 557.942 121.243C558.431 124.067 559.479 125.743 560.707 127.036ZM551.327 121.243C549.817 121.243 548.314 121.243 545.303 121.243C545.303 109.13 545.303 109.13 545.303 97.0175C544.809 97.0175 544.564 97.0175 544.315 97.0175C545.192 95.367 546.468 94.1958 548.463 93.8577C548.463 101.933 543.629 111.614 548.463 118.083C549.331 119.244 550.282 120.284 551.327 121.243ZM544.315 97.0175C543.837 97.9191 543.483 98.9692 543.197 100.112C543.197 98.9092 543.197 98.5647 543.197 97.0175C543.756 97.0175 544.035 97.0175 544.315 97.0175ZM543.197 100.112C543.197 108.323 543.197 110.677 543.197 121.243C537.403 121.243 537.403 121.243 531.61 121.243C528.593 137.924 514.555 124.616 512.125 139.873C509.878 153.978 526.69 146.656 529.439 155.869C530.508 159.456 531.382 163.082 532.17 166.732C531.376 164.258 530.381 161.852 529.109 159.588C526.063 154.169 517.129 154.909 512.915 150.34C510.118 147.307 509.593 142.548 509.591 138.424C509.583 124.161 533.724 122.554 538.655 116.898C542.081 112.966 541.845 105.5 543.197 100.112ZM535.133 185.427C534.439 179.166 533.524 172.928 532.202 166.797C534.096 172.727 534.751 179.118 535.133 185.427ZM324.707 77.0053C325.35 77.0053 325.991 77.0053 327.275 77.0053C327.275 77.7649 327.219 78.6943 327.21 79.4739C326.667 78.4396 325.799 77.6495 324.707 77.0053ZM327.21 79.4739C327.339 79.721 327.588 79.8844 327.67 80.1651C330.794 90.8147 328.518 102.412 330.435 113.343C332.86 127.164 333.04 142.381 340.54 154.223C340.057 153.667 339.534 153.22 339.059 152.643C323.024 133.214 326.931 102.311 327.21 79.4739ZM340.54 154.223C342.588 156.58 344.673 158.858 346.826 160.905C344.452 159.07 342.313 157.005 340.672 154.454C340.623 154.379 340.587 154.299 340.54 154.223ZM292.517 115.976C278.26 124.927 263.539 133.164 249.76 142.835C219.204 164.283 215.439 217.831 214.97 250.368C214.543 279.933 214.526 309.515 215.332 339.073C215.677 351.75 215.004 364.781 218.425 376.991C219.344 380.268 224.082 380.965 227.346 381.928C231.816 383.248 232.649 377.196 233.534 375.082C228.267 375.082 228.267 375.082 223.001 375.082C223.001 369.289 223.001 369.289 223.001 363.496C226.517 363.687 230.737 364.057 233.961 365.603C230.72 365.603 229.534 365.603 225.107 365.603C225.107 369.816 225.107 369.816 225.107 374.029C232.013 373.262 234.323 372.83 235.442 366.425C236.348 367.064 237.186 367.783 237.747 368.762C243.54 362.969 243.54 362.969 249.333 357.176C245.458 355.686 243.603 349.62 247.226 346.743C247.226 349.521 247.226 350.38 247.226 354.017C258.774 354.017 270.405 347.634 281.984 345.59C265.872 345.59 263.694 345.59 249.76 345.59C259.959 342.246 275.193 343.536 284.091 343.484C285.988 348.938 284.121 346.201 292.517 348.75C292.517 259.748 292.517 259.748 292.517 170.747C263.025 170.747 263.025 170.747 233.534 170.747C233.534 169.693 233.534 169.693 233.534 168.64C263.025 168.64 263.025 168.64 292.517 168.64C292.517 162.321 292.517 162.321 292.517 156.001C272.505 156.001 272.505 156.001 252.493 156.001C252.493 154.948 252.493 154.948 252.493 153.894C272.505 153.894 272.505 153.894 292.517 153.894C292.517 147.575 292.517 147.575 292.517 141.255C284.617 141.255 284.617 141.255 276.718 141.255C276.718 140.202 276.718 140.202 276.718 139.148C284.617 139.148 284.617 139.148 292.517 139.148C292.517 127.562 292.517 127.562 292.517 115.976ZM249.76 345.59C249.53 345.666 249.23 345.675 249.004 345.755C248.291 346.01 247.723 346.348 247.226 346.743C247.226 346.302 247.226 346.167 247.226 345.59C248.493 345.59 248.665 345.59 249.76 345.59ZM235.442 366.425C234.986 366.104 234.483 365.852 233.961 365.603C234.576 365.603 234.801 365.603 235.64 365.603C235.59 365.954 235.499 366.106 235.442 366.425ZM684.335 121.243C706.191 121.769 706.191 121.769 728.046 122.296C715.407 125.983 696.992 123.349 684.335 123.349C684.335 122.296 684.335 122.296 684.335 121.243ZM706.191 127.76C713.957 127.562 721.727 127.826 728.046 129.669C706.191 130.196 706.191 130.196 684.335 130.722C684.335 129.669 684.335 129.669 684.335 128.616C690.663 128.616 698.425 127.957 706.191 127.76ZM49.2105 133.882C48.6839 176.013 48.6839 176.013 48.1572 218.144C67.1162 218.144 67.1162 218.144 86.0751 218.144C86.0962 234.877 85.6643 251.613 86.1404 268.339C86.4227 278.228 87.0662 288.12 88.346 297.93C89.7816 308.932 98.7618 313.588 102.401 323.472C104.628 329.52 105.432 336.041 107.799 342.036C108.579 344.012 112.215 343.484 113.46 343.484C113.679 314.255 113.673 285.025 114.119 255.799C114.24 247.843 117.655 242.9 118.068 235.391C119.275 213.426 119.21 199.095 106.219 180.753C93.0351 162.139 65.8702 146.251 49.2105 133.882ZM820.208 141.255C815.584 146.546 810.034 151.137 806.351 157.119C795.362 174.966 796.265 209.88 795.719 228.348C795.057 250.778 794.853 273.219 795.061 295.659C795.238 314.814 793.596 344.82 799.669 367.709C807.117 367.709 834.34 367.709 841.273 367.709C841.273 368.06 841.273 369.465 841.273 369.816C834.427 369.816 808.044 369.816 800.196 369.816C800.733 371.655 801.387 373.358 802.039 375.082C811.09 375.082 834.735 375.082 841.273 375.082C841.273 375.433 841.273 376.838 841.273 377.189C834.877 377.189 812.405 377.189 802.894 377.189C803.389 378.365 803.751 379.669 804.31 380.776C804.684 381.517 805.691 381.846 806.515 381.928C821.915 383.456 829.788 378.359 845.486 383.508C845.486 347.873 845.81 312.235 845.486 276.601C845.175 242.345 848.115 196.118 836.369 161.827C833.856 154.493 823.807 145.304 820.208 141.255ZM432.603 152.841C402.058 153.368 402.058 153.368 371.513 153.894C371.611 160.967 370.038 167.632 374.474 173.643C387.558 191.367 397.851 185.259 403.769 211.298C406.156 221.801 407.752 237.228 407.95 247.174C408.553 277.519 408.239 307.867 408.377 338.217C416.864 337.925 425.432 339.262 433.656 341.377C433.129 247.109 433.129 247.109 432.603 152.841ZM741.212 162.321C741.212 164.778 741.212 174.609 741.212 177.066C738.755 177.066 728.924 177.066 726.466 177.066C726.466 174.609 726.466 164.778 726.466 162.321C728.924 162.321 738.755 162.321 741.212 162.321ZM713.827 162.321C713.827 164.778 713.827 174.609 713.827 177.066C711.37 177.066 701.539 177.066 699.081 177.066C699.081 174.609 699.081 164.778 699.081 162.321C701.539 162.321 711.37 162.321 713.827 162.321ZM686.442 162.321C686.442 164.778 686.442 174.609 686.442 177.066C683.809 177.066 673.276 177.066 670.643 177.066C670.643 174.609 670.643 164.778 670.643 162.321C673.276 162.321 683.809 162.321 686.442 162.321ZM710.667 163.374C701.773 164.362 701.188 166.122 701.188 174.96C706.454 174.96 706.454 174.96 711.721 174.96C711.194 169.167 711.194 169.167 710.667 163.374ZM739.106 164.427C737.35 164.427 730.329 164.427 728.573 164.427C728.573 166.183 728.573 173.204 728.573 174.96C730.329 174.96 737.35 174.96 739.106 174.96C739.106 173.204 739.106 166.183 739.106 164.427ZM684.335 164.427C682.405 164.427 674.68 164.427 672.749 164.427C672.749 166.183 672.749 173.204 672.749 174.96C674.68 174.96 682.405 174.96 684.335 174.96C684.335 173.204 684.335 166.183 684.335 164.427ZM658.003 167.587C631.672 167.587 631.672 167.587 605.34 167.587C605.34 188.652 605.34 188.652 605.34 209.718C615.346 209.718 615.346 209.718 625.352 209.718C625.352 283.974 625.352 283.974 625.352 358.23C635.828 354.961 647.03 353.859 658.003 354.017C658.003 260.802 658.003 260.802 658.003 167.587ZM841.273 183.386C841.273 183.737 841.273 185.142 841.273 185.493C834.251 185.493 806.165 185.493 799.142 185.493C799.142 185.142 799.142 183.737 799.142 183.386C806.165 183.386 834.251 183.386 841.273 183.386ZM266.712 185.624C273.004 185.732 279.434 186.546 284.091 186.546C283.858 189.337 283.092 191.499 281.984 193.26C281.984 191.351 281.984 189.42 281.984 188.652C276.795 188.652 258.942 188.652 250.847 188.652C254.964 186.156 260.74 185.523 266.712 185.624ZM250.847 188.652C249.415 189.52 248.17 190.58 247.226 191.977C247.226 190.628 247.226 189.206 247.226 188.652C247.83 188.652 249.906 188.652 250.847 188.652ZM247.226 191.977C247.226 194.046 247.226 196.229 247.226 197.079C252.306 197.079 269.336 197.079 277.706 197.079C269.43 201.639 254.974 198.378 245.12 198.132C245.349 195.602 246.119 193.615 247.226 191.977ZM277.706 197.079C279.404 196.142 280.912 194.965 281.984 193.26C281.984 194.843 281.984 196.442 281.984 197.079C281.271 197.079 278.88 197.079 277.706 197.079ZM236.693 186.546C236.693 188.652 236.693 197.079 236.693 199.185C234.411 199.185 225.283 199.185 223.001 199.185C223.001 197.079 223.001 188.652 223.001 186.546C225.283 186.546 234.411 186.546 236.693 186.546ZM235.64 188.652C233.884 188.652 226.863 188.652 225.107 188.652C225.107 190.056 225.107 195.675 225.107 197.079C226.863 197.079 233.884 197.079 235.64 197.079C235.64 195.675 235.64 190.056 235.64 188.652ZM841.273 190.759C841.273 191.11 841.273 192.515 841.273 192.866C834.251 192.866 806.165 192.866 799.142 192.866C799.142 192.515 799.142 191.11 799.142 190.759C806.165 190.759 834.251 190.759 841.273 190.759ZM741.212 192.866C741.212 195.323 741.212 205.154 741.212 207.611C738.755 207.611 728.924 207.611 726.466 207.611C726.466 205.154 726.466 195.323 726.466 192.866C728.924 192.866 738.755 192.866 741.212 192.866ZM699.081 192.866C704.639 192.866 707.921 193.388 710.009 194.972C707.338 194.972 702.658 194.972 701.188 194.972C701.188 196.903 701.188 204.627 701.188 206.558C702.944 206.558 709.965 206.558 711.721 206.558C711.721 204.956 711.721 199.908 711.721 196.947C712.979 199.182 713.463 202.51 713.827 207.611C706.454 207.611 706.454 207.611 699.081 207.611C699.081 200.238 699.081 200.238 699.081 192.866ZM711.721 196.947C711.273 196.152 710.7 195.497 710.009 194.972C710.527 194.972 711.435 194.972 711.721 194.972C711.721 195.302 711.721 196.338 711.721 196.947ZM685.389 192.866C685.915 200.238 685.915 200.238 686.442 207.611C678.542 207.611 678.542 207.611 670.643 207.611C670.761 194.621 672.703 193.771 685.389 192.866ZM493.693 193.919C486.846 193.919 486.846 193.919 480 193.919C480 211.298 480 211.298 480 228.677C473.154 228.677 473.154 228.677 466.307 228.677C466.307 233.943 466.307 233.943 466.307 239.21C461.568 239.21 461.568 239.21 456.828 239.21C456.927 266.485 456.615 293.765 457.124 321.036C457.283 329.522 457.811 338.02 458.835 346.446C460.359 358.965 473.769 359.807 483.982 360.172C493.884 360.525 503.798 360.281 513.705 360.336C511.134 370.382 486.727 364.625 477.893 364.549C479.055 374.42 494.955 366.399 501.527 366.82C507.799 367.224 512.007 369.579 517.918 371.922C517.391 305.566 517.391 305.566 516.865 239.21C512.125 239.21 512.125 239.21 507.385 239.21C507.385 233.943 507.385 233.943 507.385 228.677C500.539 228.677 500.539 228.677 493.693 228.677C493.693 211.298 493.693 211.298 493.693 193.919ZM739.106 194.972C737.35 194.972 730.329 194.972 728.573 194.972C728.573 196.903 728.573 204.627 728.573 206.558C730.329 206.558 737.35 206.558 739.106 206.558C739.106 204.627 739.106 196.903 739.106 194.972ZM684.335 194.972C669.951 194.972 671.22 204.173 684.335 206.558C684.335 200.765 684.335 200.765 684.335 194.972ZM211.415 197.079C192.983 197.079 192.983 197.079 174.55 197.079C174.55 219.724 174.55 219.724 174.55 242.369C177.183 242.369 177.183 242.369 179.817 242.369C179.817 312.939 179.817 312.939 179.817 383.508C189.896 379.588 200.62 376.798 211.415 376.135C211.415 286.607 211.415 286.607 211.415 197.079ZM841.273 198.132C841.273 198.483 841.273 199.888 841.273 200.238C834.251 200.238 806.165 200.238 799.142 200.238C799.142 199.888 799.142 198.483 799.142 198.132C806.165 198.132 834.251 198.132 841.273 198.132ZM284.091 206.558C284.091 212.878 284.091 212.878 284.091 219.197C275.046 218.953 260.148 221.471 251.637 217.091C260.057 217.091 276.926 217.091 281.984 217.091C281.984 215.687 281.984 210.069 281.984 208.665C276.191 208.665 253.019 208.665 247.226 208.665C247.226 209.471 247.226 211.514 247.226 213.503C245.992 211.705 245.202 209.474 245.12 206.558C264.605 206.558 264.605 206.558 284.091 206.558ZM247.226 213.503C248.314 215.088 249.887 216.19 251.637 217.091C250.413 217.091 247.961 217.091 247.226 217.091C247.226 216.493 247.226 214.978 247.226 213.503ZM236.693 206.558C236.693 208.665 236.693 217.091 236.693 219.197C234.411 219.197 225.283 219.197 223.001 219.197C223.001 217.091 223.001 208.665 223.001 206.558C225.283 206.558 234.411 206.558 236.693 206.558ZM235.64 208.665C230.374 208.665 230.374 208.665 225.107 208.665C225.107 212.878 225.107 212.878 225.107 217.091C233.008 217.091 234.647 216.609 235.64 208.665ZM623.245 212.878C587.434 212.878 587.434 212.878 551.623 212.878C551.623 305.039 551.623 305.039 551.623 397.201C560.972 397.06 577.302 398.31 580.061 385.615C590.154 385.981 598.956 389.276 603.233 379.295C591.121 378.769 591.121 378.769 579.008 378.242C586.557 377.934 594.136 378.076 601.653 377.32C605.905 376.894 606.49 374.049 608.5 370.869C593.754 370.342 593.754 370.342 579.008 369.816C594.434 368.796 621.066 373.53 622.192 351.91C607.795 352.166 592.886 354.695 579.008 350.857C600.6 350.857 600.6 350.857 622.192 350.857C621.702 346.096 622.992 344.811 616.794 344.274C604.231 343.184 591.603 343.045 579.008 342.431C600.6 342.431 600.6 342.431 622.192 342.431C621.702 337.67 622.992 336.386 616.794 335.848C604.231 334.757 591.603 334.618 579.008 334.004C600.6 334.004 600.6 334.004 622.192 334.004C622.192 325.052 622.192 325.052 622.192 316.099C607.795 316.355 592.886 318.884 579.008 315.045C601.127 315.045 601.127 315.045 623.245 315.045C622.058 310.21 623.151 308.998 616.926 308.462C604.318 307.379 591.647 307.233 579.008 306.619C600.6 306.619 600.6 306.619 622.192 306.619C621.447 299.387 617.038 299.521 610.047 299.181C599.708 298.676 589.354 298.522 579.008 298.193C599.823 297.617 621.085 304.85 622.192 280.287C607.795 280.543 592.886 283.072 579.008 279.234C601.127 279.234 601.127 279.234 623.245 279.234C622.638 274.982 622.136 273.119 617.057 272.914C604.365 272.404 591.251 274.194 579.008 270.808C591.647 270.5 604.313 270.754 616.926 269.886C623.384 269.442 622.349 268.101 623.245 263.435C601.127 262.908 601.127 262.908 579.008 262.382C600.6 262.382 600.6 262.382 622.192 262.382C622.192 253.429 622.192 253.429 622.192 244.476C607.795 244.732 592.886 247.261 579.008 243.423C601.127 243.423 601.127 243.423 623.245 243.423C622.638 239.171 622.136 237.307 617.057 237.103C604.365 236.592 591.251 238.383 579.008 234.997C600.6 234.997 600.6 234.997 622.192 234.997C622.192 227.762 617.468 228.024 610.047 227.558C608.349 227.451 606.645 227.47 604.945 227.393C614.454 226.689 622.43 223.471 623.245 212.878ZM604.945 227.393C596.145 228.045 586.034 226.551 579.008 226.57C587.653 226.845 596.305 227.005 604.945 227.393ZM947.654 221.304C911.843 221.304 911.843 221.304 876.031 221.304C876.031 287.66 876.031 287.66 876.031 354.017C876.743 353.868 885.261 337.013 886.564 335.058C884.984 334.004 884.984 334.004 883.404 332.951C892.822 330.901 899.488 323.09 908.683 319.259C900.203 318.805 890.605 320.599 883.404 316.099C912.369 316.099 912.369 316.099 941.334 316.099C940.281 317.679 940.281 317.679 939.228 319.259C947.507 321.526 945.795 313.291 946.206 305.566C946.849 293.467 946.919 281.343 947.127 269.228C947.402 253.255 947.479 237.279 947.654 221.304ZM83.9686 221.304C48.1572 221.304 48.1572 221.304 12.3459 221.304C12.5607 233.106 9.81799 240.149 20.7721 244.476C20.4477 237.923 19.0489 233.403 21.8254 230.816C22.0244 234.128 20.6236 246.151 24.9852 247.636C24.9852 239.21 24.9852 239.21 24.9852 230.783C23.4221 230.783 23.3894 230.783 21.858 230.783C22.9197 229.813 24.527 229.087 27.0917 228.677C27.3287 237.636 24.4744 248.178 31.3048 255.009C31.5787 249.577 28.1777 229.044 38.6778 228.677C39.0432 246.791 36.3605 259.854 43.9441 275.021C43.9441 252.376 43.9441 252.376 43.9441 229.73C47.6306 229.73 47.6306 229.73 51.3171 229.73C51.3171 258.695 51.3171 258.695 51.3171 287.66C53.9502 287.66 53.9502 287.66 56.5834 287.66C56.5834 258.169 56.5834 258.169 56.5834 228.677C59.7433 228.677 59.7433 228.677 62.9031 228.677C63.0537 249.084 61.8351 269.626 64.187 289.898C66.1798 290.365 66.1756 290.355 68.1695 290.82C68.1695 259.748 68.1695 259.748 68.1695 228.677C70.038 228.981 71.3409 229.754 72.3499 230.783C71.7801 230.783 71.3124 230.783 70.276 230.783C71.8559 261.855 71.8559 261.855 73.4358 292.927C73.4358 262.595 73.4358 261.184 73.4358 232.264C75.7257 236.275 74.9462 242.728 75.0157 247.767C75.1801 259.785 69.4829 289.486 81.862 299.246C82.9153 260.275 82.9153 260.275 83.9686 221.304ZM73.4358 232.264C73.1304 231.728 72.7775 231.221 72.3499 230.783C72.648 230.783 72.8923 230.783 73.4358 230.783C73.4358 231.524 73.4358 231.559 73.4358 232.264ZM741.212 223.41C741.212 226.044 741.212 236.576 741.212 239.21C738.755 239.21 728.924 239.21 726.466 239.21C726.466 236.576 726.466 226.044 726.466 223.41C728.924 223.41 738.755 223.41 741.212 223.41ZM699.081 223.41C704.652 223.41 707.927 223.95 710.009 225.517C707.338 225.517 702.658 225.517 701.188 225.517C701.188 227.448 701.188 235.172 701.188 237.103C702.944 237.103 709.965 237.103 711.721 237.103C711.721 235.496 711.721 230.412 711.721 227.459C712.987 229.693 713.461 233.027 713.827 238.156C706.454 238.683 706.454 238.683 699.081 239.21C699.081 231.31 699.081 231.31 699.081 223.41ZM711.721 227.459C711.275 226.671 710.7 226.036 710.009 225.517C710.527 225.517 711.435 225.517 711.721 225.517C711.721 225.84 711.721 226.864 711.721 227.459ZM685.389 223.41C685.565 225.868 686.266 235.699 686.442 238.156C683.985 238.332 674.153 239.034 671.696 239.21C671.52 236.752 670.819 226.921 670.643 224.464C673.1 224.288 682.931 223.586 685.389 223.41ZM266.218 224.694C272.486 224.722 279.029 225.517 284.091 225.517C284.091 231.837 284.091 231.837 284.091 238.156C264.605 238.156 264.605 238.156 245.12 238.156C246.072 226.731 255.773 224.648 266.218 224.694ZM739.106 225.517C737.35 225.517 730.329 225.517 728.573 225.517C728.573 227.448 728.573 235.172 728.573 237.103C730.329 237.103 737.35 237.103 739.106 237.103C739.106 235.172 739.106 227.448 739.106 225.517ZM236.693 225.517C236.693 231.837 236.693 231.837 236.693 238.156C229.847 238.156 229.847 238.156 223.001 238.156C223.376 233.656 223.91 230.767 225.107 228.875C225.107 231.555 225.107 232.462 225.107 236.05C230.374 236.05 230.374 236.05 235.64 236.05C234.696 228.497 233 227.717 226.062 227.656C227.982 225.909 231.16 225.517 236.693 225.517ZM226.062 227.656C225.688 227.997 225.393 228.423 225.107 228.875C225.107 228.407 225.107 228.249 225.107 227.624C225.497 227.624 225.703 227.653 226.062 227.656ZM678.378 225.978C673.127 226.768 668.895 233.464 676.008 236.05C689.071 240.8 686.349 227.215 680.649 226.044C679.887 225.887 679.128 225.865 678.378 225.978ZM261.939 226.801C254.561 227.223 248.068 229.315 247.226 236.05C264.605 236.05 264.605 236.05 281.984 236.05C281.984 231.837 281.984 231.837 281.984 227.624C277.578 227.624 269.317 226.378 261.939 226.801ZM841.273 228.677C841.273 229.204 841.273 231.31 841.273 231.837C834.251 231.837 806.165 231.837 799.142 231.837C799.142 231.31 799.142 229.204 799.142 228.677C806.165 228.677 834.251 228.677 841.273 228.677ZM60.7965 230.783C60.4458 230.783 59.0407 230.783 58.69 230.783C58.69 240.439 58.69 279.058 58.69 288.714C59.0407 288.714 60.4458 288.714 60.7965 288.714C60.7965 279.058 60.7965 240.439 60.7965 230.783ZM35.5179 230.783C35.1998 237.366 34.7427 243.944 34.5637 250.532C34.4615 254.274 34.531 257.987 37.6245 260.275C37.2832 250.728 37.8604 240.152 35.5179 230.783ZM940.281 233.943C940.281 235.523 940.281 235.523 940.281 237.103C911.843 236.576 911.843 236.576 883.404 236.05C886.115 233.246 884.52 234.299 891.304 234.207C907.628 233.983 923.955 234.031 940.281 233.943ZM841.273 237.103C841.273 237.454 841.273 238.859 841.273 239.21C834.251 239.21 806.165 239.21 799.142 239.21C799.142 238.859 799.142 237.454 799.142 237.103C806.165 237.103 834.251 237.103 841.273 237.103ZM791.769 241.316C773.337 241.316 773.337 241.316 754.905 241.316C754.378 315.572 754.378 315.572 753.852 389.828C768.349 382.11 775.513 379.295 791.769 379.295C791.769 310.306 791.769 310.306 791.769 241.316ZM453.668 243.423C444.715 243.423 444.715 243.423 435.762 243.423C435.554 267.407 435.245 291.39 435.137 315.374C435.095 324.729 432.049 335.147 436.421 343.419C438.988 348.272 449.935 356.44 451.002 351.055C457.68 317.345 453.668 277.17 453.668 243.423ZM841.273 244.476C841.273 244.827 841.273 246.232 841.273 246.583C834.251 246.583 806.165 246.583 799.142 246.583C799.142 246.232 799.142 244.827 799.142 244.476C806.165 244.476 834.251 244.476 841.273 244.476ZM266.777 244.64C273.074 244.736 279.477 245.529 284.091 245.529C283.86 248.292 283.094 250.43 281.984 252.178C281.984 250.292 281.984 248.393 281.984 247.636C276.812 247.636 259.085 247.636 250.945 247.636C255.072 245.176 260.831 244.55 266.777 244.64ZM250.945 247.636C249.482 248.508 248.186 249.582 247.226 250.994C247.226 249.629 247.226 248.195 247.226 247.636C247.847 247.636 249.97 247.636 250.945 247.636ZM247.226 250.994C247.226 253.053 247.226 255.217 247.226 256.062C252.273 256.062 269.064 256.062 277.508 256.062C269.145 260.495 254.721 257.326 245.12 257.115C245.348 254.598 246.116 252.625 247.226 250.994ZM277.508 256.062C279.286 255.119 280.873 253.928 281.984 252.178C281.984 253.79 281.984 255.414 281.984 256.062C281.239 256.062 278.756 256.062 277.508 256.062ZM236.693 245.529C236.693 247.636 236.693 256.062 236.693 258.169C234.411 258.169 225.283 258.169 223.001 258.169C223.001 256.062 223.001 247.636 223.001 245.529C225.283 245.529 234.411 245.529 236.693 245.529ZM235.64 247.636C233.884 247.636 226.863 247.636 225.107 247.636C225.107 249.04 225.107 254.658 225.107 256.062C226.863 256.062 233.884 256.062 235.64 256.062C235.64 254.658 235.64 249.04 235.64 247.636ZM941.334 250.796C941.334 251.146 941.334 252.551 941.334 252.902C931.679 252.902 893.059 252.902 883.404 252.902C883.404 252.551 883.404 251.146 883.404 250.796C893.059 250.796 931.679 250.796 941.334 250.796ZM513.705 250.796C512.294 257.847 478.929 257.434 465.649 253.89C485.303 253.467 488.36 253.391 511.072 252.902C496.619 249.084 476.553 251.849 462.094 251.849C462.094 252.343 462.094 252.588 462.094 252.837C460.769 252.219 459.988 251.522 459.988 250.796C486.846 250.796 486.846 250.796 513.705 250.796ZM462.094 252.837C462.947 253.234 464.367 253.548 465.649 253.89C464.111 253.923 463.871 253.918 462.094 253.955C462.094 253.396 462.094 253.117 462.094 252.837ZM173.497 252.902C173.497 253.253 173.497 254.658 173.497 255.009C164.544 255.009 128.733 255.009 119.78 255.009C119.78 254.658 119.78 253.253 119.78 252.902C128.733 252.902 164.544 252.902 173.497 252.902ZM741.212 255.009C741.212 257.466 741.212 267.297 741.212 269.755C738.755 269.755 728.924 269.755 726.466 269.755C726.466 267.297 726.466 257.466 726.466 255.009C728.924 255.009 738.755 255.009 741.212 255.009ZM713.827 255.009C713.827 257.466 713.827 267.297 713.827 269.755C711.37 269.755 701.539 269.755 699.081 269.755C699.081 267.297 699.081 257.466 699.081 255.009C701.539 255.009 711.37 255.009 713.827 255.009ZM686.442 255.009C686.442 257.466 686.442 267.297 686.442 269.755C683.809 269.755 673.276 269.755 670.643 269.755C670.643 267.297 670.643 257.466 670.643 255.009C673.276 255.009 683.809 255.009 686.442 255.009ZM739.106 257.115C737.35 257.115 730.329 257.115 728.573 257.115C728.573 258.871 728.573 265.892 728.573 267.648C730.329 267.648 737.35 267.648 739.106 267.648C739.106 265.892 739.106 258.871 739.106 257.115ZM711.721 257.115C709.965 257.115 702.944 257.115 701.188 257.115C701.188 258.871 701.188 265.892 701.188 267.648C702.944 267.648 709.965 267.648 711.721 267.648C711.721 265.892 711.721 258.871 711.721 257.115ZM684.335 257.115C682.405 257.115 674.68 257.115 672.749 257.115C672.749 258.871 672.749 265.892 672.749 267.648C674.68 267.648 682.405 267.648 684.335 267.648C684.335 265.892 684.335 258.871 684.335 257.115ZM513.705 264.488C513.525 265.387 512.719 266.126 511.598 266.793C511.598 266.282 511.598 265.75 511.598 265.541C503.348 265.541 470.345 265.541 462.094 265.541C462.094 265.706 462.094 266.119 462.094 266.529C460.769 265.911 459.988 265.215 459.988 264.488C486.846 264.488 486.846 264.488 513.705 264.488ZM462.094 266.529C463.009 266.955 464.511 267.286 465.912 267.648C465.005 267.648 462.731 267.648 462.094 267.648C462.094 267.462 462.094 266.994 462.094 266.529ZM465.912 267.648C476.278 267.648 500.452 267.648 509.492 267.648C500.015 271.162 476.795 270.458 465.912 267.648ZM509.492 267.648C510.236 267.372 511.044 267.122 511.598 266.793C511.598 267.141 511.598 267.506 511.598 267.648C511.248 267.648 509.929 267.648 509.492 267.648ZM265.231 265.442C265.547 265.446 265.838 265.53 266.153 265.541C265.306 265.541 264.961 265.541 264.111 265.541C264.489 265.532 264.853 265.439 265.231 265.442ZM264.111 265.541C256.001 265.748 248.005 268.794 247.226 275.021C264.605 275.021 264.605 275.021 281.984 275.021C281.984 269.01 274.296 265.835 266.153 265.541C273.598 265.541 281.101 265.541 284.091 265.541C284.091 267.472 284.091 275.197 284.091 277.128C277.595 277.128 251.615 277.128 245.12 277.128C245.12 275.197 245.12 267.472 245.12 265.541C248.285 265.541 256.201 265.541 264.111 265.541ZM318.849 265.541C307.263 265.541 307.263 265.541 295.677 265.541C295.776 285.773 295.651 306.007 295.973 326.236C296.044 330.718 295.307 347.757 300.417 351.91C307.327 357.527 315.357 347.211 316.578 341.377C321.586 317.445 318.849 289.601 318.849 265.541ZM236.693 265.541C236.693 267.472 236.693 275.197 236.693 277.128C234.411 277.128 225.283 277.128 223.001 277.128C223.001 275.197 223.001 267.472 223.001 265.541C225.283 265.541 234.411 265.541 236.693 265.541ZM173.497 265.541C173.497 265.892 173.497 267.297 173.497 267.648C164.544 267.472 128.733 266.771 119.78 266.595C128.733 266.419 164.544 265.717 173.497 265.541ZM940.281 266.595C940.281 268.175 940.281 268.175 940.281 269.755C911.843 269.228 911.843 269.228 883.404 268.701C886.115 265.898 884.52 266.951 891.304 266.858C907.628 266.635 923.955 266.682 940.281 266.595ZM235.64 267.648C233.884 267.648 226.863 267.648 225.107 267.648C225.107 268.877 225.107 273.792 225.107 275.021C226.863 275.021 233.884 275.021 235.64 275.021C235.64 273.792 235.64 268.877 235.64 267.648ZM841.273 275.021C841.273 275.372 841.273 276.777 841.273 277.128C834.251 277.128 806.165 277.128 799.142 277.128C799.142 276.777 799.142 275.372 799.142 275.021C806.165 275.021 834.251 275.021 841.273 275.021ZM146.869 276.897C155.778 276.882 164.705 277.128 173.497 277.128C173.497 278.707 173.497 278.707 173.497 280.287C146.902 279.234 146.902 279.234 120.307 278.181C129.069 277.189 137.959 276.913 146.869 276.897ZM513.705 278.181C512.294 285.232 478.929 284.82 465.649 281.275C485.303 280.852 488.36 280.776 511.072 280.287C496.619 276.469 476.553 279.234 462.094 279.234C462.094 279.728 462.094 279.973 462.094 280.222C460.769 279.604 459.988 278.908 459.988 278.181C486.846 278.181 486.846 278.181 513.705 278.181ZM462.094 280.222C462.947 280.619 464.367 280.933 465.649 281.275C464.111 281.308 463.871 281.303 462.094 281.341C462.094 280.781 462.094 280.502 462.094 280.222ZM841.273 282.394C841.273 282.921 841.273 285.027 841.273 285.554C834.251 285.554 806.165 285.554 799.142 285.554C799.142 285.027 799.142 282.921 799.142 282.394C806.165 282.394 834.251 282.394 841.273 282.394ZM533.717 282.394C526.871 282.394 526.871 282.394 520.024 282.394C520.112 304.425 519.898 326.459 520.288 348.487C520.442 357.192 519.699 382.616 532.664 386.668C533.19 334.531 533.19 334.531 533.717 282.394ZM941.334 283.447C941.334 283.798 941.334 285.203 941.334 285.554C931.679 285.554 893.059 285.554 883.404 285.554C883.404 285.203 883.404 283.798 883.404 283.447C893.059 283.447 931.679 283.447 941.334 283.447ZM266.218 283.678C272.486 283.705 279.029 284.5 284.091 284.5C284.091 290.82 284.091 290.82 284.091 297.14C264.605 297.14 264.605 297.14 245.12 297.14C245.346 294.419 246.115 292.282 247.226 290.524C247.226 292.397 247.226 294.281 247.226 295.033C253.019 295.033 276.191 295.033 281.984 295.033C281.984 293.629 281.984 288.011 281.984 286.607C276.926 286.607 260.057 286.607 251.637 286.607C255.56 284.391 260.71 283.654 266.218 283.678ZM251.637 286.607C249.891 287.593 248.322 288.791 247.226 290.524C247.226 288.897 247.226 287.26 247.226 286.607C247.961 286.607 250.413 286.607 251.637 286.607ZM236.693 284.5C236.693 286.607 236.693 295.033 236.693 297.14C234.411 297.14 225.283 297.14 223.001 297.14C223.001 295.033 223.001 286.607 223.001 284.5C225.283 284.5 234.411 284.5 236.693 284.5ZM741.212 285.554C741.212 288.187 741.212 298.72 741.212 301.353C738.755 301.353 728.924 301.353 726.466 301.353C726.466 298.72 726.466 288.187 726.466 285.554C728.924 285.554 738.755 285.554 741.212 285.554ZM699.081 285.554C704.639 285.554 707.921 286.076 710.009 287.66C707.338 287.66 702.658 287.66 701.188 287.66C701.188 289.591 701.188 297.316 701.188 299.246C702.944 299.246 709.965 299.246 711.721 299.246C711.721 297.644 711.721 292.596 711.721 289.635C712.979 291.87 713.463 295.199 713.827 300.3C706.454 300.826 706.454 300.826 699.081 301.353C699.081 293.453 699.081 293.453 699.081 285.554ZM711.721 289.635C711.273 288.84 710.7 288.185 710.009 287.66C710.527 287.66 711.435 287.66 711.721 287.66C711.721 287.99 711.721 289.026 711.721 289.635ZM685.389 285.554C685.565 288.011 686.266 297.842 686.442 300.3C683.985 300.475 674.153 301.177 671.696 301.353C671.52 298.896 670.819 289.064 670.643 286.607C673.1 286.431 682.931 285.73 685.389 285.554ZM225.107 286.607C225.107 290.82 225.107 290.82 225.107 295.033C230.374 295.033 230.374 295.033 235.64 295.033C234.647 287.088 233.008 286.607 225.107 286.607ZM739.106 287.66C737.35 287.66 730.329 287.66 728.573 287.66C728.573 289.591 728.573 297.316 728.573 299.246C730.329 299.246 737.35 299.246 739.106 299.246C739.106 297.316 739.106 289.591 739.106 287.66ZM684.335 287.66C674.612 288.544 672.749 289.354 672.749 299.246C678.542 299.246 678.542 299.246 684.335 299.246C684.335 293.453 684.335 293.453 684.335 287.66ZM134.361 289.305C139.89 289.289 145.113 289.778 147.165 289.767C155.942 289.717 164.72 289.767 173.497 289.767C173.497 290.82 173.497 290.82 173.497 291.873C146.638 291.873 146.638 291.873 119.78 291.873C122.997 289.846 128.832 289.323 134.361 289.305ZM841.273 290.82C841.273 291.171 841.273 292.576 841.273 292.927C834.251 292.927 806.165 292.927 799.142 292.927C799.142 292.576 799.142 291.171 799.142 290.82C806.165 290.82 834.251 290.82 841.273 290.82ZM513.705 291.873C513.525 292.772 512.719 293.511 511.598 294.178C511.598 293.667 511.598 293.135 511.598 292.927C503.348 292.927 470.345 292.927 462.094 292.927C462.094 293.091 462.094 293.504 462.094 293.915C460.769 293.296 459.988 292.6 459.988 291.873C486.846 291.873 486.846 291.873 513.705 291.873ZM462.094 293.915C463.009 294.34 464.511 294.671 465.912 295.033C465.005 295.033 462.731 295.033 462.094 295.033C462.094 294.847 462.094 294.379 462.094 293.915ZM465.912 295.033C476.278 295.033 500.452 295.033 509.492 295.033C500.015 298.547 476.795 297.843 465.912 295.033ZM509.492 295.033C510.236 294.757 511.044 294.508 511.598 294.178C511.598 294.527 511.598 294.891 511.598 295.033C511.248 295.033 509.929 295.033 509.492 295.033ZM940.281 299.246C940.281 300.826 940.281 300.826 940.281 302.406C911.843 301.879 911.843 301.879 883.404 301.353C886.115 298.549 884.52 299.602 891.304 299.51C907.628 299.286 923.955 299.334 940.281 299.246ZM173.497 302.406C173.497 302.757 173.497 304.162 173.497 304.513C164.544 304.513 128.733 304.513 119.78 304.513C119.78 304.162 119.78 302.757 119.78 302.406C128.733 302.406 164.544 302.406 173.497 302.406ZM284.091 304.513C283.899 306.808 283.142 308.793 281.984 310.504C281.984 308.891 281.984 307.267 281.984 306.619C276.191 306.619 253.019 306.619 247.226 306.619C247.226 307.322 247.226 309.077 247.226 310.832C245.981 309.041 245.187 306.959 245.12 304.513C264.605 304.513 264.605 304.513 284.091 304.513ZM247.226 310.832C248.409 312.535 250.042 313.941 251.966 315.045C250.618 315.045 248.016 315.045 247.226 315.045C247.226 314.343 247.226 312.588 247.226 310.832ZM251.966 315.045C259.053 315.045 269.609 315.045 276.882 315.045C269.737 319.12 258.965 319.065 251.966 315.045ZM276.882 315.045C278.943 313.87 280.722 312.367 281.984 310.504C281.984 312.389 281.984 314.288 281.984 315.045C281.134 315.045 278.372 315.045 276.882 315.045ZM236.693 304.513C236.693 306.619 236.693 315.045 236.693 317.152C234.411 317.152 225.283 317.152 223.001 317.152C223.001 315.045 223.001 306.619 223.001 304.513C225.283 304.513 234.411 304.513 236.693 304.513ZM513.705 305.566C512.294 312.618 478.929 312.205 465.649 308.66C485.303 308.237 488.36 308.161 511.072 307.672C497.466 304.592 479.168 307.59 465.09 308.495C462.158 307.652 459.988 306.689 459.988 305.566C486.846 305.566 486.846 305.566 513.705 305.566ZM465.09 308.495C465.277 308.549 465.452 308.608 465.649 308.66C464.111 308.693 463.871 308.688 462.094 308.726C462.973 308.688 464.17 308.554 465.09 308.495ZM235.64 306.619C233.884 306.619 226.863 306.619 225.107 306.619C225.107 308.023 225.107 313.641 225.107 315.045C226.863 315.045 233.884 315.045 235.64 315.045C235.64 313.641 235.64 308.023 235.64 306.619ZM173.497 315.045C173.497 315.396 173.497 316.801 173.497 317.152C164.544 316.976 128.733 316.275 119.78 316.099C128.733 315.923 164.544 315.221 173.497 315.045ZM741.212 317.152C741.212 319.609 741.212 329.441 741.212 331.898C738.755 331.898 728.924 331.898 726.466 331.898C726.466 329.441 726.466 319.609 726.466 317.152C728.924 317.152 738.755 317.152 741.212 317.152ZM713.827 317.152C713.827 319.609 713.827 329.441 713.827 331.898C711.37 331.898 701.539 331.898 699.081 331.898C699.081 329.441 699.081 319.609 699.081 317.152C701.539 317.152 711.37 317.152 713.827 317.152ZM686.442 317.152C686.442 319.609 686.442 329.441 686.442 331.898C683.809 331.898 673.276 331.898 670.643 331.898C670.643 329.441 670.643 319.609 670.643 317.152C673.276 317.152 683.809 317.152 686.442 317.152ZM739.106 319.259C737.35 319.259 730.329 319.259 728.573 319.259C728.573 321.014 728.573 328.035 728.573 329.791C730.329 329.791 737.35 329.791 739.106 329.791C739.106 328.035 739.106 321.014 739.106 319.259ZM711.721 319.259C709.965 319.259 702.944 319.259 701.188 319.259C701.188 321.014 701.188 328.035 701.188 329.791C702.944 329.791 709.965 329.791 711.721 329.791C711.721 328.035 711.721 321.014 711.721 319.259ZM684.335 319.259C678.542 319.259 678.542 319.259 672.749 319.259C672.749 328.665 675.223 328.963 684.335 329.791C684.335 324.525 684.335 324.525 684.335 319.259ZM513.705 319.259C513.525 320.157 512.719 320.896 511.598 321.563C511.598 321.052 511.598 320.52 511.598 320.312C503.348 320.312 470.345 320.312 462.094 320.312C462.094 320.476 462.094 320.889 462.094 321.3C460.769 320.682 459.988 319.985 459.988 319.259C486.846 319.259 486.846 319.259 513.705 319.259ZM462.094 321.3C463.009 321.725 464.511 322.056 465.912 322.418C465.005 322.418 462.731 322.418 462.094 322.418C462.094 322.232 462.094 321.764 462.094 321.3ZM465.912 322.418C476.278 322.418 500.452 322.418 509.492 322.418C500.015 325.932 476.795 325.228 465.912 322.418ZM509.492 322.418C510.236 322.142 511.044 321.893 511.598 321.563C511.598 321.912 511.598 322.276 511.598 322.418C511.248 322.418 509.929 322.418 509.492 322.418ZM841.273 321.365C841.273 321.716 841.273 323.121 841.273 323.472C834.251 323.472 806.165 323.472 799.142 323.472C799.142 323.121 799.142 321.716 799.142 321.365C806.165 321.365 834.251 321.365 841.273 321.365ZM284.091 324.525C284.091 326.456 284.091 334.18 284.091 336.111C277.595 336.111 251.615 336.111 245.12 336.111C245.12 334.18 245.12 326.456 245.12 324.525C251.615 324.525 277.595 324.525 284.091 324.525ZM236.693 324.525C236.693 326.456 236.693 334.18 236.693 336.111C234.411 336.111 225.283 336.111 223.001 336.111C223.001 334.18 223.001 326.456 223.001 324.525C225.283 324.525 234.411 324.525 236.693 324.525ZM134.361 326.17C139.89 326.153 145.113 326.643 147.165 326.631C155.942 326.582 164.72 326.631 173.497 326.631C173.497 327.685 173.497 327.685 173.497 328.738C146.638 328.738 146.638 328.738 119.78 328.738C122.997 326.71 128.832 326.188 134.361 326.17ZM281.984 326.631C276.191 326.631 253.019 326.631 247.226 326.631C247.226 327.861 247.226 332.775 247.226 334.004C253.019 334.004 276.191 334.004 281.984 334.004C281.984 332.775 281.984 327.861 281.984 326.631ZM235.64 326.631C233.884 326.631 226.863 326.631 225.107 326.631C225.107 327.861 225.107 332.775 225.107 334.004C226.863 334.004 233.884 334.004 235.64 334.004C235.64 332.775 235.64 327.861 235.64 326.631ZM841.273 328.738C841.273 329.089 841.273 330.494 841.273 330.845C834.251 330.845 806.165 330.845 799.142 330.845C799.142 330.494 799.142 329.089 799.142 328.738C806.165 328.738 834.251 328.738 841.273 328.738ZM327.308 329.495C323.717 329.555 321.818 330.936 320.955 336.111C324.549 334.314 328.736 332.818 331.488 329.791C329.892 329.614 328.505 329.475 327.308 329.495ZM513.705 332.951C512.431 339.319 502.906 337.786 497.873 337.756C485.243 337.685 472.617 337.361 459.988 337.164C460.29 335.954 461.082 335.124 462.094 334.498C462.094 335.057 462.094 335.842 462.094 336.111C470.345 336.111 503.348 336.111 511.598 336.111C511.598 335.76 511.598 334.355 511.598 334.004C503.54 334.004 472.404 334.004 463.247 334.004C467.016 332.502 472.927 333.115 475.82 333.083C488.447 332.938 501.076 332.995 513.705 332.951ZM463.247 334.004C462.848 334.163 462.437 334.287 462.094 334.498C462.094 334.328 462.094 334.087 462.094 334.004C462.286 334.004 463.029 334.004 463.247 334.004ZM841.273 336.111C841.273 336.462 841.273 337.867 841.273 338.217C834.251 338.217 806.165 338.217 799.142 338.217C799.142 337.867 799.142 336.462 799.142 336.111C806.165 336.111 834.251 336.111 841.273 336.111ZM173.497 339.271C173.497 339.621 173.497 341.027 173.497 341.377C164.544 341.377 128.733 341.377 119.78 341.377C119.78 341.027 119.78 339.621 119.78 339.271C128.733 339.271 164.544 339.271 173.497 339.271ZM236.693 343.484C236.693 345.59 236.693 354.017 236.693 356.123C234.411 356.123 225.283 356.123 223.001 356.123C223.001 354.017 223.001 345.59 223.001 343.484C225.283 343.484 234.411 343.484 236.693 343.484ZM235.64 345.59C233.884 345.59 226.863 345.59 225.107 345.59C225.107 346.994 225.107 352.613 225.107 354.017C226.863 354.017 233.884 354.017 235.64 354.017C235.64 352.613 235.64 346.994 235.64 345.59ZM513.705 346.644C511.947 355.432 459.988 352.689 459.988 346.644C486.846 346.644 486.846 346.644 513.705 346.644ZM741.212 347.697C741.212 350.33 741.212 360.863 741.212 363.496C738.755 363.496 728.924 363.496 726.466 363.496C726.466 360.863 726.466 350.33 726.466 347.697C728.924 347.697 738.755 347.697 741.212 347.697ZM699.081 347.697C704.652 347.697 707.927 348.236 710.009 349.803C707.338 349.803 702.658 349.803 701.188 349.803C701.188 351.734 701.188 359.459 701.188 361.39C702.944 361.39 709.965 361.39 711.721 361.39C711.721 359.782 711.721 354.698 711.721 351.746C712.987 353.98 713.461 357.313 713.827 362.443C706.454 362.969 706.454 362.969 699.081 363.496C699.081 355.597 699.081 355.597 699.081 347.697ZM711.721 351.746C711.275 350.958 710.7 350.323 710.009 349.803C710.527 349.803 711.435 349.803 711.721 349.803C711.721 350.127 711.721 351.151 711.721 351.746ZM739.106 349.803C737.35 349.803 730.329 349.803 728.573 349.803C728.573 351.734 728.573 359.459 728.573 361.39C730.329 361.39 737.35 361.39 739.106 361.39C739.106 359.459 739.106 351.734 739.106 349.803ZM493.462 361.192C487.527 361.168 481.582 361.39 475.787 361.39C475.787 362.443 475.787 362.443 475.787 363.496C493.429 362.969 493.429 362.969 511.072 362.443C505.323 361.484 499.397 361.216 493.462 361.192ZM812.835 384.562C808.622 385.088 808.622 385.088 804.409 385.615C808.271 388.511 809.502 387.894 812.835 384.562Z" fill="#000000" fill-rule="evenodd" opacity="1" stroke="none"/>
</g>
</svg>
