<?xml version="1.0" encoding="UTF-8" standalone="no"?>
<!DOCTYPE svg PUBLIC "-//W3C//DTD SVG 1.1//EN" "http://www.w3.org/Graphics/SVG/1.1/DTD/svg11.dtd">
<!-- Created with Vectornator (http://vectornator.io/) -->
<svg height="100%" stroke-miterlimit="10" style="fill-rule:nonzero;clip-rule:evenodd;stroke-linecap:round;stroke-linejoin:round;" version="1.1" viewBox="0 0 960 450" width="100%" xml:space="preserve" xmlns="http://www.w3.org/2000/svg" xmlns:vectornator="http://vectornator.io" xmlns:xlink="http://www.w3.org/1999/xlink">
<defs/>
<clipPath id="ArtboardFrame">
<rect height="450" width="960" x="0" y="0"/>
</clipPath>
<g clip-path="url(#ArtboardFrame)" id="Layer-1" vectornator:layerName="Layer 1">
<path d="M549.5 44C542.821 44 540.912 48.5683 537.062 52.875C533.364 57.0123 530.252 54.0733 526 60C529.403 55.7467 534.601 57.2028 537.25 54.25C541.596 49.4056 542.732 45.3993 550 45C556.305 44.6536 560.514 54.858 566 48C558.982 50.8073 556.341 44 549.5 44ZM567 48C572.478 51.1305 579.811 60.1726 586 59C578.693 58.5884 573.521 51.321 567 48ZM372 51C378.38 53.7343 379.212 58.7455 384.5 62C380.522 55.0714 379.244 53.0697 372 51ZM367.625 51.9375C358.32 53.0851 339.875 62.6482 335 66C335.475 66.1584 364.646 53.0783 371 52C370.111 51.7776 368.954 51.7736 367.625 51.9375ZM524 58C520.5 61 520.5 61 517 64C521.437 63.1933 520.076 60.2118 525 60C524.5 59 524.5 59 524 58ZM587 58C591.423 64.6341 596.546 66.4576 604 70C557.5 70 557.5 70 511 70C512.5 69 512.5 69 514 68C511.214 66.9414 509.892 69.1074 508 71C558 71 558 71 608 71C596.583 65.3429 594.663 65.2624 587 58ZM387 60C393.772 66.7724 400.974 68.1961 408 75C402.747 69.2774 394.397 62.1801 387 60ZM515 64C514.833 64.3333 514.167 65.6667 514 66C514.333 66 515.667 66 516 66C515.833 65.6667 515.167 64.3333 515 64ZM332.812 65.9688C329.832 66.5611 325.409 71.5419 323.219 72.7812C319.89 74.6646 316.406 76.2604 313 78C363 78 363 78 413 78C411.5 76.5 411.5 76.5 410 75C410 76 410 76 410 77C363.5 77 363.5 77 317 77C324.253 73.6116 328.338 71.4337 334 66C333.644 65.8814 333.238 65.8841 332.812 65.9688ZM806.531 69.875C801.37 70.3408 799.862 73.8573 793.875 76.125C789.918 77.624 784.5 74.0999 779.875 76.5C763.497 85 749.836 95.114 733 104C797.5 104 797.5 104 862 104C852.637 97.5936 843.05 86.6173 833 82C830.449 80.8281 827.119 82.413 824.625 81.125C819.44 78.447 820.535 72.3464 813.219 70.5938C810.39 69.9161 808.252 69.7197 806.531 69.875ZM806.812 70.5312C807.745 70.5429 808.791 70.6963 810 71C821.546 73.901 815.791 77.1908 824.125 82.375C828.194 84.9064 839.489 88.0334 844.25 90.625C849.626 93.5512 853.526 99.5367 859 103C798 103 798 103 737 103C744.466 99.2366 750.897 93.6141 758.375 89.875C760.252 88.9366 762.74 90.0462 764.625 89.125C777.989 82.5948 776.743 77.8321 793.125 77C799.654 76.6683 800.282 70.4497 806.812 70.5312ZM634 91C632.383 92.1605 630.213 92.9522 628.438 94C629.079 94 629.719 94 631 94C631 137 631 137 631 180C621.5 180 621.5 180 612 180C612 181 612 181 612 182C621.5 182 621.5 182 631 182C631 188 631 188 631 194C611 194 611 194 591 194C591 195 591 195 591 196C611 196 611 196 631 196C631 202 631 202 631 208C602.5 207.5 602.5 207.5 574 207C574 208 574 208 574 209C602.5 209 602.5 209 631 209C631 215.5 631 215.5 631 222C602.5 221.5 602.5 221.5 574 221C574 222 574 222 574 223C602.5 223 602.5 223 631 223C631 229 631 229 631 235C602.5 235 602.5 235 574 235C574 236 574 236 574 237C602.5 237 602.5 237 631 237C631 243 631 243 631 249C602.5 249 602.5 249 574 249C574 250 574 250 574 251C602.5 251 602.5 251 631 251C631 257 631 257 631 263C602.5 263 602.5 263 574 263C574 264 574 264 574 265C602.5 265 602.5 265 631 265C631 271 631 271 631 277C602.5 276.5 602.5 276.5 574 276C574 277.5 574 277.5 574 279C602.5 278.5 602.5 278.5 631 278C631 284 631 284 631 290C602.5 290 602.5 290 574 290C574 291 574 291 574 292C602.5 292 602.5 292 631 292C631 298.5 631 298.5 631 305C602.5 304.5 602.5 304.5 574 304C574 305 574 305 574 306C602.5 306 602.5 306 631 306C631 312 631 312 631 318C602.5 318 602.5 318 574 318C574 319 574 319 574 320C602.5 320 602.5 320 631 320C631 326 631 326 631 332C616.298 331.489 601.904 326.265 587.25 328.75C574.294 330.947 567.583 340.857 555.5 343.5C553.603 338.002 553.03 332.064 552.875 326.25C552.017 294.142 548.119 255.962 559.5 224.281C568.951 197.973 589.641 190.556 607.406 173.688C601.07 178.571 592.694 181.465 586 186C586 175 586 175 586 164C554.5 164 554.5 164 523 164C523 207.5 523 207.5 523 251C514.5 251 514.5 251 506 251C506 248 506 248 506 245C489.729 242.458 502.998 237.235 484 235C484 218.5 484 218.5 484 202C480.5 202 480.5 202 477 202C477 184.5 477 184.5 477 167C474.5 167 474.5 167 472 167C472 184.5 472 184.5 472 202C468.5 202 468.5 202 465 202C465 218.5 465 218.5 465 235C447.692 236.113 458.739 242.541 443 245C443 266 443 266 443 287C436.25 286 436.25 286 429.5 285C429.125 257.219 427.173 229.414 428.375 201.656C428.442 200.099 428.561 198.519 428.656 196.938C426.685 214.727 426.883 232.917 426.719 250.781C426.316 294.598 427.575 338.432 427.406 382.25C427.371 391.351 426.584 401.137 422 409C418 405.5 418 405.5 414 402C418.882 395.846 415.715 386.355 415.75 378.5C415.987 325.667 415.917 272.833 416 220C414.5 220 414.5 220 413 220C413.239 205.682 417.938 185.031 409.375 170.562C404.919 163.032 387.455 168.001 389 155C390.472 142.619 399.591 146.534 404.375 141.5C398.526 144.25 392.079 146.343 386.531 149.438C387.438 154.125 386.063 159.945 389.25 163.5C393.73 168.497 402.904 167.417 407.25 172.531C411.052 177.005 411.441 183.754 411.469 189.625C411.503 196.813 411.313 204.779 407.406 210.812C398.694 224.266 374.698 219.902 364 220C364 198.5 364 198.5 364 177C338 177.5 338 177.5 312 178C311.458 170.375 313.038 162.29 310.375 155.125C309.106 151.711 303.299 152.105 301.25 149.094C298.086 144.445 298.911 136.401 296 132.125C296 140.143 296 143.062 296 154C302.5 154 302.5 154 309 154C308.896 202.906 309.38 251.817 308.688 300.719C308.443 317.987 307.427 335.243 306.188 352.469C305.616 360.416 305.278 358.825 299 361C299 356 299 356 299 351C295.736 351.062 292.865 351.85 290.531 353C292.638 353 294.266 353 298 353C297.17 362.128 296.345 363.929 287.25 363.969C288.608 364.86 290.346 365.629 293 366C286.989 372.53 281.596 379.886 278 388C256.411 376.512 242.636 376.382 223 391C223 274.047 223 271.033 223 157.094C221.649 160.917 221.296 165.131 221.125 169.188C220.017 195.433 220.373 221.733 220 248C202.5 248 202.5 248 185 248C183.833 227.208 187.275 205.633 181.5 185.625C177.579 172.041 165.167 162.542 157 151C147.406 162.821 136.01 172.147 134.969 188.531C132.04 234.61 132.32 280.847 131 327C128.5 327 128.5 327 126 327C126 258 126 258 126 189C119.5 189 119.5 189 113 189C113 173.5 113 173.5 113 158C105 158 105 158 97 158C96.6965 143.091 99.6166 125.635 95 111.844C95 130.588 95 136.422 95 161C103 161 103 161 111 161C111.023 168.908 110.501 176.831 111.062 184.719C111.623 192.596 119.915 191.169 121.031 200.188C126.175 241.741 123.826 289.924 124 329C127.5 329 127.5 329 131 329C130.5 358.5 130.5 358.5 130 388C127.5 384.167 125.741 379.731 122.5 376.5C119.546 373.555 114.353 373.261 111.875 369.906C109.54 366.746 109.513 362.351 109.156 358.438C107.934 345.032 107.348 331.553 107.125 318.094C106.628 288.062 107.045 258.036 107 228C84.5 228 84.5 228 62 228C62 209.5 62 209.5 62 191C68.5 191 68.5 191 75 191C75 176.781 75 174.625 75 162.562C74.5862 163.162 74.2186 163.806 73.9688 164.5C71.198 172.194 73.3267 180.829 73 189C66 189 66 189 59 189C59 208.5 59 208.5 59 228C46.5 228 46.5 228 34 228C34 249.5 34 249.5 34 271C17.5 271 17.5 271 1 271C17.5 272 17.5 272 34 273C34 294 34 294 34 315C30.7557 312.963 27.3511 311.098 23.875 309.344C30.2273 313.245 32.7209 322.624 39.75 325.125C47.1046 327.742 55.3809 322.046 63.0938 323.25C71.0079 324.486 78.6483 327.901 85.375 332.25C97.0841 339.82 96.225 358.231 104.562 369.406C107.882 373.856 115.666 372.49 119.75 376.25C123.895 380.066 125.25 386.083 128 391C132.958 388.646 137.387 384.051 142.875 383.938C152.228 383.744 160.897 390.346 170.25 390.125C178.66 389.926 185.972 382.321 194.375 382.719C204.5 383.197 212.995 392.989 223.125 392.625C233.217 392.263 240.875 380.986 250.969 380.688C260.608 380.402 268.99 387.562 278 391C284.958 382.042 289.497 370.506 298.875 364.125C306.615 358.858 316.963 357.643 326.312 358.125C334.646 358.554 343.195 361.668 349.812 366.75C356.951 372.232 358.011 384.035 365.844 388.469C379.316 396.096 396.343 394.93 410.531 401.125C415.575 403.327 418.177 409.042 422 413C426.667 404.042 430.265 394.44 436 386.125C439.302 381.338 443.16 375.82 448.75 374.219C458.928 371.303 470.391 376.522 480.5 373.375C487.006 371.35 489.559 362.729 495.625 359.625C500.693 357.032 507.22 359.128 512.5 357C518.795 354.463 523.036 347.687 529.594 345.938C539.034 343.418 549.401 347.011 558.875 344.625C571.923 341.339 583.058 329.391 596.5 330C604.94 330.383 613.78 331.825 621.125 336C630.408 341.277 634.716 354.208 644.875 357.5C653.186 360.193 661.774 352.421 670.5 352C676.72 351.7 683.087 353.077 688.875 355.375C694.643 357.665 700.074 361.15 704.5 365.5C709.945 370.851 710.798 381.467 718 384C727.048 387.182 736.984 379.363 746.531 380.281C754.838 381.08 762.177 386.094 770 389C775.908 376.184 782.373 360.697 795.312 355.062C807.72 349.66 824.194 354.7 835.031 346.594C844.643 339.404 843.605 323.965 850.25 313.969C858.668 301.305 879.161 302.911 890.969 293.375C887.244 277.247 890 256.097 890 240C891.5 240 891.5 240 893 240C892.003 266.672 891.991 266.827 891 293.344C891.274 293.122 891.611 292.984 891.875 292.75C902.014 283.751 904.312 268.108 914 258.625C921.276 251.503 931.802 249.337 942.594 248.562C938.897 248.675 935.297 248.779 928 249C928 238.5 928 238.5 928 228C910.5 228 910.5 228 893 228C893 186 893 186 893 144C877.762 155.278 861.787 165.639 847.281 177.844C821.449 199.579 822.706 218.973 822 251C821 243.5 821 243.5 820 236C810.5 236 810.5 236 801 236C801.5 223 801.5 223 802 210C797.5 210 797.5 210 793 210C793 222.906 793 223.091 793 235.812C797.693 230.21 796 218.887 796 213C797.5 213 797.5 213 799 213C799 226 799 226 799 239C808 239 808 239 817 239C817 246.5 817 246.5 817 254C821.5 254 821.5 254 826 254C826 300.5 826 300.5 826 347C807.046 348.233 791.227 354.693 772 355C772 356 772 356 772 357C780.5 357 780.5 357 789 357C783.671 362.862 780.22 367.174 772 366C772 367.5 772 367.5 772 369C774.5 369 774.5 369 777 369C774.149 373.139 772.205 380.774 768 383C768.5 318.5 768.5 318.5 769 254C773.5 254 773.5 254 778 254C778.563 227.307 781.574 248.281 792.75 236.188C792.8 236.133 792.826 236.056 792.875 236C784.061 236 783.938 236 775 236C774 243.5 774 243.5 773 251C773 228.5 773 228.5 773 206C754.5 206 754.5 206 736 206C735.747 194.907 734.728 181.102 726 174.25C703.709 156.75 679.333 142.083 656 126C656 198.5 656 198.5 656 271C645 271 645 271 634 271C634 181 634 181 634 91ZM792.875 236C792.937 236 792.937 236 793 236C793 235.906 793 235.905 793 235.812C792.952 235.869 792.924 235.944 792.875 236ZM942.594 248.562C947.257 248.421 951.797 248.279 961 248C955.12 248.008 948.826 248.115 942.594 248.562ZM891 293.344C890.989 293.353 890.98 293.366 890.969 293.375C890.978 293.416 890.991 293.459 891 293.5C891.003 293.422 890.997 293.421 891 293.344ZM23.875 309.344C23.8306 309.316 23.7948 309.277 23.75 309.25C23.0769 308.848 22.325 308.623 21.625 308.281C22.3745 308.635 23.1348 308.97 23.875 309.344ZM21.625 308.281C15.0323 305.167 8.13892 302.729 1 302C7.83646 304.179 15.2173 305.151 21.625 308.281ZM75 162.562C75.6108 161.677 76.4022 160.904 77.25 160.156C76.3966 160.103 76.1255 160.07 75 160C75 161.281 75 161.476 75 162.562ZM77.25 160.156C82.4623 160.482 84.1255 160.57 91 161C91 132.5 91 132.5 91 104C91.0313 104 91.0322 104 91.0625 104C90.3809 102.999 89.8251 101.928 89 101C88.3333 117.375 90.7731 134.177 87 150.125C85.9326 154.637 80.8614 156.971 77.25 160.156ZM91.0625 104C92.7268 106.445 94.0611 109.039 95 111.844C95 108.853 95 107.922 95 104C93.0312 104 92.9707 104 91.0625 104ZM223 157.094C223.285 156.287 223.549 155.483 223.938 154.719C224.08 154.439 224.351 154.254 224.531 154C223.915 154 223.766 154 223 154C223 155.547 223 155.587 223 157.094ZM224.531 154C229.551 154 230.766 154 237 154C237 141 237 141 237 128C262.141 128 268.473 128 287.281 128C270.221 123.751 251.672 126.4 234 125C233.714 131.856 235.357 139.063 233.156 145.562C231.869 149.363 226.834 150.754 224.531 154ZM287.281 128C289.226 128.484 291.16 129.006 293.062 129.688C294.384 130.161 295.274 131.058 296 132.125C296 130.613 296 130.063 296 128C291.641 128 290.543 128 287.281 128ZM287.25 363.969C287.165 363.913 287.08 363.87 287 363.812C287 363.903 287 363.906 287 364C287.106 364 287.146 363.969 287.25 363.969ZM287 363.812C287 359.75 287 358.173 287 355.406C284.129 358.165 283.813 361.537 287 363.812ZM287 355.406C287.938 354.505 289.136 353.687 290.531 353C289.535 353 288.766 353 287 353C287 354.203 287 354.614 287 355.406ZM404.375 141.5C407.615 139.976 410.745 138.328 413.281 136C411.707 136 410.141 136 407 136C406.536 138.681 405.541 140.273 404.375 141.5ZM413.281 136C414.714 136 416.141 136 419 136C419 124.5 419 124.5 419 113C419.469 113 419.702 113 419.938 113C419.105 111.433 417.894 110.321 416 110C416 117.667 420.589 126.858 416 133C415.176 134.102 414.273 135.09 413.281 136ZM419.938 113C420.392 113.856 420.728 114.853 421 115.938C421 114.796 421 114.469 421 113C420.469 113 420.204 113 419.938 113ZM421 115.938C421 123.734 421 125.969 421 136C426.5 136 426.5 136 432 136C434.865 151.837 448.193 139.203 450.5 153.688C452.633 167.079 436.672 160.128 434.062 168.875C433.047 172.28 432.217 175.723 431.469 179.188C432.223 176.839 433.167 174.555 434.375 172.406C437.267 167.261 445.749 167.963 449.75 163.625C452.405 160.746 452.904 156.228 452.906 152.312C452.913 138.771 429.993 137.245 425.312 131.875C422.059 128.142 422.283 121.053 421 115.938ZM428.656 196.938C429.315 190.993 430.183 185.071 431.438 179.25C429.64 184.88 429.018 190.948 428.656 196.938ZM628.438 94C627.828 94 627.219 94 626 94C626 94.7212 626.053 95.6036 626.062 96.3438C626.577 95.3618 627.401 94.6117 628.438 94ZM626.062 96.3438C625.939 96.5784 625.703 96.7335 625.625 97C622.659 107.111 624.82 118.122 623 128.5C620.698 141.622 620.527 156.069 613.406 167.312C613.865 166.784 614.361 166.36 614.812 165.812C630.036 147.366 626.327 118.026 626.062 96.3438ZM613.406 167.312C611.462 169.55 609.482 171.713 607.438 173.656C609.692 171.914 611.723 169.953 613.281 167.531C613.327 167.46 613.361 167.384 613.406 167.312ZM659 131C672.536 139.498 686.512 147.318 699.594 156.5C728.605 176.863 732.179 227.703 732.625 258.594C733.03 286.664 733.046 314.749 732.281 342.812C731.953 354.848 732.592 367.22 729.344 378.812C728.472 381.924 723.974 382.585 720.875 383.5C716.631 384.753 715.84 379.007 715 377C720 377 720 377 725 377C725 371.5 725 371.5 725 366C721.662 366.181 717.655 366.533 714.594 368C717.671 368 718.797 368 723 368C723 372 723 372 723 376C716.444 375.272 714.251 374.862 713.188 368.781C712.328 369.387 711.532 370.07 711 371C705.5 365.5 705.5 365.5 700 360C703.679 358.585 705.44 352.826 702 350.094C702 352.732 702 353.547 702 357C691.036 357 679.994 350.94 669 349C684.297 349 686.365 349 699.594 349C689.911 345.825 675.448 347.05 667 347C665.199 352.178 666.971 349.58 659 352C659 267.5 659 267.5 659 183C687 183 687 183 715 183C715 182 715 182 715 181C687 181 687 181 659 181C659 175 659 175 659 169C678 169 678 169 697 169C697 168 697 168 697 167C678 167 678 167 659 167C659 161 659 161 659 155C666.5 155 666.5 155 674 155C674 154 674 154 674 153C666.5 153 666.5 153 659 153C659 142 659 142 659 131ZM699.594 349C699.813 349.072 700.098 349.08 700.312 349.156C700.989 349.398 701.528 349.719 702 350.094C702 349.676 702 349.547 702 349C700.797 349 700.634 349 699.594 349ZM713.188 368.781C713.621 368.476 714.099 368.237 714.594 368C714.01 368 713.797 368 713 368C713.048 368.334 713.134 368.478 713.188 368.781ZM287 136C266.25 136.5 266.25 136.5 245.5 137C257.5 140.5 274.984 138 287 138C287 137 287 137 287 136ZM266.25 142.188C258.877 142 251.5 142.25 245.5 144C266.25 144.5 266.25 144.5 287 145C287 144 287 144 287 143C280.992 143 273.623 142.375 266.25 142.188ZM890 148C890.5 188 890.5 188 891 228C873 228 873 228 855 228C854.98 243.887 855.39 259.776 854.938 275.656C854.67 285.045 854.059 294.436 852.844 303.75C851.481 314.196 842.955 318.616 839.5 328C837.386 333.742 836.622 339.934 834.375 345.625C833.634 347.501 830.182 347 829 347C828.792 319.25 828.798 291.498 828.375 263.75C828.26 256.197 825.017 251.504 824.625 244.375C823.479 223.521 823.541 209.914 835.875 192.5C848.392 174.828 874.183 159.743 890 148ZM158 155C162.39 160.023 167.659 164.382 171.156 170.062C181.589 187.006 180.732 220.154 181.25 237.688C181.879 258.983 182.072 280.289 181.875 301.594C181.707 319.78 183.266 348.269 177.5 370C170.429 370 144.583 370 138 370C138 370.333 138 371.667 138 372C144.5 372 169.549 372 177 372C176.49 373.746 175.869 375.363 175.25 377C166.657 377 144.208 377 138 377C138 377.333 138 378.667 138 379C144.073 379 165.408 379 174.438 379C173.968 380.117 173.624 381.355 173.094 382.406C172.739 383.109 171.783 383.422 171 383.5C156.379 384.95 148.904 380.111 134 385C134 351.167 133.693 317.332 134 283.5C134.296 250.977 131.504 207.088 142.656 174.531C145.042 167.568 154.583 158.844 158 155ZM526 166C555 166.5 555 166.5 584 167C583.907 173.715 585.4 180.043 581.188 185.75C568.766 202.577 558.994 196.778 553.375 221.5C551.109 231.472 549.594 246.119 549.406 255.562C548.833 284.372 549.131 313.185 549 342C540.943 341.722 532.808 342.992 525 345C525.5 255.5 525.5 255.5 526 166ZM233 175C233 177.333 233 186.667 233 189C235.333 189 244.667 189 247 189C247 186.667 247 177.333 247 175C244.667 175 235.333 175 233 175ZM259 175C259 177.333 259 186.667 259 189C261.333 189 270.667 189 273 189C273 186.667 273 177.333 273 175C270.667 175 261.333 175 259 175ZM285 175C285 177.333 285 186.667 285 189C287.5 189 297.5 189 300 189C300 186.667 300 177.333 300 175C297.5 175 287.5 175 285 175ZM262 176C270.444 176.938 271 178.609 271 187C266 187 266 187 261 187C261.5 181.5 261.5 181.5 262 176ZM235 177C236.667 177 243.333 177 245 177C245 178.667 245 185.333 245 187C243.333 187 236.667 187 235 187C235 185.333 235 178.667 235 177ZM287 177C288.833 177 296.167 177 298 177C298 178.667 298 185.333 298 187C296.167 187 288.833 187 287 187C287 185.333 287 178.667 287 177ZM312 180C337 180 337 180 362 180C362 200 362 200 362 220C352.5 220 352.5 220 343 220C343 290.5 343 290.5 343 361C333.054 357.897 322.418 356.85 312 357C312 268.5 312 268.5 312 180ZM138 195C138 195.333 138 196.667 138 197C144.667 197 171.333 197 178 197C178 196.667 178 195.333 178 195C171.333 195 144.667 195 138 195ZM683.5 197.125C677.526 197.227 671.421 198 667 198C667.221 200.65 667.948 202.703 669 204.375C669 202.562 669 200.729 669 200C673.927 200 690.877 200 698.562 200C694.654 197.63 689.17 197.029 683.5 197.125ZM698.562 200C699.922 200.824 701.104 201.83 702 203.156C702 201.876 702 200.526 702 200C701.427 200 699.456 200 698.562 200ZM702 203.156C702 205.121 702 207.193 702 208C697.177 208 681.009 208 673.062 208C680.919 212.33 694.644 209.234 704 209C703.782 206.598 703.051 204.712 702 203.156ZM673.062 208C671.45 207.111 670.018 205.993 669 204.375C669 205.877 669 207.396 669 208C669.677 208 671.947 208 673.062 208ZM712 198C712 200 712 208 712 210C714.167 210 722.833 210 725 210C725 208 725 200 725 198C722.833 198 714.167 198 712 198ZM713 200C714.667 200 721.333 200 723 200C723 201.333 723 206.667 723 208C721.333 208 714.667 208 713 208C713 206.667 713 201.333 713 200ZM138 202C138 202.333 138 203.667 138 204C144.667 204 171.333 204 178 204C178 203.667 178 202.333 178 202C171.333 202 144.667 202 138 202ZM233 204C233 206.333 233 215.667 233 218C235.333 218 244.667 218 247 218C247 215.667 247 206.333 247 204C244.667 204 235.333 204 233 204ZM273 204C267.723 204 264.607 204.496 262.625 206C265.161 206 269.604 206 271 206C271 207.833 271 215.167 271 217C269.333 217 262.667 217 261 217C261 215.479 261 210.686 261 207.875C259.805 209.997 259.346 213.157 259 218C266 218 266 218 273 218C273 211 273 211 273 204ZM261 207.875C261.425 207.12 261.969 206.498 262.625 206C262.133 206 261.271 206 261 206C261 206.313 261 207.297 261 207.875ZM286 204C285.5 211 285.5 211 285 218C292.5 218 292.5 218 300 218C299.888 205.667 298.044 204.86 286 204ZM468 205C474.5 205 474.5 205 481 205C481 221.5 481 221.5 481 238C487.5 238 487.5 238 494 238C494 243 494 243 494 248C498.5 248 498.5 248 503 248C502.906 273.896 503.202 299.796 502.719 325.688C502.568 333.744 502.067 341.813 501.094 349.812C499.648 361.698 486.916 362.498 477.219 362.844C467.818 363.179 458.406 362.948 449 363C451.441 372.538 474.613 367.072 483 367C481.897 376.371 466.801 368.756 460.562 369.156C454.607 369.539 450.612 371.775 445 374C445.5 311 445.5 311 446 248C450.5 248 450.5 248 455 248C455 243 455 243 455 238C461.5 238 461.5 238 468 238C468 221.5 468 221.5 468 205ZM235 206C236.667 206 243.333 206 245 206C245 207.833 245 215.167 245 217C243.333 217 236.667 217 235 217C235 215.167 235 207.833 235 206ZM287 206C300.657 206 299.452 214.736 287 217C287 211.5 287 211.5 287 206ZM736 208C753.5 208 753.5 208 771 208C771 229.5 771 229.5 771 251C768.5 251 768.5 251 766 251C766 318 766 318 766 385C756.43 381.278 746.249 378.629 736 378C736 293 736 293 736 208ZM138 209C138 209.333 138 210.667 138 211C144.667 211 171.333 211 178 211C178 210.667 178 209.333 178 209C171.333 209 144.667 209 138 209ZM667 217C667 223 667 223 667 229C675.587 228.768 689.732 231.159 697.812 227C689.818 227 673.802 227 669 227C669 225.667 669 220.333 669 219C674.5 219 696.5 219 702 219C702 219.766 702 221.705 702 223.594C703.172 221.887 703.922 219.768 704 217C685.5 217 685.5 217 667 217ZM702 223.594C700.967 225.098 699.474 226.145 697.812 227C698.974 227 701.302 227 702 227C702 226.432 702 224.994 702 223.594ZM712 217C712 219 712 227 712 229C714.167 229 722.833 229 725 229C725 227 725 219 725 217C722.833 217 714.167 217 712 217ZM713 219C718 219 718 219 723 219C723 223 723 223 723 227C715.499 227 713.943 226.543 713 219ZM345 223C379 223 379 223 413 223C413 310.5 413 310.5 413 398C404.124 397.866 388.62 399.053 386 387C376.418 387.348 368.061 390.476 364 381C375.5 380.5 375.5 380.5 387 380C379.833 379.708 372.637 379.842 365.5 379.125C361.463 378.72 360.908 376.019 359 373C373 372.5 373 372.5 387 372C372.354 371.032 347.069 375.526 346 355C359.669 355.243 373.824 357.644 387 354C366.5 354 366.5 354 346 354C346.465 349.48 345.241 348.26 351.125 347.75C363.053 346.715 375.042 346.583 387 346C366.5 346 366.5 346 346 346C346.465 341.48 345.241 340.261 351.125 339.75C363.053 338.715 375.042 338.583 387 338C366.5 338 366.5 338 346 338C346 329.5 346 329.5 346 321C359.669 321.243 373.824 323.644 387 320C366 320 366 320 345 320C346.127 315.409 345.09 314.258 351 313.75C362.97 312.721 375 312.583 387 312C366.5 312 366.5 312 346 312C346.707 305.134 350.893 305.261 357.531 304.938C367.347 304.459 377.177 304.312 387 304C367.238 303.453 347.051 310.32 346 287C359.669 287.243 373.824 289.644 387 286C366 286 366 286 345 286C345.577 281.963 346.053 280.194 350.875 280C362.925 279.515 375.376 281.215 387 278C375 277.708 362.975 277.949 351 277.125C344.868 276.703 345.851 275.43 345 271C366 270.5 366 270.5 387 270C366.5 270 366.5 270 346 270C346 261.5 346 261.5 346 253C359.669 253.243 373.824 255.644 387 252C366 252 366 252 345 252C345.577 247.963 346.053 246.194 350.875 246C362.925 245.515 375.376 247.215 387 244C366.5 244 366.5 244 346 244C346 237.131 350.485 237.38 357.531 236.938C359.143 236.836 360.761 236.854 362.375 236.781C353.347 236.113 345.774 233.057 345 223ZM362.375 236.781C370.73 237.4 380.329 235.982 387 236C378.792 236.261 370.578 236.413 362.375 236.781ZM37 231C71 231 71 231 105 231C105 294 105 294 105 357C104.324 356.859 96.2374 340.856 95 339C96.5 338 96.5 338 98 337C89.0583 335.054 82.7303 327.638 74 324C82.0507 323.569 91.1632 325.273 98 321C70.5 321 70.5 321 43 321C44 322.5 44 322.5 45 324C37.1398 326.153 38.7651 318.334 38.375 311C37.764 299.513 37.6977 288.002 37.5 276.5C37.2393 261.335 37.1667 246.167 37 231ZM857 231C891 231 891 231 925 231C924.796 242.205 927.4 248.892 917 253C917.308 246.778 918.636 242.487 916 240.031C915.811 243.175 917.141 254.59 913 256C913 248 913 248 913 240C914.484 240 914.515 240 915.969 240C914.961 239.079 913.435 238.389 911 238C910.775 246.506 913.485 256.515 907 263C906.74 257.843 909.969 238.349 900 238C899.653 255.198 902.2 267.6 895 282C895 260.5 895 260.5 895 239C891.5 239 891.5 239 888 239C888 266.5 888 266.5 888 294C885.5 294 885.5 294 883 294C883 266 883 266 883 238C880 238 880 238 877 238C876.857 257.375 878.014 276.878 875.781 296.125C873.889 296.568 873.893 296.558 872 297C872 267.5 872 267.5 872 238C870.226 238.289 868.989 239.023 868.031 240C868.572 240 869.016 240 870 240C868.5 269.5 868.5 269.5 867 299C867 270.203 867 268.863 867 241.406C864.826 245.214 865.566 251.34 865.5 256.125C865.344 267.535 870.753 295.733 859 305C858 268 858 268 857 231ZM867 241.406C867.29 240.897 867.625 240.415 868.031 240C867.748 240 867.516 240 867 240C867 240.703 867 240.736 867 241.406ZM233 233C233 235.5 233 245.5 233 248C235.333 248 244.667 248 247 248C247 245.5 247 235.5 247 233C244.667 233 235.333 233 233 233ZM273 233C267.711 233 264.602 233.512 262.625 235C265.161 235 269.604 235 271 235C271 236.833 271 244.167 271 246C269.333 246 262.667 246 261 246C261 244.474 261 239.647 261 236.844C259.798 238.965 259.348 242.13 259 247C266 247.5 266 247.5 273 248C273 240.5 273 240.5 273 233ZM261 236.844C261.423 236.096 261.969 235.493 262.625 235C262.133 235 261.271 235 261 235C261 235.307 261 236.279 261 236.844ZM286 233C285.833 235.333 285.167 244.667 285 247C287.333 247.167 296.667 247.833 299 248C299.167 245.667 299.833 236.333 300 234C297.667 233.833 288.333 233.167 286 233ZM683.969 234.219C678.018 234.245 671.806 235 667 235C667 241 667 241 667 247C685.5 247 685.5 247 704 247C703.096 236.153 693.886 234.175 683.969 234.219ZM235 235C236.667 235 243.333 235 245 235C245 236.833 245 244.167 245 246C243.333 246 236.667 246 235 246C235 244.167 235 236.833 235 235ZM712 235C712 241 712 241 712 247C718.5 247 718.5 247 725 247C724.644 242.727 724.137 239.984 723 238.188C723 240.733 723 241.594 723 245C718 245 718 245 713 245C713.896 237.829 715.507 237.089 722.094 237.031C720.271 235.372 717.254 235 712 235ZM722.094 237.031C722.449 237.355 722.729 237.759 723 238.188C723 237.744 723 237.594 723 237C722.63 237 722.435 237.028 722.094 237.031ZM292.656 235.438C297.641 236.188 301.659 242.545 294.906 245C282.504 249.51 285.088 236.612 290.5 235.5C291.223 235.351 291.944 235.33 292.656 235.438ZM688.031 236.219C695.036 236.62 701.201 238.606 702 245C685.5 245 685.5 245 669 245C669 241 669 241 669 237C673.183 237 681.027 235.817 688.031 236.219ZM138 238C138 238.5 138 240.5 138 241C144.667 241 171.333 241 178 241C178 240.5 178 238.5 178 238C171.333 238 144.667 238 138 238ZM879 240C879.333 240 880.667 240 881 240C881 249.167 881 285.833 881 295C880.667 295 879.333 295 879 295C879 285.833 879 249.167 879 240ZM903 240C903.302 246.25 903.736 252.495 903.906 258.75C904.003 262.302 903.937 265.828 901 268C901.324 258.936 900.776 248.895 903 240ZM44 243C44 244.5 44 244.5 44 246C71 245.5 71 245.5 98 245C95.4266 242.338 96.941 243.338 90.5 243.25C75.0012 243.038 59.5 243.083 44 243ZM138 246C138 246.333 138 247.667 138 248C144.667 248 171.333 248 178 248C178 247.667 178 246.333 178 246C171.333 246 144.667 246 138 246ZM185 250C202.5 250 202.5 250 220 250C220.5 320.5 220.5 320.5 221 391C207.236 383.672 200.434 381 185 381C185 315.5 185 315.5 185 250ZM506 252C514.5 252 514.5 252 523 252C523.198 274.771 523.491 297.541 523.594 320.312C523.634 329.194 526.526 339.085 522.375 346.938C519.938 351.546 509.544 359.301 508.531 354.188C502.191 322.183 506 284.04 506 252ZM138 253C138 253.333 138 254.667 138 255C144.667 255 171.333 255 178 255C178 254.667 178 253.333 178 253C171.333 253 144.667 253 138 253ZM683.438 253.156C677.46 253.247 671.38 254 667 254C667.219 256.623 667.946 258.653 669 260.312C669 258.522 669 256.719 669 256C673.911 256 690.741 256 698.469 256C694.551 253.665 689.083 253.07 683.438 253.156ZM698.469 256C699.858 256.828 701.089 257.848 702 259.188C702 257.892 702 256.531 702 256C701.411 256 699.395 256 698.469 256ZM702 259.188C702 261.143 702 263.198 702 264C697.208 264 681.267 264 673.25 264C681.19 268.209 694.884 265.2 704 265C703.783 262.61 703.054 260.737 702 259.188ZM673.25 264C671.562 263.105 670.055 261.974 669 260.312C669 261.843 669 263.385 669 264C669.708 264 672.065 264 673.25 264ZM712 254C712 256 712 264 712 266C714.167 266 722.833 266 725 266C725 264 725 256 725 254C722.833 254 714.167 254 712 254ZM713 256C714.667 256 721.333 256 723 256C723 257.333 723 262.667 723 264C721.333 264 714.667 264 713 264C713 262.667 713 257.333 713 256ZM43 259C43 259.333 43 260.667 43 261C52.1667 261 88.8333 261 98 261C98 260.667 98 259.333 98 259C88.8333 259 52.1667 259 43 259ZM449 259C450.339 265.695 482.017 265.303 494.625 261.938C475.965 261.536 473.063 261.464 451.5 261C465.222 257.375 484.273 260 498 260C498 260.469 498 260.702 498 260.938C499.258 260.351 500 259.69 500 259C474.5 259 474.5 259 449 259ZM498 260.938C497.19 261.315 495.842 261.613 494.625 261.938C496.085 261.969 496.313 261.964 498 262C498 261.469 498 261.204 498 260.938ZM772 261C772 261.333 772 262.667 772 263C780.5 263 814.5 263 823 263C823 262.667 823 261.333 823 261C814.5 261 780.5 261 772 261ZM233 263C233 265.333 233 274.667 233 277C235.333 277 244.667 277 247 277C247 274.667 247 265.333 247 263C244.667 263 235.333 263 233 263ZM259 263C259 265.333 259 274.667 259 277C261.333 277 270.667 277 273 277C273 274.667 273 265.333 273 263C270.667 263 261.333 263 259 263ZM285 263C285 265.333 285 274.667 285 277C287.5 277 297.5 277 300 277C300 274.667 300 265.333 300 263C297.5 263 287.5 263 285 263ZM235 265C236.667 265 243.333 265 245 265C245 266.667 245 273.333 245 275C243.333 275 236.667 275 235 275C235 273.333 235 266.667 235 265ZM261 265C262.667 265 269.333 265 271 265C271 266.667 271 273.333 271 275C269.333 275 262.667 275 261 275C261 273.333 261 266.667 261 265ZM287 265C288.833 265 296.167 265 298 265C298 266.667 298 273.333 298 275C296.167 275 288.833 275 287 275C287 273.333 287 266.667 287 265ZM449 272C449.171 272.853 449.936 273.555 451 274.188C451 273.703 451 273.198 451 273C458.833 273 490.167 273 498 273C498 273.156 498 273.548 498 273.938C499.258 273.351 500 272.69 500 272C474.5 272 474.5 272 449 272ZM498 273.938C497.132 274.342 495.706 274.656 494.375 275C495.237 275 497.396 275 498 275C498 274.823 498 274.379 498 273.938ZM494.375 275C484.534 275 461.582 275 453 275C461.997 278.336 484.043 277.668 494.375 275ZM453 275C452.293 274.738 451.526 274.501 451 274.188C451 274.519 451 274.865 451 275C451.333 275 452.585 275 453 275ZM684.906 272.906C684.606 272.909 684.33 272.989 684.031 273C684.835 273 685.162 273 685.969 273C685.61 272.991 685.265 272.903 684.906 272.906ZM685.969 273C693.669 273.196 701.261 276.088 702 282C685.5 282 685.5 282 669 282C669 276.293 676.299 273.279 684.031 273C676.962 273 669.839 273 667 273C667 274.833 667 282.167 667 284C673.167 284 697.833 284 704 284C704 282.167 704 274.833 704 273C700.995 273 693.479 273 685.969 273ZM634 273C645 273 645 273 656 273C655.906 292.208 656.025 311.419 655.719 330.625C655.651 334.88 656.351 351.057 651.5 355C644.939 360.333 637.315 350.539 636.156 345C631.401 322.278 634 295.843 634 273ZM712 273C712 274.833 712 282.167 712 284C714.167 284 722.833 284 725 284C725 282.167 725 274.833 725 273C722.833 273 714.167 273 712 273ZM772 273C772 273.333 772 274.667 772 275C780.5 274.833 814.5 274.167 823 274C814.5 273.833 780.5 273.167 772 273ZM44 274C44 275.5 44 275.5 44 277C71 276.5 71 276.5 98 276C95.4266 273.338 96.941 274.338 90.5 274.25C75.0012 274.038 59.5 274.083 44 274ZM713 275C714.667 275 721.333 275 723 275C723 276.167 723 280.833 723 282C721.333 282 714.667 282 713 282C713 280.833 713 276.167 713 275ZM138 282C138 282.333 138 283.667 138 284C144.667 284 171.333 284 178 284C178 283.667 178 282.333 178 282C171.333 282 144.667 282 138 282ZM797.281 283.781C788.823 283.767 780.347 284 772 284C772 285.5 772 285.5 772 287C797.25 286 797.25 286 822.5 285C814.181 284.058 805.74 283.796 797.281 283.781ZM449 285C450.339 291.695 482.017 291.303 494.625 287.938C475.965 287.536 473.063 287.464 451.5 287C465.222 283.375 484.273 286 498 286C498 286.469 498 286.702 498 286.938C499.258 286.351 500 285.69 500 285C474.5 285 474.5 285 449 285ZM498 286.938C497.19 287.315 495.842 287.613 494.625 287.938C496.085 287.969 496.313 287.964 498 288C498 287.469 498 287.204 498 286.938ZM138 289C138 289.5 138 291.5 138 292C144.667 292 171.333 292 178 292C178 291.5 178 289.5 178 289C171.333 289 144.667 289 138 289ZM430 289C436.5 289 436.5 289 443 289C442.917 309.917 443.12 330.836 442.75 351.75C442.604 360.015 443.309 384.153 431 388C430.5 338.5 430.5 338.5 430 289ZM43 290C43 290.333 43 291.667 43 292C52.1667 292 88.8333 292 98 292C98 291.667 98 290.333 98 290C88.8333 290 52.1667 290 43 290ZM683.969 290.219C678.018 290.245 671.806 291 667 291C667 297 667 297 667 303C685.5 303 685.5 303 704 303C703.785 300.417 703.055 298.388 702 296.719C702 298.497 702 300.286 702 301C696.5 301 674.5 301 669 301C669 299.667 669 294.333 669 293C673.802 293 689.818 293 697.812 293C694.088 290.896 689.198 290.196 683.969 290.219ZM697.812 293C699.47 293.936 700.96 295.074 702 296.719C702 295.174 702 293.62 702 293C701.302 293 698.974 293 697.812 293ZM712 291C712 293 712 301 712 303C714.167 303 722.833 303 725 303C725 301 725 293 725 291C722.833 291 714.167 291 712 291ZM233 292C233 294.5 233 304.5 233 307C235.333 307 244.667 307 247 307C247 304.5 247 294.5 247 292C244.667 292 235.333 292 233 292ZM273 292C267.723 292 264.607 292.496 262.625 294C265.161 294 269.604 294 271 294C271 295.833 271 303.167 271 305C269.333 305 262.667 305 261 305C261 303.479 261 298.686 261 295.875C259.805 297.997 259.346 301.157 259 306C266 306.5 266 306.5 273 307C273 299.5 273 299.5 273 292ZM261 295.875C261.425 295.12 261.969 294.498 262.625 294C262.133 294 261.271 294 261 294C261 294.313 261 295.297 261 295.875ZM286 292C285.833 294.333 285.167 303.667 285 306C287.333 306.167 296.667 306.833 299 307C299.167 304.667 299.833 295.333 300 293C297.667 292.833 288.333 292.167 286 292ZM723 293C723 297 723 297 723 301C718 301 718 301 713 301C713.943 293.457 715.499 293 723 293ZM235 294C236.667 294 243.333 294 245 294C245 295.833 245 303.167 245 305C243.333 305 236.667 305 235 305C235 303.167 235 295.833 235 294ZM287 294C296.232 294.839 298 295.608 298 305C292.5 305 292.5 305 287 305C287 299.5 287 299.5 287 294ZM809.156 295.562C803.907 295.546 798.948 296.011 797 296C788.667 295.953 780.333 296 772 296C772 297 772 297 772 298C797.5 298 797.5 298 823 298C819.946 296.075 814.406 295.579 809.156 295.562ZM138 297C138 297.333 138 298.667 138 299C144.667 299 171.333 299 178 299C178 298.667 178 297.333 178 297C171.333 297 144.667 297 138 297ZM449 298C449.171 298.853 449.936 299.555 451 300.188C451 299.703 451 299.198 451 299C458.833 299 490.167 299 498 299C498 299.156 498 299.548 498 299.938C499.258 299.351 500 298.69 500 298C474.5 298 474.5 298 449 298ZM498 299.938C497.132 300.342 495.706 300.656 494.375 301C495.237 301 497.396 301 498 301C498 300.823 498 300.379 498 299.938ZM494.375 301C484.534 301 461.582 301 453 301C461.997 304.336 484.043 303.668 494.375 301ZM453 301C452.293 300.738 451.526 300.501 451 300.188C451 300.519 451 300.865 451 301C451.333 301 452.585 301 453 301ZM44 305C44 306.5 44 306.5 44 308C71 307.5 71 307.5 98 307C95.4266 304.338 96.941 305.338 90.5 305.25C75.0012 305.038 59.5 305.083 44 305ZM772 308C772 308.333 772 309.667 772 310C780.5 310 814.5 310 823 310C823 309.667 823 308.333 823 308C814.5 308 780.5 308 772 308ZM667 310C667.182 312.179 667.901 314.064 669 315.688C669 314.157 669 312.615 669 312C674.5 312 696.5 312 702 312C702 312.667 702 314.333 702 316C703.182 314.299 703.936 312.323 704 310C685.5 310 685.5 310 667 310ZM702 316C700.877 317.617 699.327 318.951 697.5 320C698.78 320 701.25 320 702 320C702 319.333 702 317.667 702 316ZM697.5 320C690.771 320 680.749 320 673.844 320C680.628 323.868 690.855 323.816 697.5 320ZM673.844 320C671.887 318.884 670.198 317.457 669 315.688C669 317.478 669 319.281 669 320C669.807 320 672.43 320 673.844 320ZM712 310C712 312 712 320 712 322C714.167 322 722.833 322 725 322C725 320 725 312 725 310C722.833 310 714.167 310 712 310ZM449 311C450.339 317.695 482.017 317.303 494.625 313.938C475.965 313.536 473.063 313.464 451.5 313C464.417 310.075 481.79 312.922 495.156 313.781C497.94 312.981 500 312.066 500 311C474.5 311 474.5 311 449 311ZM495.156 313.781C494.978 313.832 494.812 313.888 494.625 313.938C496.085 313.969 496.313 313.964 498 314C497.166 313.964 496.029 313.837 495.156 313.781ZM713 312C714.667 312 721.333 312 723 312C723 313.333 723 318.667 723 320C721.333 320 714.667 320 713 320C713 318.667 713 313.333 713 312ZM772 320C772 320.333 772 321.667 772 322C780.5 321.833 814.5 321.167 823 321C814.5 320.833 780.5 320.167 772 320ZM233 322C233 324.333 233 333.667 233 336C235.333 336 244.667 336 247 336C247 333.667 247 324.333 247 322C244.667 322 235.333 322 233 322ZM259 322C259 324.333 259 333.667 259 336C261.333 336 270.667 336 273 336C273 333.667 273 324.333 273 322C270.667 322 261.333 322 259 322ZM285 322C285 324.333 285 333.667 285 336C287.5 336 297.5 336 300 336C300 333.667 300 324.333 300 322C297.5 322 287.5 322 285 322ZM235 324C236.667 324 243.333 324 245 324C245 325.667 245 332.333 245 334C243.333 334 236.667 334 235 334C235 332.333 235 325.667 235 324ZM261 324C262.667 324 269.333 324 271 324C271 325.667 271 332.333 271 334C269.333 334 262.667 334 261 334C261 332.333 261 325.667 261 324ZM287 324C292.5 324 292.5 324 298 324C298 332.931 295.651 333.214 287 334C287 329 287 329 287 324ZM449 324C449.171 324.853 449.936 325.555 451 326.188C451 325.703 451 325.198 451 325C458.833 325 490.167 325 498 325C498 325.156 498 325.548 498 325.938C499.258 325.351 500 324.69 500 324C474.5 324 474.5 324 449 324ZM498 325.938C497.132 326.342 495.706 326.656 494.375 327C495.237 327 497.396 327 498 327C498 326.823 498 326.379 498 325.938ZM494.375 327C484.534 327 461.582 327 453 327C461.997 330.336 484.043 329.668 494.375 327ZM453 327C452.293 326.738 451.526 326.501 451 326.188C451 326.519 451 326.865 451 327C451.333 327 452.585 327 453 327ZM138 326C138 326.333 138 327.667 138 328C144.667 328 171.333 328 178 328C178 327.667 178 326.333 178 326C171.333 326 144.667 326 138 326ZM667 329C667 330.833 667 338.167 667 340C673.167 340 697.833 340 704 340C704 338.167 704 330.833 704 329C697.833 329 673.167 329 667 329ZM712 329C712 330.833 712 338.167 712 340C714.167 340 722.833 340 725 340C725 338.167 725 330.833 725 329C722.833 329 714.167 329 712 329ZM809.156 330.562C803.907 330.546 798.948 331.011 797 331C788.667 330.953 780.333 331 772 331C772 332 772 332 772 333C797.5 333 797.5 333 823 333C819.946 331.075 814.406 330.579 809.156 330.562ZM669 331C674.5 331 696.5 331 702 331C702 332.167 702 336.833 702 338C696.5 338 674.5 338 669 338C669 336.833 669 332.167 669 331ZM713 331C714.667 331 721.333 331 723 331C723 332.167 723 336.833 723 338C721.333 338 714.667 338 713 338C713 336.833 713 332.167 713 331ZM138 333C138 333.333 138 334.667 138 335C144.667 335 171.333 335 178 335C178 334.667 178 333.333 178 333C171.333 333 144.667 333 138 333ZM625.969 333.719C629.378 333.776 631.181 335.087 632 340C628.588 338.294 624.613 336.874 622 334C623.515 333.832 624.832 333.7 625.969 333.719ZM449 337C450.209 343.046 459.253 341.59 464.031 341.562C476.022 341.494 488.01 341.187 500 341C499.713 339.851 498.961 339.063 498 338.469C498 338.999 498 339.745 498 340C490.167 340 458.833 340 451 340C451 339.667 451 338.333 451 338C458.651 338 488.212 338 496.906 338C493.327 336.574 487.715 337.156 484.969 337.125C472.98 336.988 460.99 337.042 449 337ZM496.906 338C497.284 338.151 497.675 338.268 498 338.469C498 338.307 498 338.078 498 338C497.818 338 497.113 338 496.906 338ZM138 340C138 340.333 138 341.667 138 342C144.667 342 171.333 342 178 342C178 341.667 178 340.333 178 340C171.333 340 144.667 340 138 340ZM772 343C772 343.333 772 344.667 772 345C780.5 345 814.5 345 823 345C823 344.667 823 343.333 823 343C814.5 343 780.5 343 772 343ZM712 347C712 349 712 357 712 359C714.167 359 722.833 359 725 359C725 357 725 349 725 347C722.833 347 714.167 347 712 347ZM713 349C714.667 349 721.333 349 723 349C723 350.333 723 355.667 723 357C721.333 357 714.667 357 713 357C713 355.667 713 350.333 713 349ZM449 350C450.669 358.344 500 355.74 500 350C474.5 350 474.5 350 449 350ZM233 351C233 353.5 233 363.5 233 366C235.333 366 244.667 366 247 366C247 363.5 247 353.5 247 351C244.667 351 235.333 351 233 351ZM273 351C267.711 351 264.602 351.512 262.625 353C265.161 353 269.604 353 271 353C271 354.833 271 362.167 271 364C269.333 364 262.667 364 261 364C261 362.474 261 357.647 261 354.844C259.798 356.965 259.348 360.13 259 365C266 365.5 266 365.5 273 366C273 358.5 273 358.5 273 351ZM261 354.844C261.423 354.096 261.969 353.493 262.625 353C262.133 353 261.271 353 261 353C261 353.307 261 354.279 261 354.844ZM235 353C236.667 353 243.333 353 245 353C245 354.833 245 362.167 245 364C243.333 364 236.667 364 235 364C235 362.167 235 354.833 235 353ZM468.219 363.812C473.854 363.79 479.498 364 485 364C485 365 485 365 485 366C468.25 365.5 468.25 365.5 451.5 365C456.958 364.09 462.584 363.835 468.219 363.812ZM165 386C169 386.5 169 386.5 173 387C169.333 389.75 168.164 389.164 165 386Z" fill="#000000" fill-rule="evenodd" opacity="1" stroke="none"/>
</g>
</svg>
