<svg id="Layer_1" data-name="Layer 1" xmlns="http://www.w3.org/2000/svg" viewBox="0 150 1000 700"><defs><style>.cls-1{fill:#d84659;}</style></defs><title>logo</title><path class="cls-1" d="M925,366.07c-13.64,6.22-27.66,11.68-41,18.56,7.38-1.57,14.67-3.57,22.11-4.9,7.37,18.29,19.37,35.1,35.48,46.67-5.16,4.9-11.58,9.19-14.19,16.11-3.38,10.45,6.28,21.34,16.7,21.63-2.37,5.41-4.07,11.95-.74,17.35,2.47,5.06,8,7.37,13.38,7.78-1.84,5-2.49,11,1.22,15.28,5.5,6.24,15.23,7.23,22.62,4.05,2.56-1.3,3.6,2.23,4.49,3.91,2.37,5.69-4.51,13.46-10.24,9.67-9-5.64-17.53-11.93-26.41-17.71-1.39-1.6-4.62-.94-3.5,1.71,9.9,8.24,21.1,14.8,31.08,22.94,5.46,4.29,3.35,12.29.13,17.31-2.64,4.32-8.82,3.74-12.59,1.36-10.4-6.27-20.13-13.57-30-20.65-1.41-.59-3.42-3.2-4.76-1.21-2,1.4.35,3.63,1.61,4.53,10.62,7.76,21.54,15.15,32.37,22.63,10.78,5.36,1.55,27-10,21.1-14-8.7-26.44-19.89-40.52-28.41-2.31,2.67.53,5,2.51,6.71,11.46,9.07,23.73,17.11,35,26.34,4.11,5.39-1.32,11.34-5.62,14.5-3.46,3.07-8.49,2.14-12.13,0C920,586.65,908.06,579.6,896,572.76a19.66,19.66,0,0,1-8.29-9c-7.51-13.57-16.35-26.55-21.93-41.11a132.43,132.43,0,0,1-4.89-32.13c7-7.34,16.11-13.17,20.57-22.66,3.36-7.69,4.93-17.48-.3-24.72-2.45-3.3-5.26-7.53-9.71-7.95C859,441.81,847,449.61,833.75,454.65c2.34-9.9,5.56-19.77,5.81-30-2.56-5.8-5.94-11.19-8.77-16.85-6.31,2.74-12.46,5.88-18.95,8.21a185.92,185.92,0,0,0-29.37-44.08c-35.13-39.79-87.23-64.1-140.37-64.67-55-1.4-110,22.58-146.51,63.76Q448,331.4,400.69,291.43C439.79,247.27,491,213.8,547.6,197c70.31-21.23,148-17,215.43,12.18C833.73,239.35,892.79,296.22,925,366.07Zm25.35,34.4c-7.72-4-16.61.49-21.67,6.65A67.13,67.13,0,0,0,947,423.44C955.44,419.56,958.19,406.28,950.37,400.47Zm13.54,26c-5.2-2.34-11.85-1.8-16.17,2.11-4,3.33-8.17,6.39-11.82,10.09-6.06,6.68-1.22,19.14,7.86,19.72,9.62,1.15,16.67-6.57,23.57-11.94C973.86,441,971.3,429.78,963.91,426.49Zm-88.85,18.06c-1.35-1.64-3.85-3.08-5.86-1.68-13.94,8.62-29,15.11-43.8,22.17-2.13.64-2.2,3.06-2.27,4.89-.66,15.81-1.54,31.61-2.44,47.41-.61,3.19,1.65,5.7,3.25,8.2a109.91,109.91,0,0,1,14.79,29.21c2.22,6.2.33,12.8.17,19.16.14,8.67-6.44,15.18-9,23.05a134.88,134.88,0,0,1,16.47,11c-12.62-5.56-25.27-11.12-37.76-17-25.29,46.39-69.68,82.17-121,95.35-55.33,14.9-117,3.14-162.93-31.16a198.12,198.12,0,0,1-27.56-24.7c-31.62,26.6-63.45,52.95-95,79.68C438,750.29,484,781.4,535,799a317.24,317.24,0,0,0,208.86-.63c76.57-26.82,141.52-84.48,177.77-157-6.93-3.11-13.93-6.08-20.82-9.32,2.85-5.72,5.06-11.74,8.19-17.3,5.33-7,12.62-12.08,18.89-18.13-10.61-5.79-20.93-12.17-32.12-16.8-1,2.86-1.16,6.53-4.17,8.2-.45-3.66,1.26-8-1.19-11.17-12.29-15.73-21.4-33.63-30.16-51.48-3.72-11.16-3.81-23.15-5.43-34.72-.21-3.2-5.16-1-6.95-2.2,3-2.28,6.81-3.19,10.07-5a48.23,48.23,0,0,0,18.5-17.91C879.92,459.05,880.12,450.22,875.06,444.55Zm99.4,7.7c-6.18-2.64-11.59,2.18-16.28,5.48-4.34,3.24-10.55,5.93-11,12.12-1.87,8.75,7.85,17.41,16.26,13.62,5.63-3.06,11.33-6.22,16.28-10.32C986.23,466.8,982.19,455.47,974.46,452.25Zm11.39,27.58a11.08,11.08,0,0,0-12.35,1.29c-4.43,3.59-10.17,6.8-11.69,12.72-1.06,3.54.86,7.37,4,9.2,9.68,5.67,24.32-1.26,25.49-12.61C992.14,486.13,989.57,481.84,985.85,479.83Z"/><path class="cls-1" d="M145.87,429.86a6,6,0,0,1-.25-1.71v-12.3a4.82,4.82,0,0,1,1.46-3.53,4.65,4.65,0,0,1,3.54-1.59h49.46a4.78,4.78,0,0,1,4,2.2,5.54,5.54,0,0,1,.85,2.8v12.79a5,5,0,0,1-2.31,4.14,5.72,5.72,0,0,1-3.17.73H151A5,5,0,0,1,145.87,429.86Zm91.61,27.77H225.17a4.89,4.89,0,0,0-4.75,4.15v36.67q0,13.64-15.1,13.64A18.84,18.84,0,0,1,192,507.16a16.64,16.64,0,0,1-5.36-12.86V461.9a8.3,8.3,0,0,0-.86-2.19,4.44,4.44,0,0,0-3.77-2.08H169.62a4.89,4.89,0,0,0-4.75,4.15h-.12v36.67q0,13.64-15.47,13.64a17.82,17.82,0,0,1-12.79-5,16.56,16.56,0,0,1-5-8.9V462.39a5,5,0,0,0-.85-2.68,4.47,4.47,0,0,0-3.78-2.08H114.31a4.8,4.8,0,0,0-4.75,4.88v73.21q0,13.65-13,18a31.19,31.19,0,0,1-8.41,1.47H52.18a31.05,31.05,0,0,1-8.4-1.47q-13-4.38-13-18v-34a4.59,4.59,0,0,0-1.34-3.41A4.65,4.65,0,0,0,26,496.86H13.2a4.46,4.46,0,0,0-3.78,2.07,5,5,0,0,0-.85,2.68l.12,35.09q0,17.65,12.12,29.36t29.91,11.69H89.58q17.79,0,29.91-11.69t12.12-29.36V524.64q10,8.65,21.81,8.65,15.71,0,27.41-15.35,11.56,14.87,28.75,14.86,17.41,0,27.29-14,5.24-10,5.24-23.15V461.78a8.78,8.78,0,0,0-.86-2.07A4.44,4.44,0,0,0,237.48,457.63Zm-68.22-55.79H181.2a5.68,5.68,0,0,0,3.16-.73,5,5,0,0,0,2.32-4.14V384.05a5.16,5.16,0,0,0-.86-2.8,4.77,4.77,0,0,0-4-2.19H168.89a4.64,4.64,0,0,0-3.53,1.58,4.57,4.57,0,0,0-1.47,3.54V396.6a7.34,7.34,0,0,0,.25,1.71A5,5,0,0,0,169.26,401.84ZM325.8,556.19H312.89a4.66,4.66,0,0,0-3.54,1.58,4.59,4.59,0,0,0-1.46,3.54v12.42a7.28,7.28,0,0,0,.24,1.71,5.05,5.05,0,0,0,5.12,3.53h11.94a5.7,5.7,0,0,0,3.17-.73,5,5,0,0,0,2.31-4.14V561.19a5.16,5.16,0,0,0-.85-2.81A4.79,4.79,0,0,0,325.8,556.19Zm19.37-93.56a4.78,4.78,0,0,0-4.75-4.87H328a4.43,4.43,0,0,0-3.77,2.07,5,5,0,0,0-.86,2.68v29.6q0,9.25-3.47,13t-12.61,3.77H302q-11.09,0-15-2.8-4.87-3.4-4.87-18.39v-91h-.13V394.9a4.92,4.92,0,0,0-.85-2.68,4.43,4.43,0,0,0-3.77-2.07H265.13a4.78,4.78,0,0,0-4.75,4.87v1.7h-.12V497.35q0,20.1,14.25,27.9,9.74,5.32,25.86,5.57c.23,0,.45,0,.7,0h12.79a28.52,28.52,0,0,0,23-11q8.4-10.23,8.4-24.73V465.68h-.12Zm203.21-3.9a28,28,0,0,1,3.17,13.77v28.75q0,12.3-4.2,17.54a32.45,32.45,0,0,1-11,8.65q-6.81,3.4-22.65,3.41a59.07,59.07,0,0,1-29.85-7.8q-7.15,6.57-21.69,7.74v.06h-9q-10.11,0-17.24-4.81T428.63,521q-6.45-4.86-16.81-5.48H407q-13.27.12-13.28,14.62v12.3q0,14.51,14,14.62h139a4.9,4.9,0,0,1,3.41,1.22,4.7,4.7,0,0,1,1.46,3.41v12.67a4.46,4.46,0,0,1-2.07,3.78,4.94,4.94,0,0,1-2.68.85H409.14q-39.47,0-39.47-36.42V530.24q0-37.87,38.25-37.88H414q22.31,0,35.82,10.71,4.88,5.73,11.33,5.85h.24q6.94,0,10.24-3.65c.56-.57,1-2.28,1.21-5.12l-.12-6.21v-22.3a27.79,27.79,0,0,1,6.95-18.51,33.36,33.36,0,0,1,4.5-4.14,27.37,27.37,0,0,1,16.45-5.61h23a27.63,27.63,0,0,1,16.93,6,39,39,0,0,1,3.9,3.53A29.76,29.76,0,0,1,548.38,458.73ZM530.6,475.42a26.22,26.22,0,1,0-7.68,18.64A25.23,25.23,0,0,0,530.6,475.42Zm150.33-32.16H626.84l3,21.44q54.09.74,57,1.46,11.33,3,14.86,11.21-36.91,20.6-40.44,22.29a107.64,107.64,0,0,1-44.71,9.26h-7.68q-11.08,0-15-2.8-4.87-3.4-4.87-18.39v-91H589V394.9a4.92,4.92,0,0,0-.85-2.68,4.46,4.46,0,0,0-3.78-2.07H572a4.64,4.64,0,0,0-3.41,1.46,4.59,4.59,0,0,0-1.34,3.41v1.7h-.12V497.35q0,20.1,14.25,27.9c4.74,2.59,10.65,4.27,17.66,5.06v.54l5.53-.09c1.41.06,2.86.09,4.34.09v-.18q22.59-.49,29.48-1.4a98.9,98.9,0,0,0,37-12.18l50.19-28.63Q725.39,443.27,680.93,443.26Z"/></svg>