<?xml version="1.0" encoding="UTF-8" standalone="no"?>
<!DOCTYPE svg PUBLIC "-//W3C//DTD SVG 1.1//EN" "http://www.w3.org/Graphics/SVG/1.1/DTD/svg11.dtd">
<!-- Created with Vectornator (http://vectornator.io/) -->
<svg height="100%" stroke-miterlimit="10" style="fill-rule:nonzero;clip-rule:evenodd;stroke-linecap:round;stroke-linejoin:round;" version="1.1" viewBox="0 0 100 100" width="100%" xml:space="preserve" xmlns="http://www.w3.org/2000/svg" xmlns:xlink="http://www.w3.org/1999/xlink">
<defs/>
<g id="Layer-1">
<g opacity="1">
<path d="M81.4666 40.0818C80.4567 40.5423 79.4187 40.9466 78.431 41.456C78.9774 41.3397 79.5171 41.1916 80.068 41.0932C80.6137 42.4474 81.5022 43.692 82.6949 44.5486C82.3129 44.9114 81.8376 45.2291 81.6443 45.7414C81.3941 46.5152 82.1093 47.3215 82.8808 47.3429C82.7053 47.7435 82.5794 48.2277 82.826 48.6275C83.0089 49.0022 83.4183 49.1732 83.8167 49.2036C83.6804 49.5738 83.6323 50.018 83.907 50.3349C84.3142 50.7969 85.0346 50.8702 85.5818 50.6348C85.7713 50.5385 85.8483 50.7999 85.9142 50.9243C86.0897 51.3456 85.5803 51.9209 85.1561 51.6402C84.4897 51.2227 83.8581 50.7569 83.2006 50.329C83.0977 50.2105 82.8586 50.2594 82.9415 50.4556C83.6745 51.0657 84.5038 51.5514 85.2427 52.1541C85.6469 52.4717 85.4907 53.064 85.2523 53.4357C85.0568 53.7556 84.5993 53.7126 84.3201 53.5364C83.5501 53.0722 82.8297 52.5317 82.0989 52.0075C81.9945 51.9638 81.8457 51.7706 81.7465 51.9179C81.5984 52.0216 81.7724 52.1867 81.8657 52.2533C82.652 52.8279 83.4605 53.375 84.2624 53.9288C85.0605 54.3257 84.3771 55.9279 83.522 55.4911C82.4854 54.8469 81.5643 54.0184 80.5219 53.3876C80.3508 53.5853 80.5611 53.7578 80.7077 53.8844C81.5562 54.556 82.4647 55.1512 83.2991 55.8346C83.6034 56.2337 83.2014 56.6743 82.883 56.9082C82.6268 57.1355 82.2544 57.0667 81.9849 56.9082C81.0964 56.4136 80.2124 55.8917 79.3194 55.3852C79.0492 55.234 78.8341 55.0006 78.7056 54.7189C78.1496 53.7141 77.4951 52.7531 77.0819 51.675C76.864 50.8999 76.7424 50.101 76.7199 49.2961C77.2382 48.7527 77.9127 48.321 78.2429 47.6184C78.4917 47.049 78.6079 46.3241 78.2207 45.7881C78.0393 45.5438 77.8312 45.2306 77.5017 45.1995C76.5799 45.6896 75.6915 46.2671 74.7104 46.6403C74.8837 45.9073 75.1221 45.1765 75.1406 44.4191C74.951 43.9896 74.7008 43.5906 74.4913 43.1715C74.0241 43.3744 73.5687 43.6068 73.0882 43.7794C72.5228 42.5933 71.7905 41.4942 70.9136 40.5157C68.3126 37.5696 64.4551 35.7697 60.5205 35.7275C56.4483 35.6238 52.3761 37.3993 49.6729 40.4483C47.3238 38.4926 44.9817 36.5283 42.6464 34.5554C45.5414 31.2858 49.333 28.8076 53.5237 27.5637C58.7295 25.9919 64.4817 26.3051 69.4743 28.4656C74.7089 30.6994 79.0818 34.91 81.4666 40.0818ZM83.3435 42.6288C82.7719 42.3326 82.1137 42.6651 81.7391 43.1211C82.1132 43.6038 82.573 44.0135 83.0955 44.3295C83.7204 44.0422 83.924 43.059 83.345 42.6288L83.3435 42.6288ZM84.346 44.5538C83.961 44.3806 83.4687 44.4206 83.1488 44.7101C82.8527 44.9566 82.5439 45.1832 82.2737 45.4571C81.825 45.9517 82.1833 46.8743 82.8556 46.9172C83.5679 47.0023 84.0899 46.4308 84.6007 46.0332C85.0842 45.6296 84.8947 44.7989 84.3475 44.5553L84.346 44.5538ZM77.7675 45.891C77.6676 45.7696 77.4825 45.663 77.3337 45.7666C76.3015 46.4048 75.1865 46.8854 74.0907 47.4081C73.933 47.4555 73.9278 47.6347 73.9226 47.7701C73.8738 48.9407 73.8086 50.1106 73.742 51.2804C73.6968 51.5166 73.8641 51.7024 73.9826 51.8875C74.4535 52.5497 74.8227 53.2787 75.0777 54.0503C75.242 54.5093 75.1021 54.998 75.0902 55.4689C75.1006 56.1108 74.6134 56.5928 74.4239 57.1755C74.8498 57.4167 75.2574 57.689 75.6433 57.99C74.7089 57.5783 73.7723 57.1666 72.8476 56.7313C70.9751 60.166 67.6884 62.8152 63.8887 63.791C59.792 64.8942 55.2259 64.0235 51.8252 61.4839C51.0895 60.9393 50.4063 60.3271 49.7847 59.6551C47.4435 61.6246 45.0868 63.5756 42.7508 65.5547C45.4089 68.5296 48.8147 70.833 52.5908 72.1361C57.603 73.8665 63.0532 73.8501 68.0549 72.0895C73.7242 70.1037 78.5331 65.8346 81.2171 60.4651C80.704 60.2349 80.1857 60.015 79.6756 59.7751C79.8866 59.3516 80.0502 58.9058 80.282 58.4942C80.6766 57.9759 81.2164 57.5998 81.6806 57.1518C80.895 56.7231 80.1309 56.2508 79.3024 55.9079C79.2284 56.1197 79.2165 56.3914 78.9937 56.5151C78.9603 56.2441 79.087 55.9228 78.9056 55.688C77.9956 54.5234 77.3211 53.1981 76.6725 51.8764C76.3971 51.0501 76.3904 50.1624 76.2704 49.3058C76.2549 49.0688 75.8884 49.2317 75.7559 49.1429C75.978 48.974 76.2601 48.9067 76.5015 48.7727C77.0698 48.4629 77.5432 48.0046 77.8712 47.4466C78.1289 46.9661 78.1437 46.3123 77.769 45.8925L77.7675 45.891ZM85.1272 46.4611C84.6696 46.2656 84.269 46.6225 83.9218 46.8669C83.6005 47.1067 83.1407 47.3059 83.1074 47.7642C82.9689 48.4121 83.6886 49.0533 84.3113 48.7727C84.7281 48.5461 85.1501 48.3121 85.5166 48.0086C86.0001 47.5399 85.701 46.701 85.1287 46.4626L85.1272 46.4611ZM85.9705 48.5032C85.6748 48.3452 85.3128 48.383 85.0561 48.5987C84.7281 48.8645 84.3031 49.1021 84.1906 49.5405C84.1121 49.8026 84.2542 50.0861 84.4867 50.2216C85.2034 50.6414 86.2874 50.1283 86.374 49.288C86.4377 48.9711 86.2474 48.6535 85.972 48.5046L85.9705 48.5032Z" fill="#d84659" fill-rule="evenodd" opacity="1" stroke="none"/>
<path d="M23.7794 44.8048C23.7672 44.7637 23.7609 44.7211 23.7609 44.6782L23.7609 43.7675C23.7594 43.6692 23.7985 43.5747 23.869 43.5062C23.935 43.4306 24.0308 43.3876 24.1311 43.3884L27.7932 43.3884C27.9131 43.389 28.0246 43.4503 28.0893 43.5513C28.1285 43.6135 28.1502 43.6851 28.1522 43.7586L28.1522 44.7056C28.1504 44.83 28.0861 44.9452 27.9812 45.0121C27.9099 45.0525 27.8283 45.0713 27.7465 45.0662L24.1592 45.0662C23.9872 45.0782 23.8297 44.9698 23.7794 44.8048ZM30.5623 46.8609L29.6508 46.8609C29.4744 46.864 29.3258 46.9938 29.2991 47.1682L29.2991 49.8833C29.2991 50.5565 28.9265 50.8932 28.1811 50.8932C27.8174 50.9048 27.4634 50.7738 27.1949 50.5282C26.9297 50.2841 26.7847 49.9362 26.798 49.576L26.798 47.1771C26.7846 47.1203 26.7632 47.0657 26.7344 47.0149C26.6741 46.9189 26.5686 46.8607 26.4552 46.8609L25.5379 46.8609C25.3614 46.864 25.2129 46.9938 25.1862 47.1682L25.1773 47.1682L25.1773 49.8833C25.1773 50.5565 24.7955 50.8932 24.0319 50.8932C23.6795 50.9012 23.3384 50.7679 23.0849 50.523C22.8952 50.3478 22.7656 50.1172 22.7147 49.864L22.7147 47.2134C22.7131 47.1426 22.6913 47.0737 22.6518 47.0149C22.5911 46.919 22.4854 46.8609 22.3719 46.8609L21.4427 46.8609C21.348 46.8619 21.2577 46.9006 21.1917 46.9684C21.1257 47.0362 21.0894 47.1276 21.091 47.2223L21.091 52.6428C21.091 53.3165 20.7702 53.7608 20.1285 53.9755C19.9269 54.0401 19.7174 54.0768 19.5058 54.0843L16.8426 54.0843C16.6312 54.0768 16.4219 54.0402 16.2206 53.9755C15.5789 53.7593 15.2581 53.315 15.2581 52.6428L15.2581 50.1254C15.2615 50.0311 15.2256 49.9396 15.1589 49.8729C15.0927 49.8031 15.0003 49.7642 14.9042 49.7655L13.9565 49.7655C13.843 49.7652 13.7374 49.823 13.6766 49.9188C13.6371 49.9776 13.6152 50.0464 13.6137 50.1172L13.6225 52.7153C13.6225 53.5865 13.9217 54.3111 14.5199 54.8891C15.1182 55.4672 15.8563 55.7557 16.7345 55.7547L19.6117 55.7547C20.4898 55.7547 21.228 55.4662 21.8262 54.8891C22.4245 54.3121 22.7236 53.5875 22.7236 52.7153L22.7236 51.8224C23.2172 52.2494 23.7555 52.4628 24.3384 52.4628C25.1139 52.4628 25.7904 52.084 26.3679 51.3263C26.9385 52.0603 27.648 52.4271 28.4965 52.4266C29.3559 52.4266 30.0294 52.081 30.5171 51.39C30.7758 50.8964 30.9051 50.325 30.9051 49.676L30.9051 47.1682C30.8905 47.1146 30.8691 47.0631 30.8414 47.0149C30.7811 46.9189 30.6756 46.8607 30.5623 46.8609ZM25.5112 42.7302L26.3953 42.7302C26.4769 42.7353 26.5582 42.7165 26.6292 42.6762C26.7344 42.6094 26.799 42.4942 26.801 42.3696L26.801 41.413C26.8003 41.3392 26.7781 41.2672 26.7373 41.2057C26.6725 41.1049 26.561 41.0439 26.4412 41.0436L25.4838 41.0436C25.3838 41.0427 25.2884 41.0854 25.2225 41.1606C25.1495 41.2277 25.1097 41.3236 25.1136 41.4227L25.1136 42.3422C25.1148 42.385 25.121 42.4275 25.1321 42.4688C25.1824 42.6335 25.3395 42.7418 25.5112 42.7302ZM37.1015 54.1584L36.1457 54.1584C36.0455 54.1574 35.9498 54.2001 35.8836 54.2754C35.8111 54.3428 35.7716 54.4385 35.7755 54.5375L35.7755 55.457C35.7763 55.4998 35.7823 55.5423 35.7932 55.5836C35.8446 55.7475 36.0009 55.8553 36.1723 55.845L37.0564 55.845C37.1382 55.8502 37.2197 55.8314 37.2911 55.791C37.396 55.724 37.4602 55.6089 37.4621 55.4844L37.4621 54.5286C37.4617 54.4546 37.4399 54.3823 37.3992 54.3205C37.3339 54.2195 37.2218 54.1584 37.1015 54.1584ZM38.5357 47.2311C38.5375 47.1365 38.5013 47.0451 38.4352 46.9774C38.3691 46.9096 38.2786 46.8711 38.184 46.8706L37.2644 46.8706C37.1512 46.87 37.0456 46.928 36.9853 47.0238C36.9455 47.0825 36.9234 47.1514 36.9216 47.2222L36.9216 49.4138C36.9216 49.8704 36.836 50.1913 36.6647 50.3764C36.4934 50.5615 36.1822 50.6545 35.731 50.6555L35.3394 50.6555C34.792 50.6555 34.4218 50.5864 34.2288 50.4482C33.9884 50.2804 33.8682 49.8265 33.8682 49.0866L33.8682 42.3489L33.8586 42.3489L33.8586 42.2164C33.8573 42.1455 33.8355 42.0766 33.7956 42.0179C33.7353 41.9221 33.6298 41.8641 33.5165 41.8647L32.6095 41.8647C32.5148 41.8653 32.4244 41.9037 32.3583 41.9715C32.2922 42.0392 32.256 42.1306 32.2578 42.2253L32.2578 42.3511L32.2489 42.3511L32.2489 49.8018C32.2489 50.794 32.6006 51.4825 33.304 51.8676C33.7848 52.1301 34.423 52.2676 35.2187 52.28C35.2357 52.28 35.252 52.28 35.2705 52.28L36.2175 52.28C36.8816 52.2914 37.5125 51.9897 37.9204 51.4655C38.335 50.9606 38.5424 50.3502 38.5424 49.6345L38.5424 47.457L38.5335 47.457L38.5357 47.2311ZM53.5815 46.9424C53.7456 47.2566 53.8264 47.6076 53.8162 47.9619L53.8162 50.0906C53.8162 50.6977 53.7125 51.1306 53.5052 51.3893C53.2835 51.6594 53.0056 51.878 52.6908 52.0297C52.3546 52.1975 51.7956 52.2817 51.0137 52.2822C50.2389 52.2889 49.4762 52.0896 48.8036 51.7047C48.4507 52.029 47.9154 52.22 47.1977 52.2777L47.1977 52.2822L46.5313 52.2822C46.0323 52.2822 45.6068 52.1635 45.2549 51.926C44.9029 51.6886 44.723 51.5642 44.7151 51.5529C44.3967 51.313 43.9819 51.1777 43.4705 51.1471L43.1136 51.1471C42.4586 51.1531 42.1309 51.5139 42.1304 52.2296L42.1304 53.1403C42.1304 53.8565 42.4759 54.2174 43.1669 54.2228L53.4586 54.2228C53.5512 54.2195 53.6415 54.2519 53.711 54.3131C53.7802 54.3789 53.8192 54.4702 53.8191 54.5656L53.8191 55.5037C53.8195 55.6171 53.7616 55.7228 53.6659 55.7836C53.6072 55.8233 53.5383 55.8452 53.4674 55.8465L43.2721 55.8465C41.3238 55.8465 40.3497 54.9476 40.3497 53.1499L40.3497 52.237C40.3497 50.3677 41.2937 49.4329 43.1817 49.4324L43.6319 49.4324C44.7331 49.4324 45.6172 49.6967 46.284 50.2253C46.5249 50.5082 46.8045 50.6525 47.1229 50.6585L47.1407 50.6585C47.4832 50.6585 47.736 50.5684 47.8989 50.3882C47.9403 50.346 47.9729 50.2194 47.9884 50.0091L47.9796 49.5493L47.9796 47.8982C47.9773 47.3938 48.1604 46.9061 48.4941 46.5277C48.5956 46.4156 48.7071 46.313 48.8273 46.2212C49.1774 45.9541 49.605 45.8083 50.0453 45.8059L51.7482 45.8059C52.2039 45.8102 52.645 45.9665 53.0017 46.2501C53.1038 46.3306 53.2002 46.4179 53.2905 46.5115C53.4041 46.6431 53.5018 46.7878 53.5815 46.9424ZM52.265 48.1781C52.2615 47.2527 51.6052 46.4583 50.697 46.2803C49.7889 46.1024 48.8813 46.5902 48.5287 47.4459C48.1762 48.3016 48.4767 49.2872 49.2466 49.8006C50.0166 50.3141 51.042 50.2126 51.6964 49.5582C52.0695 49.1972 52.2755 48.6972 52.265 48.1781ZM63.3955 45.797L59.3907 45.797L59.6128 47.3844C62.2827 47.4209 63.6895 47.457 63.8331 47.4925C64.3924 47.6406 64.7591 47.9172 64.9334 48.3225C63.1115 49.3393 62.1134 49.8894 61.9392 49.9729C60.8974 50.4355 59.7686 50.6693 58.6288 50.6585L58.0602 50.6585C57.5133 50.6585 57.1431 50.5894 56.9496 50.4512C56.7092 50.2833 56.589 49.8295 56.589 49.0896L56.589 42.3519L56.589 42.3519L56.589 42.2164C56.5878 42.1455 56.5659 42.0766 56.5261 42.0179C56.4653 41.9222 56.3596 41.8643 56.2462 41.8647L55.3303 41.8647C55.2348 41.864 55.1433 41.9032 55.0778 41.9728C55.0111 42.0395 54.9752 42.131 54.9786 42.2253L54.9786 42.3511L54.9697 42.3511L54.9697 49.8018C54.9697 50.794 55.3214 51.4825 56.0248 51.8676C56.3758 52.0593 56.8133 52.1837 57.3324 52.2422L57.3324 52.2822L57.7418 52.2755C57.8462 52.28 57.9536 52.2822 58.0631 52.2822L58.0631 52.2689C59.1782 52.2447 59.9058 52.2101 60.2459 52.1652C61.2098 52.0492 62.141 51.7426 62.9854 51.2634L66.7015 49.1436C66.6921 46.913 65.5901 45.7975 63.3955 45.797Z" fill="#d84659" fill-rule="evenodd" opacity="1" stroke="none"/>
</g>
</g>
</svg>
