<?xml version="1.0" encoding="UTF-8" standalone="no"?>
<!DOCTYPE svg PUBLIC "-//W3C//DTD SVG 1.1//EN" "http://www.w3.org/Graphics/SVG/1.1/DTD/svg11.dtd">
<!-- Created with Vectornator (http://vectornator.io/) -->
<svg stroke-miterlimit="10" style="fill-rule:nonzero;clip-rule:evenodd;stroke-linecap:round;stroke-linejoin:round;" version="1.1" viewBox="0 0 44 44.9" xml:space="preserve" xmlns="http://www.w3.org/2000/svg" xmlns:xlink="http://www.w3.org/1999/xlink">
<defs/>
<g id="Untitled">
<path d="M13.1663 4.16322C12.6507 4.22051 12.0778 4.33509 11.4476 4.50697C10.8174 4.67884 10.0439 5.02259 9.12728 5.53822C8.21061 6.05384 7.39421 6.68405 6.67806 7.42884C5.96191 8.17363 5.41764 8.87546 5.04525 9.53431C4.67285 10.1932 4.41504 10.7231 4.27181 11.1242C4.12858 11.5252 3.98535 12.1554 3.84212 13.0148C3.69889 13.8742 3.62728 17.0252 3.62728 22.4679C3.62728 27.9106 3.69889 31.0617 3.84212 31.921C3.98535 32.7804 4.25749 33.6541 4.65853 34.5421C5.05957 35.4301 5.43197 36.1033 5.77572 36.5617C6.11947 37.02 6.67806 37.5786 7.4515 38.2374C8.22493 38.8963 8.92676 39.3833 9.55697 39.6984C10.1872 40.0135 10.9033 40.2713 11.7054 40.4718C12.5075 40.6723 15.7731 40.7869 21.5023 40.8156C27.2314 40.8442 30.54 40.7869 31.4281 40.6437C32.3161 40.5005 33.2041 40.2283 34.0921 39.8273C34.9801 39.4262 35.6533 39.0538 36.1117 38.7101C36.57 38.3663 37.1286 37.8077 37.7874 37.0343C38.4463 36.2609 38.9333 35.559 39.2484 34.9288C39.5635 34.2986 39.8213 33.5825 40.0218 32.7804C40.2223 31.9783 40.3369 28.7127 40.3656 22.9835C40.3942 17.2544 40.3369 13.9458 40.1937 13.0577C40.0505 12.1697 39.7783 11.2817 39.3773 10.3937C38.9762 9.50566 38.6038 8.83249 38.2601 8.37415C37.9163 7.91582 37.4437 7.41452 36.8421 6.87025C36.2406 6.32598 35.6104 5.86764 34.9515 5.49525C34.2926 5.12285 33.6481 4.83639 33.0179 4.63587C32.3877 4.43535 31.7432 4.29212 31.0843 4.20618C30.4255 4.12025 27.4033 4.07728 22.0179 4.07728C16.6325 4.07728 13.682 4.10592 13.1663 4.16322ZM22.0179 7.85853C28.0908 7.85853 31.4997 7.98743 32.2445 8.24525C32.9893 8.50306 33.6911 8.91842 34.3499 9.49134C35.0088 10.0643 35.4671 10.5656 35.7249 10.9952C35.9827 11.4249 36.1976 11.9406 36.3695 12.5421C36.5413 13.1437 36.6273 16.4523 36.6273 22.4679C36.6273 28.4835 36.5127 31.8494 36.2835 32.5656C36.0544 33.2817 35.8395 33.7973 35.639 34.1124C35.4385 34.4275 35.1377 34.7856 34.7367 35.1867C34.3356 35.5877 33.9202 35.9171 33.4906 36.1749C33.0609 36.4327 32.5452 36.6476 31.9437 36.8195C31.3421 36.9913 28.0335 37.0773 22.0179 37.0773C16.0023 37.0773 12.6364 36.9627 11.9202 36.7335C11.2041 36.5044 10.6885 36.2895 10.3734 36.089C10.0583 35.8885 9.7002 35.5877 9.29915 35.1867C8.89811 34.7856 8.56868 34.3702 8.31087 33.9406C8.05306 33.5109 7.83822 33.0096 7.66634 32.4367C7.49447 31.8637 7.40853 28.5408 7.40853 22.4679C7.40853 16.395 7.53743 12.9861 7.79525 12.2413C8.05306 11.4965 8.46842 10.7947 9.04134 10.1359C9.61426 9.47702 10.1156 9.01868 10.5452 8.76087C10.9749 8.50306 11.4762 8.28822 12.0492 8.11634C12.6221 7.94447 15.945 7.85853 22.0179 7.85853ZM30.7835 10.6945C30.4971 10.809 30.2393 10.9809 30.0101 11.2101C29.7809 11.4393 29.609 11.6971 29.4945 11.9835C29.3799 12.27 29.3226 12.5564 29.3226 12.8429C29.3226 13.1294 29.3799 13.4158 29.4945 13.7023C29.609 13.9887 29.7809 14.2465 30.0101 14.4757C30.2393 14.7049 30.4971 14.8768 30.7835 14.9913C31.07 15.1059 31.3564 15.1632 31.6429 15.1632C31.9294 15.1632 32.2158 15.1059 32.5023 14.9913C32.7887 14.8768 33.0465 14.7049 33.2757 14.4757C33.5049 14.2465 33.6768 13.9887 33.7913 13.7023C33.9059 13.4158 33.9632 13.1294 33.9632 12.8429C33.9632 12.5564 33.9059 12.27 33.7913 11.9835C33.6768 11.6971 33.5049 11.4393 33.2757 11.2101C33.0465 10.9809 32.7887 10.809 32.5023 10.6945C32.2158 10.5799 31.9294 10.5226 31.6429 10.5226C31.3564 10.5226 31.07 10.5799 30.7835 10.6945ZM20.2562 13.4445C19.6546 13.559 19.0244 13.7596 18.3656 14.046C17.7067 14.3325 17.1051 14.6762 16.5609 15.0773C16.0166 15.4783 15.5869 15.8507 15.2718 16.1945C14.9567 16.5382 14.6702 16.8963 14.4124 17.2687C14.1546 17.6411 13.8825 18.1567 13.596 18.8156C13.3096 19.4744 13.109 20.1046 12.9945 20.7062C12.8799 21.3077 12.8226 21.895 12.8226 22.4679C12.8226 23.0408 12.8799 23.6281 12.9945 24.2296C13.109 24.8312 13.3096 25.4614 13.596 26.1202C13.8825 26.7791 14.2262 27.3807 14.6273 27.9249C15.0283 28.4692 15.4007 28.8989 15.7445 29.214C16.0882 29.5291 16.4463 29.8156 16.8187 30.0734C17.1911 30.3312 17.7067 30.6033 18.3656 30.8898C19.0244 31.1762 19.6546 31.3768 20.2562 31.4913C20.8577 31.6059 21.445 31.6632 22.0179 31.6632C22.5908 31.6632 23.221 31.5916 23.9085 31.4484C24.596 31.3051 25.2262 31.1046 25.7992 30.8468C26.3721 30.589 26.9307 30.2596 27.4749 29.8585C28.0192 29.4575 28.4489 29.0851 28.764 28.7413C29.0791 28.3976 29.3656 28.0395 29.6234 27.6671C29.8812 27.2947 30.1533 26.7791 30.4398 26.1202C30.7262 25.4614 30.9268 24.8312 31.0413 24.2296C31.1559 23.6281 31.2132 23.0408 31.2132 22.4679C31.2132 21.895 31.1559 21.3077 31.0413 20.7062C30.9268 20.1046 30.7262 19.4744 30.4398 18.8156C30.1533 18.1567 29.8096 17.5551 29.4085 17.0109C29.0075 16.4666 28.6208 16.0226 28.2484 15.6788C27.876 15.3351 27.5179 15.0486 27.1742 14.8195C26.8304 14.5903 26.3291 14.3325 25.6702 14.046C25.0114 13.7596 24.3812 13.559 23.7796 13.4445C23.1781 13.3299 22.5908 13.2726 22.0179 13.2726C21.445 13.2726 20.8577 13.3299 20.2562 13.4445ZM22.7913 17.1398C23.5934 17.2544 24.2952 17.4979 24.8968 17.8702C25.4984 18.2426 25.9424 18.6007 26.2288 18.9445C26.5153 19.2882 26.7445 19.632 26.9163 19.9757C27.0882 20.3195 27.2314 20.7492 27.346 21.2648C27.4606 21.7804 27.4606 22.4393 27.346 23.2413C27.2314 24.0434 26.988 24.7452 26.6156 25.3468C26.2432 25.9484 25.8851 26.3924 25.5413 26.6788C25.1976 26.9653 24.8538 27.1945 24.5101 27.3663C24.1663 27.5382 23.7367 27.6814 23.221 27.796C22.7054 27.9106 22.0465 27.9106 21.2445 27.796C20.4424 27.6814 19.7406 27.438 19.139 27.0656C18.5374 26.6932 18.0361 26.2348 17.6351 25.6906C17.234 25.1463 16.9476 24.5447 16.7757 23.8859C16.6038 23.227 16.5752 22.4965 16.6898 21.6945C16.8044 20.8924 17.0479 20.1906 17.4202 19.589C17.7926 18.9874 18.251 18.4861 18.7952 18.0851C19.3395 17.684 19.9411 17.3976 20.5999 17.2257C21.2588 17.0538 21.9893 17.0252 22.7913 17.1398Z" fill="#000000" fill-rule="evenodd" opacity="1" stroke="none"/>
</g>
</svg>
