<?xml version="1.0" encoding="UTF-8" standalone="no"?>
<!DOCTYPE svg PUBLIC "-//W3C//DTD SVG 1.1//EN" "http://www.w3.org/Graphics/SVG/1.1/DTD/svg11.dtd">
<!-- Created with Vectornator (http://vectornator.io/) -->
<svg height="100%" stroke-miterlimit="10" style="fill-rule:nonzero;clip-rule:evenodd;stroke-linecap:round;stroke-linejoin:round;" version="1.1" viewBox="0 0 45.1 41.1" width="100%" xml:space="preserve" xmlns="http://www.w3.org/2000/svg" xmlns:vectornator="http://vectornator.io" xmlns:xlink="http://www.w3.org/1999/xlink">
<defs/>
<g id="insta" vectornator:layerName="insta">
<g opacity="1">
<path d="M16.7989 32.55L27.2127 32.55C30.6636 32.55 33.4606 29.753 33.4606 26.3011L33.4606 15.8873C33.4606 12.4364 30.6636 9.63936 27.2118 9.63936L16.7979 9.63936C13.347 9.63936 10.55 12.4364 10.55 15.8882L10.55 26.3021C10.55 29.753 13.347 32.55 16.7989 32.55Z" fill="none" opacity="1" stroke="#ff0000" stroke-linecap="butt" stroke-linejoin="miter" stroke-width="2"/>
<path d="M22.0053 15.367C18.842 15.367 16.2777 17.9314 16.2777 21.0947C16.2777 24.258 18.842 26.8223 22.0053 26.8223C25.1686 26.8223 27.733 24.258 27.733 21.0947C27.733 17.9314 25.1686 15.367 22.0053 15.367Z" fill="none" opacity="1" stroke="#ff0000" stroke-linecap="butt" stroke-linejoin="miter" stroke-width="2"/>
<path d="M29.1649 12.5032C28.3741 12.5032 27.733 13.1443 27.733 13.9351C27.733 14.7259 28.3741 15.367 29.1649 15.367C29.9557 15.367 30.5968 14.7259 30.5968 13.9351C30.5968 13.1443 29.9557 12.5032 29.1649 12.5032Z" fill="none" opacity="1" stroke="#ff0000" stroke-linecap="butt" stroke-linejoin="miter" stroke-width="2"/>
</g>
</g>
</svg>
