<?xml version="1.0" encoding="UTF-8" standalone="no"?>
<!DOCTYPE svg PUBLIC "-//W3C//DTD SVG 1.1//EN" "http://www.w3.org/Graphics/SVG/1.1/DTD/svg11.dtd">
<!-- Created with Vectornator (http://vectornator.io/) -->
<svg height="100%" stroke-miterlimit="10" style="fill-rule:nonzero;clip-rule:evenodd;stroke-linecap:round;stroke-linejoin:round;" version="1.1" viewBox="0 0 45.1 41.1" width="100%" xml:space="preserve" xmlns="http://www.w3.org/2000/svg" xmlns:xlink="http://www.w3.org/1999/xlink">
<defs/>
<g id="mail">
<g opacity="1">
<path d="M22.55 15.6735C19.8568 15.6735 17.6735 17.8568 17.6735 20.55C17.6735 23.2432 19.8568 25.4265 22.55 25.4265C25.2432 25.4265 27.4265 23.2432 27.4265 20.55C27.4265 17.8568 25.2432 15.6735 22.55 15.6735Z" fill="none" opacity="1" stroke="#ff0000" stroke-linecap="butt" stroke-linejoin="miter" stroke-width="2"/>
<path d="M28.6456 31.5221C28.6456 31.5221 25.2601 31.5221 22.55 31.5221C16.4898 31.5221 11.5779 26.6102 11.5779 20.55C11.5779 14.4898 16.4898 9.57794 22.55 9.57794C28.6102 9.57794 33.5221 14.4898 33.5221 20.55L33.5221 22.3787C33.5221 24.0623 32.1579 25.4265 30.4743 25.4265L30.4743 25.4265C28.7907 25.4265 27.4265 24.0623 27.4265 22.3787L27.4265 20.55" fill="none" opacity="1" stroke="#ff0000" stroke-linecap="butt" stroke-linejoin="miter" stroke-width="2"/>
</g>
</g>
</svg>
