<?xml version="1.0" encoding="UTF-8" standalone="no"?>
<!DOCTYPE svg PUBLIC "-//W3C//DTD SVG 1.1//EN" "http://www.w3.org/Graphics/SVG/1.1/DTD/svg11.dtd">
<!-- Created with Vectornator (http://vectornator.io/) -->
<svg height="100%" stroke-miterlimit="10" style="fill-rule:nonzero;clip-rule:evenodd;stroke-linecap:round;stroke-linejoin:round;" version="1.1" viewBox="0 0 478.861 478.861" width="100%" xml:space="preserve" xmlns="http://www.w3.org/2000/svg" xmlns:vectornator="http://vectornator.io" xmlns:xlink="http://www.w3.org/1999/xlink">
<defs/>
<g id="Untitled" vectornator:layerName="Untitled">
<path d="M155.133 267.881L265.071 267.881L265.071 246.807L155.133 246.807L155.133 267.881ZM155.133 222.22L323.728 222.22L323.728 201.145L155.133 201.145L155.133 222.22ZM155.133 176.559L323.728 176.559L323.728 155.484L155.133 155.484L155.133 176.559ZM98.9346 379.926L98.9346 120.009C98.9346 114.623 101.042 109.764 105.257 105.433C109.472 101.101 114.389 98.9346 120.009 98.9346L358.852 98.9346C364.238 98.9346 369.097 101.101 373.428 105.433C377.76 109.764 379.926 114.623 379.926 120.009L379.926 302.654C379.926 308.039 377.76 312.898 373.428 317.23C369.097 321.562 364.238 323.728 358.852 323.728L155.133 323.728L98.9346 379.926ZM120.009 328.997L146.352 302.654L358.852 302.654L358.852 120.009L120.009 120.009L120.009 328.997ZM120.009 120.009L120.009 328.997L120.009 120.009Z" fill="#ffffff" fill-rule="nonzero" opacity="1" stroke="none"/>
</g>
</svg>
