<?xml version="1.0" encoding="UTF-8" standalone="no"?>
<!DOCTYPE svg PUBLIC "-//W3C//DTD SVG 1.1//EN" "http://www.w3.org/Graphics/SVG/1.1/DTD/svg11.dtd">
<!-- Created with Vectornator (http://vectornator.io/) -->
<svg height="100%" stroke-miterlimit="10" style="fill-rule:nonzero;clip-rule:evenodd;stroke-linecap:round;stroke-linejoin:round;" version="1.1" viewBox="0 0 478.861 478.861" width="100%" xml:space="preserve" xmlns="http://www.w3.org/2000/svg" xmlns:xlink="http://www.w3.org/1999/xlink">
<defs/>
<g id="Untitled">
<g opacity="1">
<path d="M314.826 240.116C309.433 246.086 303.876 251.787 298.185 257.287C298.973 280.127 299.578 301.607 299.703 319.823C289.07 316.466 278.082 315.049 266.735 315.808C265.847 315.865 265.06 316.069 264.319 316.323C259.097 316.355 254.047 320.431 256.38 326.701C261.076 339.303 263.223 354.953 256.005 367.006C247.272 381.586 231.692 381.192 216.883 383.06C207.823 384.198 198.196 383.594 189.062 383.855C181.96 384.055 91.9707 386.246 91.9707 386.6C91.7579 301.32 88.9395 177.356 87.7964 92.0916C156.334 92.389 224.849 94.7422 293.385 93.2763C293.367 98.8539 293.396 104.75 293.467 110.881C299.079 104.842 304.716 98.8447 310.398 92.9274C310.405 91.1965 310.398 89.4649 310.413 87.7347C310.42 86.7966 310.27 85.9685 310.059 85.1883C310.474 80.596 307.772 75.7472 301.888 75.9008C227.66 77.8559 153.447 74.9501 79.2108 74.8317C73.0356 74.8211 70.3299 80.2479 71.0925 85.0079C70.8437 85.8367 70.676 86.7275 70.6866 87.7424C71.8086 176.322 74.8504 303.597 74.949 392.194C74.949 394.176 75.5129 395.795 76.4143 397.069C76.9598 400.826 79.659 404.148 84.5382 404.026C116.624 403.231 148.723 402.713 180.785 401.141C209.358 399.742 244.969 401.617 272.281 392.29C281.951 388.987 290.605 384.106 298.02 377.037C311.576 364.114 316.204 346.768 317.37 328.487C318.494 310.929 316.426 292.516 316.014 276.34C315.711 264.259 315.288 252.184 314.826 240.116ZM271.015 374.608C277.897 362.884 279.618 348.487 276.036 332.89C284.325 333.212 292.498 334.812 300.24 338.093C300.271 338.194 300.293 338.298 300.329 338.391C297.82 356.875 286.124 368.217 271.015 374.608Z" fill="#000000" fill-rule="evenodd" opacity="1" stroke="none"/>
<path d="M366.286 80.5079C365.871 80.0322 365.409 79.6185 365.034 79.3648C362.54 76.9692 359.204 76.459 356.716 78.1533C351.666 81.6123 346.316 85.3751 341.141 89.5896L340.909 89.2781C340.554 88.813 340.143 88.3816 339.895 88.2118C339.129 87.2526 338.216 86.5443 337.254 86.0538C335.099 84.9494 332.662 85.0424 330.84 86.5922C326.228 90.522 319.077 96.7988 310.377 104.513C305.259 109.05 299.619 114.071 293.592 119.449C284.846 127.256 275.348 135.765 265.638 144.465C260.617 148.965 255.553 153.506 250.507 158.032C217.38 187.735 183.13 218.448 169.804 229.795C169.472 230.079 169.167 230.41 168.892 230.795C167.759 231.516 166.936 232.604 166.558 233.884C165.99 234.554 165.576 235.368 165.331 236.307C161.277 251.84 156.223 272.454 153.123 294.156C152.526 298.329 155.245 301.672 157.953 302.975C158.452 303.243 158.939 303.444 159.433 303.583C179.836 309.431 201.108 313.063 222.658 314.383L223.071 314.398C224.236 314.398 225.256 314.08 226.102 313.446C226.512 313.221 226.897 312.953 227.246 312.638C236.352 304.356 255.835 287.142 278.399 267.208C279.703 266.056 281.048 264.867 282.372 263.698C287.461 259.199 292.661 254.604 297.926 249.947C303.48 245.034 309.067 240.092 314.631 235.163C320.354 230.092 326.015 225.068 331.549 220.148C355.917 198.476 377.447 179.119 387.285 169.612C389.11 169.388 390.778 168.22 391.737 166.442C393.025 164.057 392.807 161.117 391.146 158.586L390.574 157.724C395.305 152.651 400.38 148.112 405.193 143.881C405.573 143.545 405.913 143.153 406.217 142.688C408.207 140.702 409.173 137 406.686 133.306C394.065 114.557 380.469 96.7917 366.286 80.5079ZM393.027 135.457C389.678 138.451 385.966 141.881 382.409 145.604C371.487 129.736 359.938 114.293 349.882 101.057C352.949 98.5494 356.381 95.9692 360.486 93.074C371.905 106.488 382.845 120.732 393.027 135.457ZM262.554 166.582C262.73 166.424 262.905 166.267 263.08 166.11C273.806 156.501 284.317 147.088 294.005 138.429C299.889 133.166 305.475 128.179 310.6 123.613C318.913 116.21 326 109.922 331.324 105.252C332.624 104.114 333.859 103.035 334.932 102.101C336.65 104.355 338.36 106.612 340.068 108.874C339.144 109.695 337.996 110.717 336.722 111.846C330.917 116.998 321.719 125.156 310.825 134.814C305.633 139.412 300.064 144.341 294.308 149.438C285.179 157.519 275.591 165.999 266.272 174.231C241.836 195.82 219.345 215.616 212.491 221.436C210.473 223.152 209.872 225.827 210.886 228.59C211.896 231.335 214.603 234.112 217.831 234.112C219.125 234.112 220.356 233.647 221.395 232.762C229.538 225.848 259.53 199.404 288.727 173.581C290.795 171.754 292.849 169.936 294.904 168.122C300.551 163.126 306.091 158.219 311.388 153.529C320.506 145.451 328.856 138.053 335.584 132.083C341.328 126.988 345.906 122.925 348.751 120.396C350.537 122.778 352.319 125.16 354.091 127.548C350.594 130.751 344.424 136.212 333.991 145.239C328.065 150.362 320.775 156.628 311.788 164.299C306.821 168.543 301.31 173.241 295.262 178.378C288.025 184.532 279.977 191.359 271.033 198.923C254.488 212.926 234.921 229.432 211.701 248.964L209.726 250.624C207.7 252.327 207.092 254.994 208.099 257.749C209.103 260.505 211.817 263.292 215.066 263.292C216.352 263.292 217.58 262.831 218.618 261.961L220.297 260.547C242.892 241.54 262.036 225.389 278.309 211.621C284.609 206.292 290.481 201.319 295.935 196.687C301.93 191.6 307.431 186.927 312.48 182.626C315.487 180.063 318.342 177.626 321.038 175.325C345.055 154.811 357.001 144.343 362.609 139.233C363.535 140.514 364.466 141.801 365.39 143.091C357.068 150.476 344.554 161.551 330.596 173.842C324.838 178.917 318.83 184.198 312.77 189.516C307.241 194.365 301.68 199.235 296.211 204.014C289.361 209.994 282.689 215.806 276.452 221.208C259.746 235.677 246.249 247.152 241.523 250.652C239.426 252.206 238.705 254.74 239.59 257.431C240.524 260.258 243.388 263.271 246.848 263.271C248.058 263.271 249.225 262.877 250.23 262.134C254.851 258.712 267.713 247.796 283.617 234.034C287.861 230.359 292.324 226.485 296.912 222.491C302.338 217.76 307.932 212.878 313.536 207.971C326.524 196.6 339.536 185.143 350.555 175.422C360.293 166.831 368.467 159.589 373.685 154.962C374.762 156.54 375.836 158.12 376.906 159.707C371.602 164.785 363.03 172.632 352.513 182.112C341.325 192.198 327.922 204.146 313.89 216.594C308.4 221.463 302.831 226.4 297.244 231.344C291.017 236.856 284.801 242.349 278.7 247.739C275.113 250.914 271.549 254.063 268.074 257.133C248.545 274.39 231.54 289.418 222.766 297.32C207.089 279.107 193.196 259.427 181.431 238.773C195.251 226.858 229.391 196.285 262.554 166.582ZM208.014 299.306C201.672 298.594 195.088 297.606 188.383 296.361C188.276 296.146 188.155 295.928 188.024 295.71C183.223 287.922 177.623 279.805 170.913 270.922C172.177 264.996 173.562 258.973 175.116 252.656C185.022 269.126 196.063 284.783 208.014 299.306ZM171.147 292.624C169.762 292.285 168.377 291.937 166.99 291.58C167.21 290.263 167.434 288.95 167.668 287.643C168.864 289.325 170.018 290.978 171.147 292.624ZM223.076 312.566L223.073 312.523C223.073 312.523 223.073 312.523 223.076 312.523L223.076 312.566Z" fill="#000000" fill-rule="evenodd" opacity="1" stroke="none"/>
</g>
</g>
</svg>
