<?xml version="1.0" encoding="UTF-8" standalone="no"?>
<!DOCTYPE svg PUBLIC "-//W3C//DTD SVG 1.1//EN" "http://www.w3.org/Graphics/SVG/1.1/DTD/svg11.dtd">
<!-- Created with Vectornator (http://vectornator.io/) -->
<svg height="100%" stroke-miterlimit="10" style="fill-rule:nonzero;clip-rule:evenodd;stroke-linecap:round;stroke-linejoin:round;" version="1.1" viewBox="0 0 1106 1900" width="100%" xml:space="preserve" xmlns="http://www.w3.org/2000/svg" xmlns:vectornator="http://vectornator.io" xmlns:xlink="http://www.w3.org/1999/xlink">
<defs>
<path d="M208.36 0L900.64 0C960.486 0 1009 59.5872 1009 133.092L1009 1766.91C1009 1840.41 960.486 1900 900.64 1900L208.36 1900C148.514 1900 100 1840.41 100 1766.91L100 133.092C100 59.5872 148.514 0 208.36 0Z" fill-rule="evenodd" id="Fill"/>
</defs>
<g id="Layer-1" vectornator:layerName="Layer 1">
<use fill="#000000" opacity="1" stroke="none" xlink:href="#Fill"/>
<clipPath id="ClipPath">
<use xlink:href="#Fill"/>
</clipPath>
<g clip-path="url(#ClipPath)">
<g opacity="1">
<path d="M68.8444 1018.18C68.8444 1190.84 68.8444 1363.5 68.8444 1536.16C241.503 1536.16 414.161 1536.16 586.82 1536.16C759.478 1536.16 932.137 1536.16 1104.79 1536.16C1104.79 1363.5 1104.79 1190.84 1104.79 1018.18C1104.79 845.522 1104.79 672.863 1104.79 500.205C932.137 500.205 759.478 500.205 586.82 500.205C414.161 500.205 241.503 500.205 68.8444 500.205C68.8444 672.863 68.8444 845.522 68.8444 1018.18Z" fill="#000000" fill-rule="evenodd" opacity="1" stroke="none"/>
<path d="M491.858 584.616C480.347 585.894 470.115 587.493 461.163 589.412C452.21 591.33 442.777 593.889 432.866 597.086C422.954 600.283 411.763 604.759 399.293 610.515C386.824 616.27 375.953 622.025 366.68 627.78C357.407 633.536 348.295 639.931 339.343 646.965C330.39 653.999 319.359 664.71 306.25 679.098C293.14 693.487 283.868 704.678 278.433 712.671C272.997 720.664 267.402 730.097 261.646 740.968C255.891 751.838 250.776 763.19 246.299 775.02C241.822 786.85 238.306 797.561 235.748 807.153C233.189 816.745 230.951 828.093 229.033 841.205C227.115 854.318 225.995 868.86 225.676 884.85C225.356 900.84 226.475 918.106 229.033 936.647C231.591 955.189 233.989 968.781 236.227 977.414C238.465 986.047 242.143 997.241 247.258 1010.99C252.374 1024.73 257.809 1037.2 263.565 1048.4C269.32 1059.59 275.395 1070.14 281.79 1080.05C288.185 1089.96 295.219 1099.71 302.893 1109.31C310.566 1118.9 319.359 1128.65 329.271 1138.56C339.182 1148.47 348.295 1156.79 356.608 1163.5C364.922 1170.22 375.633 1177.73 388.742 1186.04C401.852 1194.36 414.481 1201.39 426.631 1207.15C438.781 1212.9 449.972 1217.53 460.204 1221.05C470.435 1224.57 480.987 1227.61 491.858 1230.17C502.728 1232.73 515.039 1234.8 528.787 1236.4C542.536 1238 554.686 1238.8 565.237 1238.8C575.789 1238.8 587.939 1238 601.688 1236.4C615.436 1234.8 627.586 1232.73 638.138 1230.17C648.689 1227.61 660.2 1223.93 672.669 1219.14C678.904 1216.74 685.139 1214.34 691.374 1211.94C691.374 1264.22 691.374 1316.5 691.374 1368.77C691.374 1473.33 692.014 1526.56 693.292 1528.48C694.571 1530.4 696.489 1531.52 699.048 1531.84C701.606 1532.16 703.844 1531.2 705.762 1528.96C707.681 1526.73 708.64 1471.89 708.64 1364.46C708.64 1257.02 715.194 1199.16 728.304 1190.84C741.413 1182.52 755.001 1171.82 769.07 1158.71C783.139 1145.59 794.65 1133.12 803.602 1121.3C812.554 1109.47 820.548 1097.15 827.582 1084.37C834.616 1071.58 841.011 1057.19 846.767 1041.2C852.522 1025.21 856.998 1008.75 860.196 991.802C863.393 974.853 865.152 956.311 865.471 936.168C865.791 916.024 864.831 898.116 862.594 882.452C860.356 866.788 856.359 849.522 850.603 830.654C844.848 811.786 837.174 792.928 827.582 774.06C817.99 755.196 807.758 738.409 796.887 723.702C786.017 708.994 776.104 697.004 767.152 687.731C758.199 678.459 749.567 670.305 741.253 663.271C732.94 656.237 724.467 649.682 715.834 643.607C707.201 637.533 698.088 631.777 688.496 626.342C678.904 620.906 664.996 614.512 646.771 607.157C628.545 599.803 610.32 594.208 592.095 590.371C573.87 586.534 557.759 584.383 539.215 583.743C520.67 583.103 503.368 583.337 491.858 584.616Z" fill="#ffffff" fill-rule="evenodd" opacity="1" stroke="none"/>
<path d="M499.052 601.882C481.466 604.44 463.561 608.916 445.336 615.311C427.111 621.706 413.682 627.141 405.049 631.617C396.416 636.094 386.664 642.008 375.793 649.363C364.922 656.717 354.21 665.35 343.659 675.261C333.108 685.173 326.393 692.208 323.516 696.364C320.638 700.52 317.121 704.678 312.964 708.834C308.808 712.99 305.451 717.467 302.893 722.263C300.334 727.059 297.457 731.375 294.26 735.212C291.063 739.049 285.307 749.92 276.994 767.826C268.68 785.731 262.925 799.959 259.728 810.511C256.531 821.062 253.973 831.134 252.054 840.726C250.136 850.318 248.537 861.992 247.258 875.737C245.979 889.483 245.659 899.717 246.299 906.432C246.939 913.146 247.578 916.82 248.217 917.463C248.857 918.106 249.816 923.381 251.095 933.29C252.374 943.199 254.612 953.596 257.809 964.464C261.007 975.332 264.843 986.363 269.32 997.557C273.797 1008.75 278.752 1019.62 284.188 1030.17C289.624 1040.72 296.338 1051.92 304.331 1063.74C312.324 1075.57 319.679 1085.49 326.393 1093.48C333.108 1101.47 339.182 1108.35 344.618 1114.1C350.054 1119.86 357.887 1127.05 368.119 1135.68C378.351 1144.32 387.303 1151.35 394.977 1156.79C402.651 1162.23 412.883 1168.46 425.672 1175.49C438.461 1182.52 450.772 1188.44 462.602 1193.24C474.432 1198.03 484.344 1201.55 492.337 1203.79C500.33 1206.02 509.763 1208.27 520.634 1210.5C531.505 1212.74 542.216 1214.34 552.768 1215.3C563.319 1216.26 574.03 1216.74 584.901 1216.74C595.772 1216.74 605.364 1216.26 613.678 1215.3C621.991 1214.34 630.783 1212.42 640.056 1209.54C649.329 1206.67 658.921 1203.15 668.832 1198.99C678.744 1194.84 691.374 1188.12 706.721 1178.85C722.069 1169.57 737.576 1157.75 753.243 1143.36C768.91 1128.97 781.06 1116.02 789.693 1104.51C798.326 1093 804.881 1083.41 809.357 1075.73C813.834 1068.06 818.63 1058.63 823.745 1047.44C828.861 1036.24 833.498 1023.62 837.654 1009.55C841.81 995.476 844.688 984.128 846.287 975.495C847.886 966.862 849.165 956.791 850.124 945.28C851.083 933.77 851.083 918.585 850.124 899.717C849.165 880.85 845.807 861.992 840.052 843.124C834.297 824.256 827.582 806.99 819.909 791.326C812.235 775.659 803.602 760.792 794.01 746.723C784.418 732.654 772.588 718.266 758.519 703.558C744.45 688.851 728.943 675.261 711.997 662.792C695.051 650.322 683.221 642.169 676.506 638.332C669.792 634.495 660.519 630.018 648.689 624.903C636.859 619.787 621.671 614.512 603.126 609.076C584.582 603.64 571.952 600.443 565.237 599.484C558.523 598.524 542.666 598.253 532.754 598.253C522.842 598.253 516.637 599.323 499.052 601.882Z" fill="#000000" fill-rule="evenodd" opacity="1" stroke="none"/>
<path d="M609.841 674.782C603.446 677.34 598.81 679.897 595.932 682.456C593.055 685.014 590.817 687.571 589.218 690.129C587.619 692.688 586.34 695.086 585.381 697.323C584.422 699.561 583.942 703.239 583.942 708.354C583.942 713.47 584.422 717.946 585.381 721.783C586.34 725.62 588.259 729.457 591.136 733.294C594.014 737.131 597.851 740.648 602.647 743.845C607.443 747.042 611.44 749.121 614.637 750.08C617.834 751.039 622.63 751.519 629.025 751.519C635.42 751.519 640.216 751.039 643.413 750.08C646.61 749.121 650.447 747.202 654.924 744.325C659.4 741.447 663.237 737.61 666.434 732.814C669.631 728.018 671.55 724.021 672.19 720.824C672.829 717.627 672.669 712.99 671.71 706.915C670.751 700.841 669.312 696.204 667.394 693.007C665.475 689.81 662.278 686.292 657.801 682.456C653.325 678.619 649.008 675.901 644.852 674.302C640.696 672.703 635.42 671.744 629.025 671.425C622.63 671.105 616.236 672.224 609.841 674.782Z" fill="#ffffff" fill-rule="evenodd" opacity="1" stroke="none"/>
<path d="M615.116 689.17C610.96 691.088 607.922 693.167 606.004 695.405C604.086 697.643 602.647 699.721 601.688 701.64C600.728 703.558 600.568 707.235 601.208 712.671C601.848 718.107 603.446 722.423 606.004 725.62C608.562 728.817 611.28 731.215 614.157 732.814C617.035 734.413 621.191 735.373 626.627 735.692C632.063 736.011 635.9 735.852 638.138 735.212C640.375 734.573 643.094 733.134 646.291 730.896C649.488 728.658 651.886 726.1 653.485 723.222C655.084 720.344 655.723 716.347 655.403 711.232C655.084 706.117 654.284 702.439 653.005 700.201C651.727 697.963 649.329 695.405 645.811 692.527C642.294 689.65 637.339 687.891 630.944 687.252C624.548 686.612 619.273 687.252 615.116 689.17Z" fill="#000000" fill-rule="evenodd" opacity="1" stroke="none"/>
</g>
</g>
</g>
</svg>
