<?xml version="1.0" encoding="UTF-8" standalone="no"?>
<!DOCTYPE svg PUBLIC "-//W3C//DTD SVG 1.1//EN" "http://www.w3.org/Graphics/SVG/1.1/DTD/svg11.dtd">
<!-- Created with Vectornator (http://vectornator.io/) -->
<svg height="100%" stroke-miterlimit="10" style="fill-rule:nonzero;clip-rule:evenodd;stroke-linecap:round;stroke-linejoin:round;" version="1.1" viewBox="0 0 100 100" width="100%" xml:space="preserve" xmlns="http://www.w3.org/2000/svg" xmlns:xlink="http://www.w3.org/1999/xlink">
<defs/>
<g id="Layer-1">
<g opacity="1">
<path d="M47.2425 9.98416C46.5605 9.99583 45.9525 10.0289 45.4668 10.0828C44.4954 10.1907 43.632 10.3256 42.8765 10.4875C42.1211 10.6494 41.3251 10.8653 40.4887 11.1351C39.6522 11.4049 38.7079 11.7827 37.6556 12.2683C36.6033 12.754 35.6859 13.2397 34.9034 13.7253C34.1209 14.211 33.352 14.7507 32.5965 15.3442C31.841 15.9378 30.9102 16.8417 29.8039 18.0559C28.6976 19.2701 27.9152 20.2145 27.4565 20.889C26.9978 21.5635 26.5256 22.3595 26.0399 23.2769C25.5543 24.1942 25.1226 25.1521 24.7448 26.1504C24.367 27.1487 24.0703 28.0526 23.8544 28.8621C23.6385 29.6716 23.4497 30.6291 23.2878 31.7357C23.1259 32.8422 23.0314 34.0693 23.0045 35.4187C22.9775 36.768 23.0719 38.225 23.2878 39.7897C23.5037 41.3544 23.706 42.5014 23.8949 43.2299C24.0837 43.9584 24.3941 44.903 24.8258 46.063C25.2574 47.2229 25.7162 48.2752 26.2018 49.2198C26.6875 50.1644 27.2001 51.0548 27.7398 51.891C28.2794 52.7272 28.873 53.5504 29.5206 54.3598C30.1681 55.1693 30.9102 55.9925 31.7466 56.8287C32.583 57.6648 33.352 58.3666 34.0535 58.9332C34.7551 59.4999 35.6589 60.1337 36.7652 60.8355C37.8715 61.5372 38.9372 62.1306 39.9625 62.6163C40.9878 63.1019 41.9322 63.4929 42.7956 63.79C43.659 64.087 44.5494 64.3428 45.4668 64.5589C46.3841 64.7751 47.423 64.9499 48.5832 65.0851C49.7434 65.2203 50.7687 65.2874 51.6591 65.2874C52.5495 65.2874 53.5748 65.2203 54.735 65.0851C55.8952 64.9499 56.9205 64.7751 57.8109 64.5589C58.7013 64.3428 59.6727 64.0328 60.725 63.6281C61.2511 63.4257 61.7772 63.2233 62.3034 63.021C62.3034 67.4325 62.3034 71.844 62.3034 76.2555C62.3034 85.0786 62.3574 89.571 62.4653 89.7329C62.5732 89.8948 62.7351 89.9895 62.951 90.0162C63.1668 90.0429 63.3557 89.962 63.5176 89.7734C63.6795 89.5848 63.7604 84.9571 63.7604 75.8913C63.7604 66.8254 64.3135 61.942 65.4198 61.2402C66.5261 60.5384 67.6727 59.635 68.86 58.5285C70.0472 57.422 71.0185 56.3697 71.774 55.3717C72.5294 54.3736 73.204 53.3343 73.7976 52.2553C74.3912 51.1763 74.9308 49.9621 75.4165 48.6127C75.9022 47.2634 76.28 45.8743 76.5498 44.4441C76.8195 43.0137 76.968 41.4491 76.9949 39.7492C77.0219 38.0494 76.941 36.5381 76.7521 35.2163C76.5633 33.8945 76.226 32.4374 75.7403 30.8453C75.2546 29.2531 74.6071 27.6617 73.7976 26.0695C72.9882 24.4775 72.1247 23.061 71.2074 21.8199C70.29 20.5787 69.4535 19.5669 68.6981 18.7844C67.9426 18.0019 67.2141 17.3139 66.5125 16.7203C65.811 16.1267 65.096 15.5736 64.3675 15.0609C63.639 14.5483 62.87 14.0627 62.0606 13.6039C61.2511 13.1452 60.0774 12.6056 58.5394 11.985C57.0015 11.3644 55.4635 10.8923 53.9256 10.5685C52.3876 10.2447 51.0284 10.0609 49.4635 10.0069C48.681 9.97993 47.9246 9.97248 47.2425 9.98416ZM48.9196 11.2312C49.7561 11.2312 51.0925 11.2565 51.6591 11.3375C52.2257 11.4184 53.2915 11.6882 54.8564 12.1469C56.4213 12.6056 57.703 13.0508 58.7013 13.4825C59.6996 13.9142 60.4821 14.292 61.0487 14.6157C61.6154 14.9395 62.6137 15.6276 64.0437 16.6798C65.4738 17.7321 66.7823 18.8789 67.9696 20.12C69.1568 21.3611 70.1551 22.5753 70.9645 23.7625C71.774 24.9498 72.5025 26.2044 73.1501 27.5265C73.7976 28.8483 74.3642 30.3053 74.8499 31.8975C75.3356 33.4897 75.6189 35.0811 75.6998 36.6733C75.7808 38.2655 75.7808 39.5469 75.6998 40.5182C75.6189 41.4895 75.511 42.3395 75.376 43.068C75.2411 43.7965 74.9983 44.7541 74.6475 45.9415C74.2968 47.129 73.9055 48.1942 73.4738 49.1389C73.0422 50.0835 72.6374 50.8792 72.2597 51.5268C71.8819 52.1743 71.3288 52.9838 70.6003 53.9551C69.8718 54.9265 68.8464 56.0192 67.5244 57.2334C66.2023 58.4476 64.8936 59.4456 63.5985 60.2284C62.3034 61.0111 61.2376 61.5777 60.4012 61.9282C59.5648 62.2787 58.7553 62.5758 57.9728 62.8186C57.1903 63.0615 56.4484 63.2233 55.7468 63.3043C55.0453 63.3852 54.2358 63.4257 53.3185 63.4257C52.4011 63.4257 51.4972 63.3852 50.6068 63.3043C49.7164 63.2233 48.8125 63.0882 47.8951 62.8996C46.9778 62.711 46.1818 62.5215 45.5073 62.3329C44.8327 62.1443 43.9963 61.8473 42.998 61.4425C41.9997 61.0378 40.9608 60.5384 39.8816 59.9451C38.8023 59.3517 37.9389 58.8256 37.2913 58.3666C36.6438 57.9077 35.8883 57.3143 35.0249 56.5858C34.1614 55.8573 33.5004 55.2502 33.0417 54.7646C32.583 54.2789 32.0704 53.6985 31.5037 53.0242C30.9371 52.35 30.3165 51.513 29.642 50.5149C28.9675 49.5169 28.4009 48.5723 27.9421 47.6819C27.4834 46.7915 27.0653 45.8743 26.6875 44.9297C26.3097 43.9851 25.9859 43.0542 25.7162 42.1371C25.4464 41.22 25.2574 40.3426 25.1495 39.5064C25.0416 38.6702 24.9607 38.225 24.9067 38.1708C24.8527 38.1166 24.7988 37.8065 24.7448 37.2399C24.6908 36.6733 24.7179 35.8096 24.8258 34.6497C24.9337 33.4897 25.0686 32.5046 25.2305 31.6952C25.3924 30.8857 25.6083 30.0358 25.878 29.1454C26.1478 28.255 26.6335 27.0544 27.3351 25.5433C28.0366 24.0323 28.5223 23.115 28.7921 22.7912C29.0619 22.4674 29.3047 22.1032 29.5206 21.6984C29.7365 21.2937 30.0198 20.9159 30.3705 20.5652C30.7212 20.2145 31.0181 19.8637 31.2609 19.5129C31.5037 19.1622 32.0704 18.5685 32.9608 17.7321C33.8511 16.8957 34.7551 16.1672 35.6724 15.5466C36.5898 14.926 37.4127 14.4269 38.1412 14.0491C38.8698 13.6714 40.003 13.2127 41.5409 12.6731C43.0789 12.1334 44.5899 11.7557 46.0739 11.5398C47.5578 11.3239 48.0832 11.2312 48.9196 11.2312Z" fill="#ffffff" fill-rule="evenodd" opacity="1" stroke="none"/>
<path d="M55.4237 17.6905C54.884 17.9064 54.4928 18.1222 54.25 18.3381C54.0071 18.5539 53.8183 18.7697 53.6834 18.9856C53.5484 19.2015 53.4405 19.4039 53.3596 19.5927C53.2786 19.7816 53.2382 20.0919 53.2382 20.5236C53.2382 20.9553 53.2786 21.333 53.3596 21.6568C53.4405 21.9806 53.6024 22.3044 53.8452 22.6282C54.0881 22.9519 54.4119 23.2488 54.8166 23.5185C55.2213 23.7883 55.5586 23.9637 55.8284 24.0447C56.0982 24.1256 56.5029 24.1661 57.0426 24.1661C57.5822 24.1661 57.987 24.1256 58.2568 24.0447C58.5265 23.9637 58.8503 23.8019 59.2281 23.559C59.6059 23.3162 59.9296 22.9924 60.1994 22.5877C60.4692 22.183 60.6311 21.8457 60.6851 21.5759C60.7391 21.3061 60.7256 20.9148 60.6446 20.4022C60.5637 19.8895 60.4423 19.4982 60.2804 19.2285C60.1185 18.9587 59.8487 18.6618 59.4709 18.3381C59.0932 18.0143 58.7289 17.785 58.3782 17.65C58.0274 17.5151 57.5822 17.4341 57.0426 17.4072C56.5029 17.3802 55.9633 17.4746 55.4237 17.6905Z" fill="#ffffff" fill-rule="evenodd" opacity="1" stroke="none"/>
<path d="M55.8689 18.9047C55.5181 19.0666 55.2618 19.242 55.0999 19.4308C54.938 19.6197 54.8166 19.7951 54.7356 19.957C54.6547 20.1188 54.6412 20.4291 54.6952 20.8878C54.7492 21.3465 54.884 21.7108 55.0999 21.9806C55.3158 22.2504 55.5451 22.4527 55.7879 22.5877C56.0308 22.7226 56.3815 22.8036 56.8402 22.8305C57.2989 22.8575 57.6227 22.844 57.8116 22.79C58.0004 22.7361 58.2298 22.6146 58.4996 22.4258C58.7694 22.2369 58.9717 22.0211 59.1067 21.7782C59.2416 21.5354 59.2955 21.1981 59.2686 20.7664C59.2416 20.3347 59.1741 20.0244 59.0662 19.8355C58.9583 19.6467 58.7559 19.4308 58.4591 19.188C58.1623 18.9451 57.7441 18.7968 57.2045 18.7428C56.6648 18.6888 56.2196 18.7428 55.8689 18.9047Z" fill="#ffffff" fill-rule="evenodd" opacity="1" stroke="none"/>
</g>
</g>
</svg>
