<?xml version="1.0" encoding="UTF-8" standalone="no"?>
<!DOCTYPE svg PUBLIC "-//W3C//DTD SVG 1.1//EN" "http://www.w3.org/Graphics/SVG/1.1/DTD/svg11.dtd">
<!-- Created with Vectornator (http://vectornator.io/) -->
<svg stroke-miterlimit="10" style="fill-rule:nonzero;clip-rule:evenodd;stroke-linecap:round;stroke-linejoin:round;" version="1.1" viewBox="0 0 100 100" xml:space="preserve" xmlns="http://www.w3.org/2000/svg" xmlns:xlink="http://www.w3.org/1999/xlink">
<defs/>
<clipPath id="ArtboardFrame">
<rect height="100" width="100" x="0" y="0"/>
</clipPath>
<g clip-path="url(#ArtboardFrame)" id="Layer-2">
<path d="M0 0L100 0L100 100L0 100L0 0Z" fill="#ffffff" fill-rule="evenodd" opacity="1" stroke="none"/>
</g>
<g clip-path="url(#ArtboardFrame)" id="Layer-1">
<path d="M-0.352232 50C-0.352232 22.3858 22.0335 0 49.6478 0C77.262 0 99.6478 22.3858 99.6478 50C99.6478 77.6142 77.262 100 49.6478 100C22.0335 100-0.352232 77.6142-0.352232 50Z" fill="none" fill-rule="evenodd" opacity="0" stroke="#faa0a0" stroke-linecap="round" stroke-linejoin="round" stroke-width="1"/>
<path d="M43.8083 17.5411L54.0491 17.5411L54.0491 23.6299L43.8083 23.6299L43.8083 17.5411Z" fill="#924660" fill-opacity="0.2" fill-rule="evenodd" opacity="1" stroke="none"/>
<path d="M43.8083 23.6299L59.0943 23.6299L59.0943 29.7188L43.8083 29.7188L43.8083 23.6299Z" fill="#924660" fill-opacity="0.25" fill-rule="evenodd" opacity="1" stroke="none"/>
<path d="M43.8083 29.7188L62.0108 29.7188C62.0108 29.7188 62.1273 35.8076 62.0108 35.8076C61.8944 35.8076 43.8083 35.8076 43.8083 35.8076L43.8083 29.7188Z" fill="#924660" fill-opacity="0.3" fill-rule="evenodd" opacity="1" stroke="none"/>
<path d="M37.6738 35.8076L61.7711 35.8076L61.7711 41.8965L37.6738 41.8965L37.6738 35.8076Z" fill="#924660" fill-opacity="0.35" fill-rule="evenodd" opacity="1" stroke="none"/>
<path d="M37.6738 41.8965L61.6831 41.8965L61.6831 47.9853L37.6738 47.9853L37.6738 41.8965Z" fill="#924660" fill-opacity="0.4" fill-rule="evenodd" opacity="1" stroke="none"/>
<path d="M31.2809 47.9853L61.6283 47.9853L61.6283 54.0741L31.2809 54.0741L31.2809 47.9853Z" fill="#924660" fill-opacity="0.45" fill-rule="evenodd" opacity="1" stroke="none"/>
<path d="M31.2855 54.0741L66.8888 54.0741L66.8888 60.163L31.2809 60.163L31.2855 54.0741Z" fill="#924660" fill-opacity="0.5" fill-rule="evenodd" opacity="1" stroke="none"/>
<path d="M31.2809 60.163L69.6503 60.163L69.6503 66.2518L31.2809 66.2518L31.2809 60.163Z" fill="#924660" fill-opacity="0.6" fill-rule="evenodd" opacity="1" stroke="none"/>
<path d="M31.2809 66.2518L72.2498 66.2518L72.2498 72.3407L31.2809 72.3407L31.2809 66.2518Z" fill="#924660" fill-opacity="0.7" fill-rule="evenodd" opacity="1" stroke="none"/>
<path d="M31.2809 72.3407L72.2194 72.3407L72.2194 78.4295L31.2809 78.4295L31.2809 72.3407Z" fill="#924660" fill-opacity="0.8" fill-rule="evenodd" opacity="1" stroke="none"/>
<path d="M27.3522 78.4295L72.6478 78.4295L72.6478 84.5184L27.3522 84.5184L27.3522 78.4295Z" fill="#924660" fill-opacity="0.9" fill-rule="evenodd" opacity="1" stroke="none"/>
<path d="M48.5187 11.4816L54.0678 11.4816L54.0678 17.5705L48.5187 17.5705L48.5187 11.4816Z" fill="#924660" fill-opacity="0.15" fill-rule="evenodd" opacity="1" stroke="none"/>
</g>
</svg>
