<?xml version="1.0" encoding="UTF-8" standalone="no"?>
<!DOCTYPE svg PUBLIC "-//W3C//DTD SVG 1.1//EN" "http://www.w3.org/Graphics/SVG/1.1/DTD/svg11.dtd">
<!-- Created with Vectornator (http://vectornator.io/) -->
<svg height="100%" stroke-miterlimit="10" style="fill-rule:nonzero;clip-rule:evenodd;stroke-linecap:round;stroke-linejoin:round;" version="1.1" viewBox="0 0 45.1 41.1" width="100%" xml:space="preserve" xmlns="http://www.w3.org/2000/svg" xmlns:vectornator="http://vectornator.io" xmlns:xlink="http://www.w3.org/1999/xlink">
<defs/>
<g id="tel" vectornator:layerName="tel">
<g opacity="1">
<path d="M32.4553 10.6237C31.7627 10.8965 17.1488 17.0515 12.1162 19.1693C11.8221 19.2925 11.2402 19.481 11.2402 20.0944C11.2402 20.5871 11.6185 20.8309 12.0546 21.0044C12.9068 21.3438 15.5274 22.392 16.6674 22.8483C17.0106 22.9853 17.2745 23.2655 17.3914 23.6162C17.7911 24.814 18.7199 27.6043 18.9537 28.3434C19.2541 29.2936 19.4954 29.3162 19.4954 29.3162C19.5621 29.3451 19.6274 29.3564 19.6877 29.3564C19.8813 29.3564 20.0296 29.2433 20.0296 29.2433L22.9569 26.7672C23.4421 26.3575 24.156 26.3726 24.6223 26.8037L28.2359 30.1458C28.2359 30.1458 28.6758 30.6045 29.1622 30.6045C29.7542 30.6045 30.1828 30.0138 30.2582 29.6304C30.3613 29.095 33.7976 11.8404 33.7976 11.8404C34.1093 10.449 33.1855 10.3359 32.4553 10.6237Z" fill="none" opacity="1" stroke="#ff0000" stroke-linecap="butt" stroke-linejoin="miter" stroke-width="2"/>
<path d="M28.5815 15.5231C28.4244 15.5231 28.212 15.6727 28.0989 15.743C26.48 16.7523 18.363 21.3714 16.137 22.6358C16.7642 22.8872 17.2066 23.0644 17.2066 23.0644C17.2066 23.0644 18.6533 27.3944 18.9537 28.3434C19.2541 29.2936 19.4954 29.3162 19.4954 29.3162C19.5621 29.3451 19.6274 29.3564 19.6877 29.3564C19.7368 29.3564 19.7707 29.3388 19.8122 29.3275L21.2915 23.5358C21.2915 23.5358 28.0322 16.7134 28.4382 16.3162C28.765 15.9982 28.8329 15.8863 28.8329 15.7757C28.8329 15.6287 28.7562 15.5231 28.5815 15.5231Z" fill="#ffffff" fill-rule="evenodd" opacity="1" stroke="#ff0000" stroke-linecap="butt" stroke-linejoin="miter" stroke-width="2"/>
</g>
</g>
</svg>
