<?xml version="1.0" encoding="UTF-8" standalone="no"?>
<!DOCTYPE svg PUBLIC "-//W3C//DTD SVG 1.1//EN" "http://www.w3.org/Graphics/SVG/1.1/DTD/svg11.dtd">
<!-- Created with Vectornator (http://vectornator.io/) -->
<svg height="100%" stroke-miterlimit="10" style="fill-rule:nonzero;clip-rule:evenodd;stroke-linecap:round;stroke-linejoin:round;" version="1.1" viewBox="0 0 100 100" width="100%" xml:space="preserve" xmlns="http://www.w3.org/2000/svg" xmlns:xlink="http://www.w3.org/1999/xlink">
<defs/>
<g id="Layer-1">
<g opacity="1">
<path d="M73.593 26.3268C71.9446 26.9781 25.1555 46.7052 25.1555 46.7052C25.1555 46.7052 22.8895 47.48 23.0692 48.9106C23.2488 50.3412 25.0971 50.9969 25.0971 50.9969L37.1391 55.0506C37.1391 55.0506 40.7751 66.9736 41.4915 69.2374C42.2079 71.5034 42.7806 71.5573 42.7806 71.5573C43.4453 71.847 44.054 71.3843 44.054 71.3843L51.8357 64.2899L63.9652 73.5897C67.2441 75.0203 68.4366 72.0401 68.4366 72.0401L76.7933 29.2261C77.5344 25.9113 75.3335 25.6418 73.593 26.3268Z" fill="none" fill-rule="evenodd" opacity="1" stroke="#000000" stroke-linecap="butt" stroke-linejoin="miter" stroke-width="2"/>
<path d="M67.6596 36.6912C67.7202 35.6783 66.3076 36.4015 66.3076 36.4015L36.8921 54.6217C36.8921 54.6217 40.7751 66.9736 41.4915 69.2396C42.2057 71.5056 43.1848 71.8919 43.1848 71.8919L45.3812 57.914C45.3812 57.914 66.1706 38.5395 67.0645 37.704C67.9583 36.8708 67.6596 36.6912 67.6596 36.6912Z" fill="#000000" fill-rule="evenodd" opacity="1" stroke="none"/>
</g>
</g>
</svg>
