<?xml version="1.0" encoding="UTF-8" standalone="no"?>
<!DOCTYPE svg PUBLIC "-//W3C//DTD SVG 1.1//EN" "http://www.w3.org/Graphics/SVG/1.1/DTD/svg11.dtd">
<!-- Created with Vectornator (http://vectornator.io/) -->
<svg height="100%" stroke-miterlimit="10" style="fill-rule:nonzero;clip-rule:evenodd;stroke-linecap:round;stroke-linejoin:round;" version="1.1" viewBox="0 0 100 100" width="100%" xml:space="preserve" xmlns="http://www.w3.org/2000/svg" xmlns:vectornator="http://vectornator.io" xmlns:xlink="http://www.w3.org/1999/xlink">
<defs/>
<g id="Layer-1" vectornator:layerName="Layer-1">
<path d="M42.4341 75.7852L52.0979 66.3313L65.9601 76.9595C69.7074 78.5945 71.0703 75.1886 71.0703 75.1886L80.6207 26.2585C81.4677 22.4702 78.9524 22.1622 76.9633 22.9451C75.0794 23.6894 21.6064 46.2346 21.6064 46.2346C21.6064 46.2346 19.0167 47.12 19.2221 48.755C19.4273 50.39 21.5397 51.1393 21.5397 51.1393L35.3019 55.7721C35.3019 55.7721 39.4573 69.3983 40.276 71.9855C41.0948 74.5752 41.7493 74.6368 41.7493 74.6368C42.5089 74.9679 43.6997 75.2709 43.6997 75.2709" fill="none" fill-rule="evenodd" opacity="1" stroke="#000000" stroke-linecap="butt" stroke-linejoin="miter" stroke-width="3"/>
<path d="M70.1823 34.79C70.2515 33.6324 68.6371 34.459 68.6371 34.459L35.0196 55.2819C35.0196 55.2819 39.4573 69.3983 40.276 71.988C41.0923 74.5777 42.2112 75.0192 42.2112 75.0192L44.7214 59.0445C44.7214 59.0445 68.4806 36.9024 69.5022 35.9475C70.5236 34.9953 70.1823 34.79 70.1823 34.79Z" fill="#000000" fill-rule="evenodd" opacity="1" stroke="#000000" stroke-linecap="butt" stroke-linejoin="miter" stroke-width="3"/>
</g>
</svg>
