<?xml version="1.0" encoding="UTF-8" standalone="no"?>
<!DOCTYPE svg PUBLIC "-//W3C//DTD SVG 1.1//EN" "http://www.w3.org/Graphics/SVG/1.1/DTD/svg11.dtd">
<!-- Created with Vectornator (http://vectornator.io/) -->
<svg height="100%" stroke-miterlimit="10" style="fill-rule:nonzero;clip-rule:evenodd;stroke-linecap:round;stroke-linejoin:round;" version="1.1" viewBox="0 0 510 510" width="100%" xml:space="preserve" xmlns="http://www.w3.org/2000/svg" xmlns:xlink="http://www.w3.org/1999/xlink">
<defs/>
<g id="Layer-1">
<path d="M1 255C1 114.72 114.72 1 255 1C395.28 1 509 114.72 509 255C509 395.28 395.28 509 255 509C114.72 509 1 395.28 1 255Z" fill="#000000" fill-rule="nonzero" opacity="1" stroke="none"/>
<path d="M177.716 79.5324C174.464 79.588 171.566 79.7456 169.251 80.0026C164.62 80.5169 160.504 81.16 156.903 81.9318C153.302 82.7036 149.507 83.7328 145.52 85.0189C141.532 86.3051 137.031 88.106 132.015 90.4209C126.998 92.7362 122.625 95.0516 118.895 97.3664C115.165 99.6818 111.499 102.255 107.898 105.084C104.296 107.913 99.8592 112.222 94.5855 118.01C89.3117 123.799 85.582 128.301 83.3954 131.516C81.2088 134.731 78.9578 138.526 76.6424 142.899C74.3276 147.272 72.2696 151.838 70.4687 156.597C68.6677 161.356 67.2533 165.665 66.2241 169.524C65.1949 173.383 64.2949 177.947 63.5231 183.222C62.7513 188.497 62.3009 194.347 62.1726 200.779C62.0439 207.211 62.4939 214.157 63.5231 221.616C64.5523 229.075 65.5167 234.543 66.4172 238.015C67.3172 241.488 68.7969 245.991 70.8548 251.521C72.9122 257.05 75.0993 262.066 77.4142 266.569C79.7295 271.072 82.1731 275.317 84.7459 279.303C87.3182 283.289 90.1479 287.213 93.235 291.072C96.3216 294.931 99.8592 298.855 103.846 302.841C107.833 306.827 111.499 310.172 114.843 312.873C118.188 315.575 122.496 318.596 127.77 321.942C133.044 325.287 138.124 328.115 143.012 330.431C147.899 332.745 152.401 334.609 156.517 336.026C160.633 337.441 164.878 338.661 169.251 339.691C173.624 340.722 178.576 341.555 184.107 342.199C189.637 342.844 194.525 343.164 198.77 343.164C203.014 343.164 207.902 342.844 213.432 342.199C218.963 341.555 223.851 340.722 228.095 339.691C232.34 338.661 236.971 337.183 241.987 335.254C244.495 334.289 247.003 333.324 249.511 332.36C249.511 353.39 249.511 374.419 249.511 395.449C249.511 437.509 249.769 458.924 250.283 459.696C250.797 460.468 251.569 460.919 252.598 461.046C253.627 461.174 254.527 460.788 255.299 459.889C256.071 458.99 256.457 436.93 256.457 393.713C256.457 350.495 259.093 327.216 264.367 323.871C269.641 320.525 275.107 316.219 280.767 310.944C286.426 305.669 291.056 300.653 294.658 295.896C298.259 291.138 301.474 286.183 304.304 281.04C307.134 275.896 309.706 270.108 312.021 263.675C314.337 257.243 316.138 250.621 317.424 243.803C318.71 236.985 319.418 229.526 319.546 221.423C319.674 213.32 319.289 206.115 318.388 199.814C317.488 193.513 315.88 186.567 313.565 178.978C311.25 171.388 308.163 163.801 304.304 156.211C300.446 148.622 296.329 141.87 291.957 135.954C287.583 130.037 283.596 125.213 279.995 121.483C276.393 117.753 272.921 114.473 269.576 111.644C266.232 108.814 262.824 106.177 259.351 103.733C255.878 101.29 252.212 98.9748 248.354 96.7877C244.495 94.6011 238.9 92.0288 231.568 89.0704C224.237 86.112 216.905 83.8615 209.574 82.3179C202.242 80.7744 195.763 79.8982 188.303 79.6408C184.573 79.5122 180.967 79.4767 177.716 79.5324ZM185.71 85.477C241.662 85.8326 288.575 124.678 307.512 178.422C329.865 241.861 287.717 323.951 218.256 333.71C200.977 336.138 180.22 332.411 164.042 327.344C76.919 300.057 40.3348 189.949 104.425 121.58C126.943 97.5581 154.042 85.2758 185.71 85.477Z" fill="#ffffff" fill-rule="evenodd" opacity="1" stroke="none"/>
<path d="M218.838 122.057C217.165 122.829 215.944 123.665 215.172 124.565C214.4 125.465 213.821 126.301 213.435 127.073C213.05 127.844 212.985 129.324 213.243 131.51C213.5 133.697 214.143 135.433 215.172 136.72C216.201 138.006 217.294 138.97 218.452 139.614C219.61 140.257 221.281 140.643 223.468 140.771C225.655 140.9 227.198 140.835 228.099 140.578C228.999 140.321 230.092 139.742 231.378 138.842C232.664 137.941 233.629 136.913 234.272 135.755C234.915 134.597 235.172 132.989 235.044 130.931C234.915 128.874 234.594 127.394 234.079 126.494C233.565 125.594 232.6 124.565 231.185 123.407C229.77 122.249 227.777 121.542 225.205 121.285C222.632 121.028 220.51 121.285 218.838 122.057Z" fill="none" opacity="1" stroke="#ffffff" stroke-linecap="butt" stroke-linejoin="miter" stroke-width="5"/>
<path d="M328.516 205C359.952 197.914 391.387 190.829 422.823 183.743C433.265 181.39 443.706 179.036 454.148 176.682C456.208 176.218 458.267 175.754 460.326 175.29C460.827 175.177 468.889 173.36 467.059 173.772" fill="none" opacity="0" stroke="#ffffff" stroke-linecap="round" stroke-linejoin="miter" stroke-width="10.3216"/>
<path d="M255.086 368.875C279.771 368.875 315.846 340.865 345.462 306.134C379.46 266.264 399.783 226.275 389.759 200.896" fill="none" opacity="1" stroke="#ffffff" stroke-linecap="round" stroke-linejoin="miter" stroke-width="4.32163"/>
<path d="M254.449 336.627C271.601 336.627 296.667 317.164 317.246 293.032C340.869 265.329 358.579 231.472 351.614 213.837" fill="none" opacity="1" stroke="#ffffff" stroke-linecap="round" stroke-linejoin="miter" stroke-width="4.32163"/>
<g opacity="1">
<path d="M314.975 218.638L401.096 191.339" fill="none" opacity="1" stroke="#ffffff" stroke-linecap="round" stroke-linejoin="round" stroke-width="12"/>
<path d="M314.975 218.638L299.777 223.456L296.565 213.324C301.631 211.718 303.237 216.784 313.369 213.572L314.975 218.638ZM314.975 218.638L299.777 223.456L302.989 233.587C308.055 231.982 306.449 226.916 316.581 223.704L314.975 218.638Z" fill="#000000" fill-rule="nonzero" opacity="1" stroke="#ffffff" stroke-linecap="round" stroke-linejoin="round" stroke-width="12"/>
<path d="M302.989 233.587L296.565 213.324" fill="none" opacity="1" stroke="#ffffff" stroke-linecap="round" stroke-linejoin="round" stroke-width="6"/>
<path d="M401.096 191.339L436.558 180.098L446.193 210.493C442.981 200.361 417.9 191.587 402.702 196.405L401.096 191.339Z" fill="#ffffff" fill-rule="nonzero" opacity="1" stroke="#ffffff" stroke-linecap="round" stroke-linejoin="round" stroke-width="12"/>
<path d="M401.096 191.339L436.558 180.098L426.923 149.702C428.529 154.768 414.688 181.455 399.49 186.273L401.096 191.339Z" fill="#ffffff" fill-rule="nonzero" opacity="1" stroke="#ffffff" stroke-linecap="round" stroke-linejoin="round" stroke-width="12"/>
<path d="M431.989 148.096L451.259 208.887M360.569 204.185C340.984 210.394 327.623 223.365 330.727 233.157C333.831 242.95 352.225 245.855 371.81 239.647C391.394 233.439 404.755 220.468 401.651 210.675C398.547 200.883 380.154 197.977 360.569 204.185Z" fill="none" opacity="1" stroke="#ffffff" stroke-linecap="round" stroke-linejoin="round" stroke-width="12"/>
</g>
</g>
</svg>
