<?xml version="1.0" encoding="UTF-8" standalone="no"?>
<!DOCTYPE svg PUBLIC "-//W3C//DTD SVG 1.1//EN" "http://www.w3.org/Graphics/SVG/1.1/DTD/svg11.dtd">
<!-- Created with Vectornator (http://vectornator.io/) -->
<svg height="100%" stroke-miterlimit="10" style="fill-rule:nonzero;clip-rule:evenodd;stroke-linecap:round;stroke-linejoin:round;" version="1.1" viewBox="0 0 510 510" width="100%" xml:space="preserve" xmlns="http://www.w3.org/2000/svg" xmlns:xlink="http://www.w3.org/1999/xlink">
<defs/>
<g id="Layer-1">
<path d="M0 0L510 0L510 510L0 510L0 0Z" fill="#ffffff" fill-rule="nonzero" opacity="1" stroke="none"/>
<g opacity="1">
<path d="M260.047 153.005L243.659 153.005C243.659 108.773 269.872 82.5197 270.708 81.7248L282.163 93.1801L276.436 87.4525L282.163 93.1801C282.163 93.1801 260.047 116.132 260.047 153.005Z" fill="#795548" fill-rule="nonzero" opacity="1" stroke="none"/>
<path d="M260.047 153.005C260.047 157.938 256.786 161.199 251.853 161.199C246.921 161.199 243.659 157.938 243.659 153.005C243.659 148.072 246.921 144.811 251.853 144.811C256.786 144.811 260.047 148.072 260.047 153.005Z" fill="#795548" fill-rule="nonzero" opacity="1" stroke="none"/>
<path d="M350.772 200.637C350.133 198.31 349.469 195.95 348.592 193.696C333.204 150.104 289.267 119.991 239.169 126.128C192.234 131.881 154.68 170.638 150.149 217.713C148.166 238.362 152.378 257.839 161.08 274.637C167.34 286.723 172.912 299.186 175.895 312.477C178.877 325.768 180.688 339.321 181.409 352.923C181.696 358.462 181.811 364.026 181.729 369.573C181.286 400.907 206.975 428.005 240.087 428.267C240.316 428.267 240.537 428.267 240.767 428.267C306.794 428.267 360.326 354.734 360.326 264.018C360.326 241.476 356.77 220.179 350.772 200.637Z" fill="#ffc400" fill-rule="nonzero" opacity="1" stroke="none"/>
<path d="M350.772 200.637C350.133 198.31 349.469 195.941 348.592 193.696C342.209 175.62 330.868 159.921 316.267 148.105C320.2 154.398 323.535 161.1 326.05 168.213C326.927 170.466 327.591 172.826 328.23 175.153C334.236 194.696 337.784 215.992 337.784 238.542C337.784 329.25 284.253 402.792 218.225 402.792C217.996 402.792 217.774 402.792 217.545 402.792C206.213 402.702 195.798 399.416 186.957 393.95C196.027 413.755 216.07 428.087 240.095 428.275C240.324 428.275 240.546 428.275 240.775 428.275C306.803 428.275 360.334 354.742 360.334 264.026C360.326 241.476 356.77 220.179 350.772 200.637Z" fill="#ffab00" fill-rule="nonzero" opacity="1" stroke="none"/>
</g>
</g>
<g id="Xonyagar">
<path d="M64.2943 411.827C63.3102 411.827 62.3515 411.869 61.4626 411.98C60.5737 412.091 59.8175 412.242 59.1667 412.401C58.5159 412.56 57.8528 412.759 57.1385 413.013C56.4242 413.267 55.5719 413.64 54.6512 414.085C53.7306 414.529 52.9743 414.951 52.3552 415.348C51.7362 415.745 51.144 416.172 50.5567 416.649C49.9694 417.125 49.3903 417.646 48.8347 418.218C48.2792 418.789 47.6711 419.445 47.0362 420.207C46.4013 420.969 45.9248 421.655 45.5438 422.274C45.1629 422.893 44.7833 423.588 44.4341 424.302C44.0849 425.016 43.7408 425.773 43.4392 426.598C43.1376 427.423 42.925 428.195 42.7504 428.894C42.5758 429.592 42.4182 430.435 42.2912 431.419C42.1642 432.404 42.0775 433.395 42.0616 434.442C42.0457 435.49 42.097 436.449 42.1764 437.274C42.2558 438.099 42.3779 438.92 42.5208 439.761C42.6636 440.603 42.8343 441.388 43.0565 442.134C43.2787 442.88 43.5492 443.71 43.8984 444.583C44.2476 445.456 44.6756 446.37 45.1994 447.338C45.7232 448.306 46.3024 449.22 46.9214 450.093C47.5405 450.966 48.1065 451.674 48.5669 452.198C49.0272 452.722 49.6548 453.372 50.4802 454.15C51.3056 454.927 52.1132 455.584 52.891 456.14C53.6688 456.695 54.4185 457.203 55.1487 457.632C55.8788 458.061 56.6575 458.437 57.4829 458.818C58.3083 459.199 59.1355 459.527 60.0085 459.813C60.8815 460.099 61.7535 460.365 62.6106 460.54C63.4678 460.715 64.4265 460.827 65.4423 460.923C66.4582 461.018 67.2854 461.053 67.9679 461.038C68.6505 461.022 69.5513 460.951 70.6466 460.808C71.7418 460.665 72.6427 460.524 73.3252 460.349C74.0077 460.174 74.7929 459.917 75.6977 459.583C76.1501 459.417 76.5847 459.253 77.037 459.086C77.0291 461.356 77.045 463.628 77.037 465.897C77.0212 470.437 77.0053 474.315 77.037 477.569C77.0688 480.823 77.0977 482.531 77.1136 482.658C77.1294 482.785 77.1808 482.84 77.2284 482.888C77.276 482.935 77.3599 482.971 77.5345 483.002C77.7091 483.034 77.8826 483.044 77.9937 482.964C78.1048 482.885 78.1533 482.634 78.185 482.237C78.2168 481.84 78.2522 479.06 78.2998 473.933C78.3474 468.806 78.6496 466.229 79.1417 466.165C79.6338 466.102 80.1905 465.951 80.8254 465.744C81.4603 465.538 82.1392 465.29 82.8535 464.941C83.5678 464.592 84.2887 464.154 85.0347 463.678C85.7808 463.202 86.524 462.703 87.2542 462.147C87.9843 461.592 88.7117 460.977 89.4736 460.311C90.2355 459.644 91.3229 458.585 92.688 457.173C94.0531 455.76 95.1955 454.489 96.132 453.346C97.0685 452.203 97.9954 450.955 98.9637 449.558C99.9319 448.161 100.711 446.909 101.298 445.846C101.885 444.782 102.329 443.939 102.599 443.32C102.869 442.701 103.062 442.215 103.173 441.866C103.284 441.517 103.577 441.205 104.053 440.871C104.529 440.538 104.899 440.194 105.201 439.876C105.503 439.559 105.747 439.317 105.89 439.111C106.033 438.905 106.174 438.538 106.349 438.078C106.524 437.618 106.617 437.241 106.617 436.892C106.617 436.542 106.559 436.221 106.464 435.935C106.369 435.649 106.256 435.385 106.081 435.131C105.994 435.004 105.901 434.875 105.813 434.749C105.956 434.717 106.091 434.666 106.234 434.634C106.52 434.57 106.819 434.535 107.153 434.519C107.486 434.503 107.872 434.51 108.301 434.557C108.729 434.605 109.173 434.714 109.602 434.825C110.03 434.936 110.474 435.056 110.903 435.246C111.331 435.437 111.66 435.623 111.898 435.782C112.136 435.94 112.306 436.098 112.433 436.241C112.56 436.384 112.66 436.548 112.74 436.738C112.819 436.929 112.97 437.071 113.161 437.198C113.351 437.325 113.544 437.389 113.734 437.389C113.925 437.389 114.073 437.37 114.232 437.274C114.391 437.179 114.577 437.099 114.768 437.083C114.958 437.067 115.093 437.054 115.189 437.006C115.284 436.959 115.406 436.843 115.533 436.7C115.66 436.557 115.731 436.38 115.763 436.126C115.794 435.872 115.186 433.822 113.964 429.965C112.742 426.108 112.056 424.094 111.898 423.919C111.739 423.745 111.562 423.622 111.324 423.575C111.086 423.527 110.893 423.527 110.75 423.575C110.607 423.622 110.507 423.664 110.444 423.728C110.38 423.792 110.229 423.827 110.023 423.843C109.816 423.858 109.623 423.945 109.449 424.072C109.274 424.199 109.168 424.357 109.104 424.531C109.041 424.706 109.012 424.87 109.028 425.029C109.044 425.188 109.037 425.329 108.989 425.488C108.942 425.647 108.82 425.911 108.645 426.292C108.47 426.673 108.255 427.075 108.033 427.44C107.811 427.805 107.582 428.117 107.344 428.435C107.106 428.752 106.813 429.119 106.464 429.468C106.115 429.817 105.844 430.036 105.622 430.195C105.4 430.354 105.194 430.498 104.971 430.578C104.749 430.657 104.556 430.734 104.398 430.845C104.239 430.957 104.094 431.108 104.015 431.266C103.935 431.425 103.916 431.589 103.9 431.764C103.884 431.939 101.561 432.73 96.9738 434.175C94.6801 434.897 92.3796 435.634 90.0859 436.356C90.0541 436.007 90.0411 435.672 90.0093 435.323C89.9458 434.624 89.8396 433.846 89.665 432.988C89.4903 432.131 89.2525 431.317 89.0144 430.539C88.7763 429.761 88.5059 428.938 88.1726 428.129C87.8392 427.319 87.4401 426.447 86.948 425.526C86.456 424.606 85.9897 423.878 85.6087 423.307C85.2278 422.736 84.7288 422.05 84.0781 421.241C83.4273 420.431 82.7707 419.688 82.0882 419.021C81.4057 418.354 80.6755 417.717 79.9453 417.146C79.2151 416.575 78.5297 416.105 77.8789 415.692C77.2281 415.279 76.5716 414.916 75.8891 414.582C75.2065 414.249 74.4987 413.911 73.7844 413.626C73.0701 413.34 72.3204 413.098 71.5267 412.86C70.733 412.622 69.8611 412.423 68.9246 412.248C67.9881 412.073 67.2159 411.951 66.6286 411.904C66.0413 411.856 65.2785 411.827 64.2943 411.827ZM65.4423 412.937C66.1566 412.952 66.829 412.988 67.4322 413.052C68.0354 413.115 68.6723 413.231 69.3072 413.358C69.9422 413.485 70.5632 413.642 71.1823 413.817C71.8013 413.992 72.4 414.191 73.0191 414.429C73.6381 414.667 74.2685 414.909 74.8559 415.194C75.4432 415.48 76.0997 415.882 76.8457 416.342C77.5918 416.803 78.2482 417.237 78.8356 417.682C79.4229 418.126 80.0374 418.663 80.6724 419.251C81.3073 419.838 81.8575 420.388 82.3178 420.896C82.7781 421.404 83.2351 421.939 83.6954 422.542C84.1557 423.145 84.5996 423.759 84.9965 424.378C85.3933 424.997 85.757 425.641 86.1062 426.292C86.4554 426.943 86.7902 427.663 87.1394 428.473C87.4886 429.283 87.7749 430.019 87.9812 430.654C88.1876 431.289 88.3741 431.917 88.517 432.567C88.6598 433.218 88.7437 433.904 88.8231 434.634C88.9025 435.364 88.8251 435.756 88.5552 435.82C88.2854 435.884 88.0504 435.935 87.8282 435.935C87.6059 435.935 87.3262 435.877 87.0246 435.782C86.723 435.687 86.4367 435.629 86.1827 435.629C85.9287 435.629 85.7161 435.664 85.4939 435.744C85.2717 435.823 85.0628 435.974 84.9199 436.164C84.7771 436.355 84.7286 436.577 84.7286 436.815C84.7286 437.053 84.9057 437.78 85.3026 439.034C85.6994 440.288 85.9503 440.996 86.0296 441.139C86.109 441.282 86.2377 441.411 86.4123 441.522C86.5869 441.633 86.7641 441.675 86.9863 441.675C87.2085 441.675 87.4594 441.61 87.7134 441.483C87.9673 441.357 88.2117 441.192 88.4022 440.986C88.4974 440.883 88.5748 440.783 88.67 440.68C88.5827 441.109 88.4895 441.552 88.4022 441.981C88.2275 442.838 88.0504 443.594 87.8282 444.277C87.6059 444.959 87.2618 445.774 86.8332 446.726C86.4047 447.678 86.0186 448.451 85.6852 449.022C85.3519 449.593 85.0171 450.144 84.6521 450.667C84.287 451.191 83.8142 451.754 83.2745 452.389C82.7348 453.024 82.1846 453.626 81.629 454.15C81.0735 454.674 80.5522 455.108 80.0601 455.489C79.568 455.87 79.0467 456.25 78.4912 456.599C77.9356 456.948 77.3789 457.27 76.8074 457.555C76.236 457.841 75.6923 458.054 75.2003 458.244C74.7082 458.435 74.0452 458.672 73.1721 458.895C72.2991 459.117 71.6202 459.252 71.144 459.316C70.6678 459.379 69.9311 459.392 68.9628 459.392C67.9946 459.392 67.0453 459.328 66.0929 459.201C65.1405 459.074 64.2685 458.916 63.4908 458.742C62.713 458.567 62.0789 458.403 61.5392 458.244C60.9995 458.086 60.3336 457.879 59.5876 457.594C58.8415 457.308 58.0629 456.973 57.2533 456.56C56.4438 456.148 55.7453 455.71 55.1104 455.298C54.4755 454.885 53.8609 454.457 53.2736 453.997C52.6863 453.536 52.0205 452.957 51.322 452.275C50.6236 451.592 50.038 450.971 49.5618 450.4C49.0856 449.828 48.6576 449.249 48.2607 448.678C47.8639 448.106 47.4583 447.437 46.9979 446.611C46.5376 445.786 46.1357 445.02 45.85 444.353C45.5643 443.687 45.3227 443.001 45.0846 442.287C44.8465 441.573 44.647 440.807 44.4724 440.029C44.2978 439.252 44.1467 438.489 44.0514 437.695C43.9562 436.902 43.9142 436.123 43.8984 435.361C43.8825 434.599 43.9114 433.804 43.9749 433.027C44.0384 432.249 44.1288 431.399 44.3193 430.463C44.5098 429.526 44.7252 428.741 44.9316 428.09C45.1379 427.439 45.4373 426.661 45.85 425.756C46.2627 424.851 46.6776 424.073 47.0745 423.422C47.4713 422.771 47.8574 422.192 48.2225 421.7C48.5876 421.208 49.1862 420.516 50.0593 419.595C50.9323 418.675 51.5627 418.082 51.896 417.797C52.2294 417.511 52.7507 417.118 53.465 416.61C54.1793 416.102 54.7425 415.716 55.187 415.462C55.6314 415.208 56.1592 414.945 56.7941 414.659C57.4291 414.373 58.1238 414.116 58.8223 413.893C59.5207 413.671 60.277 413.478 61.1182 413.319C61.9595 413.161 62.7093 413.061 63.376 413.013C64.0426 412.966 64.728 412.921 65.4423 412.937ZM101.451 435.629C102.022 435.629 102.45 435.68 102.752 435.744C103.054 435.807 103.218 436.142 103.25 436.777C103.281 437.412 103.259 437.92 103.211 438.269C103.164 438.618 102.9 438.931 102.408 439.264C101.916 439.597 101.372 439.928 100.8 440.182C100.229 440.436 99.6658 440.636 99.0785 440.795C98.4912 440.953 97.8831 441.037 97.28 441.101C96.9784 441.133 96.7014 441.184 96.3998 441.216C96.4633 440.898 96.5277 440.576 96.5912 440.259C96.7181 439.624 96.7825 439.051 96.7825 438.575C96.7825 438.099 96.7247 437.678 96.6294 437.312C96.5342 436.947 96.827 436.648 97.5096 436.394C98.1921 436.14 98.8551 435.947 99.5377 435.82C100.22 435.693 100.88 435.629 101.451 435.629ZM95.7493 437.236C95.7969 437.252 95.8548 437.358 95.9024 437.58C95.95 437.803 95.9406 438.153 95.9406 438.614C95.9406 439.074 95.8763 439.618 95.7493 440.221C95.6223 440.824 95.5738 441.146 95.558 441.177C95.5421 441.209 95.4712 441.193 95.3284 441.177C95.1855 441.162 94.9281 441.12 94.563 441.024C94.198 440.929 93.9182 440.813 93.7595 440.718C93.6007 440.623 93.472 440.539 93.3768 440.412C93.2815 440.285 93.2237 440.128 93.2237 439.953C93.2237 439.778 93.2526 439.621 93.3003 439.494C93.3479 439.367 93.5568 439.109 93.8743 438.728C94.1917 438.347 94.5778 438.013 95.0222 437.695C95.4667 437.378 95.7017 437.22 95.7493 437.236ZM91.3487 438.346C91.3804 438.377 91.3226 438.571 91.1956 438.92C91.0686 439.269 91.0043 439.619 91.0043 439.953C91.0043 440.286 91.0173 440.572 91.0808 440.795C91.1443 441.017 91.26 441.223 91.3869 441.445C91.5139 441.667 91.678 441.889 91.8844 442.096C92.0907 442.302 92.2838 442.444 92.4584 442.555C92.633 442.666 92.8745 442.795 93.2237 442.938C93.5729 443.08 93.9171 443.18 94.2186 443.244C94.3695 443.276 94.527 443.327 94.6778 443.359C94.4794 443.755 94.264 444.148 94.0656 444.545C93.6688 445.338 93.2277 446.153 92.688 446.994C92.1483 447.835 91.5403 448.701 90.8895 449.558C90.2387 450.415 89.5309 451.242 88.7848 452.083C88.0388 452.925 87.3823 453.655 86.795 454.226C86.2077 454.798 85.6509 455.297 85.1113 455.757C84.5716 456.217 83.8992 456.71 83.1214 457.249C82.3436 457.789 81.6936 458.204 81.1698 458.474C80.646 458.744 80.1377 458.943 79.6774 459.086C79.4473 459.157 79.2188 459.244 78.9886 459.316C79.0204 459.165 79.0717 459.007 79.1034 458.856C79.1669 458.555 79.2602 458.291 79.3713 458.053C79.4824 457.815 79.8591 457.451 80.5576 456.943C81.256 456.435 81.9862 455.834 82.7005 455.183C83.4148 454.532 84.0582 453.904 84.6138 453.27C85.1694 452.635 85.7196 451.898 86.2592 451.088C86.7989 450.279 87.2559 449.516 87.6368 448.754C88.0178 447.992 88.375 447.127 88.7083 446.19C89.0416 445.254 89.299 444.433 89.4736 443.703C89.6482 442.973 89.7834 442.13 89.8945 441.177C90.0057 440.225 90.1633 439.646 90.3537 439.455C90.5442 439.265 90.644 439.065 90.6599 438.843C90.6757 438.621 90.7597 438.447 90.966 438.384C91.1724 438.32 91.3169 438.314 91.3487 438.346ZM102.178 441.981C102.186 442.005 102.208 442.034 102.216 442.057C102.232 442.105 102.197 442.24 102.102 442.478C102.006 442.716 101.784 443.196 101.451 443.894C101.118 444.593 100.561 445.577 99.7673 446.879C98.9736 448.181 98.2239 449.316 97.5096 450.285C96.7953 451.253 96.1294 452.074 95.558 452.772C94.9865 453.47 94.1305 454.449 92.9559 455.719C91.7812 456.988 90.5456 458.233 89.244 459.392C87.9424 460.551 86.7777 461.471 85.7618 462.186C84.7459 462.9 83.8964 463.45 83.1979 463.831C82.4995 464.212 81.9717 464.476 81.5907 464.635C81.2098 464.793 80.708 464.973 80.1366 465.132C79.5652 465.291 79.1372 465.346 78.8356 465.362C78.6848 465.37 78.5272 465.392 78.3764 465.4C78.4002 464.948 78.4291 464.513 78.4529 464.061C78.5005 463.156 78.5873 462.262 78.6825 461.42C78.7777 460.579 78.926 460.128 79.18 460.081C79.4339 460.033 79.8265 459.905 80.3662 459.698C80.9059 459.492 81.5298 459.222 82.1647 458.856C82.7997 458.491 83.4851 458.034 84.2311 457.479C84.9772 456.923 85.8043 456.187 86.7567 455.298C87.7091 454.409 88.6323 453.495 89.4736 452.542C90.3149 451.59 91.0712 450.647 91.7696 449.711C92.468 448.774 93.0956 447.831 93.6829 446.879C94.2702 445.927 94.7431 445.135 95.0605 444.468C95.378 443.802 95.793 443.435 96.285 443.435C96.7771 443.435 97.3693 443.393 98.0836 443.282C98.7978 443.171 99.4544 443.013 100.073 442.823C100.692 442.632 101.207 442.439 101.604 442.249C101.802 442.154 101.98 442.076 102.178 441.981ZM72.6364 419.174C72.2713 419.127 71.8853 419.155 71.4884 419.251C71.0916 419.346 70.8081 419.481 70.57 419.672C70.3319 419.862 70.1454 420.049 70.0343 420.207C69.9232 420.366 69.8365 420.517 69.8047 420.628C69.773 420.739 69.7888 420.952 69.8047 421.317C69.8206 421.682 69.8914 422.033 70.0343 422.35C70.1772 422.668 70.3637 422.925 70.57 423.116C70.7764 423.306 70.9825 423.441 71.2206 423.537C71.4586 423.632 71.8158 423.712 72.292 423.728C72.7682 423.744 73.1543 423.663 73.44 423.537C73.7257 423.41 73.9607 423.268 74.1671 423.077C74.3734 422.887 74.531 422.672 74.6263 422.465C74.7215 422.259 74.7793 421.982 74.7793 421.585C74.7793 421.188 74.728 420.873 74.6645 420.667C74.601 420.46 74.4434 420.232 74.2053 419.978C73.9673 419.724 73.7388 419.553 73.5165 419.442C73.2943 419.331 73.0015 419.222 72.6364 419.174ZM72.4451 420.131C72.7943 420.163 73.0517 420.227 73.2104 420.322C73.3691 420.417 73.482 420.501 73.5931 420.628C73.7042 420.755 73.7909 420.906 73.8227 421.049C73.8544 421.192 73.8385 421.392 73.8227 421.662C73.8068 421.931 73.7714 422.102 73.7079 422.197C73.6444 422.293 73.5092 422.437 73.2869 422.58C73.0647 422.723 72.8652 422.794 72.6747 422.809C72.4842 422.825 72.2492 422.819 71.9476 422.771C71.646 422.724 71.3663 422.55 71.144 422.312C70.9218 422.074 70.7931 421.775 70.7614 421.394C70.7296 421.013 70.8005 420.742 70.991 420.552C71.1814 420.361 71.3969 420.233 71.6032 420.169C71.8096 420.106 72.0959 420.099 72.4451 420.131Z" fill="#795548" fill-rule="nonzero" opacity="1" stroke="none"/>
</g>
</svg>
