<?xml version="1.0" encoding="UTF-8" standalone="no"?>
<!DOCTYPE svg PUBLIC "-//W3C//DTD SVG 1.1//EN" "http://www.w3.org/Graphics/SVG/1.1/DTD/svg11.dtd">
<!-- Created with Vectornator (http://vectornator.io/) -->
<svg height="100%" stroke-miterlimit="10" style="fill-rule:nonzero;clip-rule:evenodd;stroke-linecap:round;stroke-linejoin:round;" version="1.1" viewBox="0 0 510 510" width="100%" xml:space="preserve" xmlns="http://www.w3.org/2000/svg" xmlns:xlink="http://www.w3.org/1999/xlink">
<defs/>
<g id="Layer-1">
<path d="M0 0L510 0L510 510L0 510L0 0Z" fill="#ffffff" fill-rule="nonzero" opacity="1" stroke="none"/>
<path d="M235.014 299.968L235.014 369.919M274.986 369.919L274.986 299.968M255 299.968L294.972 299.968C294.972 299.968 285.818 230.857 264.993 200.039L255 200.039L245.007 200.039C222.523 230.857 215.028 299.968 215.028 299.968L255 299.968ZM289.975 160.067C289.975 160.067 270.649 180.053 255 180.053C243.968 180.053 235.014 171.099 235.014 160.067C235.014 149.035 243.968 140.081 255 140.081C270.489 140.081 289.975 160.067 289.975 160.067Z" fill="none" opacity="1" stroke="#ff0000" stroke-linecap="butt" stroke-linejoin="miter" stroke-width="1"/>
<path d="M439.687 418.863C438.703 418.863 437.744 418.905 436.855 419.016C435.967 419.127 435.21 419.278 434.56 419.437C433.909 419.596 433.246 419.795 432.531 420.049C431.817 420.303 430.965 420.676 430.044 421.121C429.123 421.565 428.367 421.987 427.748 422.384C427.129 422.781 426.537 423.208 425.95 423.685C425.362 424.161 424.783 424.682 424.228 425.254C423.672 425.825 423.064 426.481 422.429 427.243C421.794 428.005 421.318 428.691 420.937 429.31C420.556 429.929 420.176 430.624 419.827 431.338C419.478 432.052 419.134 432.809 418.832 433.634C418.53 434.459 418.318 435.231 418.143 435.93C417.969 436.628 417.811 437.471 417.684 438.455C417.557 439.44 417.47 440.431 417.454 441.478C417.439 442.526 417.49 443.485 417.569 444.31C417.649 445.135 417.771 445.956 417.914 446.797C418.056 447.639 418.227 448.424 418.449 449.17C418.672 449.916 418.942 450.746 419.291 451.619C419.64 452.492 420.068 453.406 420.592 454.374C421.116 455.342 421.695 456.256 422.314 457.129C422.933 458.002 423.499 458.71 423.96 459.234C424.42 459.758 425.048 460.408 425.873 461.186C426.698 461.963 427.506 462.62 428.284 463.176C429.062 463.731 429.811 464.239 430.542 464.668C431.272 465.097 432.05 465.473 432.876 465.854C433.701 466.235 434.528 466.563 435.401 466.849C436.274 467.135 437.146 467.401 438.003 467.576C438.861 467.751 439.819 467.863 440.835 467.959C441.851 468.054 442.678 468.089 443.361 468.074C444.043 468.058 444.944 467.987 446.039 467.844C447.135 467.701 448.036 467.56 448.718 467.385C449.401 467.21 450.186 466.953 451.091 466.619C451.543 466.453 451.978 466.289 452.43 466.122C452.422 468.392 452.438 470.664 452.43 472.933C452.414 477.473 452.398 481.351 452.43 484.605C452.462 487.859 452.491 489.567 452.506 489.694C452.522 489.821 452.574 489.876 452.621 489.924C452.669 489.971 452.753 490.007 452.927 490.038C453.102 490.07 453.275 490.08 453.387 490C453.498 489.921 453.546 489.67 453.578 489.273C453.61 488.876 453.645 486.096 453.693 480.969C453.74 475.842 454.042 473.265 454.535 473.201C455.027 473.138 455.583 472.987 456.218 472.78C456.853 472.574 457.532 472.326 458.246 471.977C458.961 471.628 459.682 471.19 460.428 470.714C461.174 470.238 461.917 469.739 462.647 469.183C463.377 468.628 464.105 468.013 464.866 467.347C465.628 466.68 466.716 465.621 468.081 464.209C469.446 462.796 470.588 461.525 471.525 460.382C472.461 459.239 473.388 457.991 474.357 456.594C475.325 455.197 476.104 453.945 476.691 452.882C477.278 451.818 477.722 450.975 477.992 450.356C478.262 449.737 478.455 449.251 478.566 448.902C478.677 448.553 478.97 448.241 479.446 447.907C479.922 447.574 480.292 447.23 480.594 446.912C480.896 446.595 481.14 446.353 481.283 446.147C481.426 445.941 481.567 445.574 481.742 445.114C481.917 444.654 482.01 444.277 482.01 443.928C482.01 443.578 481.952 443.257 481.857 442.971C481.762 442.685 481.649 442.421 481.474 442.167C481.387 442.04 481.294 441.911 481.206 441.785C481.349 441.753 481.484 441.702 481.627 441.67C481.913 441.606 482.212 441.571 482.546 441.555C482.879 441.539 483.265 441.546 483.694 441.593C484.122 441.641 484.566 441.75 484.995 441.861C485.423 441.972 485.867 442.092 486.296 442.282C486.724 442.473 487.053 442.659 487.291 442.818C487.529 442.976 487.699 443.134 487.826 443.277C487.953 443.42 488.053 443.584 488.133 443.774C488.212 443.965 488.363 444.107 488.554 444.234C488.744 444.361 488.937 444.425 489.127 444.425C489.318 444.425 489.466 444.406 489.625 444.31C489.784 444.215 489.97 444.135 490.161 444.119C490.351 444.103 490.486 444.09 490.582 444.042C490.677 443.995 490.799 443.879 490.926 443.736C491.053 443.593 491.124 443.416 491.156 443.162C491.187 442.908 490.579 440.858 489.357 437.001C488.135 433.144 487.449 431.13 487.291 430.955C487.132 430.781 486.955 430.658 486.717 430.611C486.479 430.563 486.286 430.563 486.143 430.611C486 430.658 485.9 430.7 485.837 430.764C485.773 430.828 485.622 430.863 485.416 430.879C485.209 430.894 485.016 430.981 484.842 431.108C484.667 431.235 484.561 431.393 484.497 431.567C484.434 431.742 484.405 431.906 484.421 432.065C484.437 432.224 484.43 432.365 484.382 432.524C484.335 432.683 484.213 432.947 484.038 433.328C483.863 433.709 483.648 434.111 483.426 434.476C483.204 434.841 482.975 435.153 482.737 435.471C482.499 435.788 482.206 436.155 481.857 436.504C481.508 436.853 481.237 437.072 481.015 437.231C480.793 437.39 480.587 437.534 480.364 437.614C480.142 437.693 479.949 437.77 479.791 437.881C479.632 437.993 479.487 438.144 479.408 438.302C479.328 438.461 479.309 438.625 479.293 438.8C479.277 438.975 476.954 439.766 472.367 441.211C470.073 441.933 467.772 442.67 465.479 443.392C465.447 443.043 465.434 442.708 465.402 442.359C465.339 441.66 465.232 440.882 465.058 440.024C464.883 439.167 464.645 438.353 464.407 437.575C464.169 436.797 463.899 435.974 463.565 435.165C463.232 434.355 462.833 433.483 462.341 432.562C461.849 431.642 461.383 430.914 461.002 430.343C460.621 429.772 460.122 429.086 459.471 428.277C458.82 427.467 458.164 426.724 457.481 426.057C456.799 425.39 456.068 424.753 455.338 424.182C454.608 423.611 453.923 423.141 453.272 422.728C452.621 422.315 451.964 421.952 451.282 421.618C450.599 421.285 449.892 420.947 449.177 420.662C448.463 420.376 447.713 420.134 446.92 419.896C446.126 419.658 445.254 419.459 444.317 419.284C443.381 419.109 442.609 418.987 442.021 418.94C441.434 418.892 440.671 418.863 439.687 418.863ZM440.835 419.973C441.549 419.988 442.222 420.024 442.825 420.088C443.428 420.151 444.065 420.267 444.7 420.394C445.335 420.521 445.956 420.678 446.575 420.853C447.194 421.028 447.793 421.227 448.412 421.465C449.031 421.703 449.661 421.945 450.249 422.23C450.836 422.516 451.493 422.918 452.239 423.378C452.985 423.839 453.641 424.273 454.228 424.718C454.816 425.162 455.43 425.699 456.065 426.287C456.7 426.874 457.25 427.424 457.711 427.932C458.171 428.44 458.628 428.975 459.088 429.578C459.549 430.181 459.992 430.795 460.389 431.414C460.786 432.033 461.15 432.677 461.499 433.328C461.848 433.979 462.183 434.699 462.532 435.509C462.881 436.319 463.168 437.055 463.374 437.69C463.58 438.325 463.767 438.953 463.91 439.603C464.053 440.254 464.137 440.94 464.216 441.67C464.295 442.4 464.218 442.792 463.948 442.856C463.678 442.92 463.443 442.971 463.221 442.971C462.999 442.971 462.719 442.913 462.417 442.818C462.116 442.723 461.83 442.665 461.576 442.665C461.322 442.665 461.109 442.7 460.887 442.78C460.665 442.859 460.456 443.01 460.313 443.2C460.17 443.391 460.121 443.613 460.121 443.851C460.121 444.089 460.299 444.816 460.695 446.07C461.092 447.324 461.343 448.032 461.422 448.175C461.502 448.318 461.631 448.447 461.805 448.558C461.98 448.669 462.157 448.711 462.379 448.711C462.601 448.711 462.852 448.646 463.106 448.519C463.36 448.393 463.605 448.228 463.795 448.022C463.89 447.919 463.968 447.819 464.063 447.716C463.976 448.145 463.882 448.588 463.795 449.017C463.62 449.874 463.443 450.63 463.221 451.313C462.999 451.995 462.655 452.81 462.226 453.762C461.798 454.714 461.411 455.487 461.078 456.058C460.745 456.629 460.41 457.18 460.045 457.703C459.68 458.227 459.207 458.79 458.667 459.425C458.128 460.06 457.577 460.662 457.022 461.186C456.466 461.71 455.945 462.144 455.453 462.525C454.961 462.906 454.44 463.286 453.884 463.635C453.328 463.984 452.772 464.306 452.2 464.591C451.629 464.877 451.085 465.09 450.593 465.28C450.101 465.471 449.438 465.708 448.565 465.931C447.692 466.153 447.013 466.288 446.537 466.352C446.061 466.415 445.324 466.428 444.356 466.428C443.387 466.428 442.438 466.364 441.486 466.237C440.533 466.11 439.661 465.952 438.884 465.778C438.106 465.603 437.472 465.439 436.932 465.28C436.392 465.122 435.726 464.915 434.98 464.63C434.234 464.344 433.456 464.009 432.646 463.596C431.837 463.184 431.138 462.746 430.503 462.334C429.868 461.921 429.254 461.493 428.666 461.033C428.079 460.572 427.413 459.993 426.715 459.311C426.016 458.628 425.431 458.007 424.955 457.436C424.478 456.864 424.05 456.285 423.654 455.714C423.257 455.142 422.851 454.473 422.391 453.647C421.93 452.822 421.529 452.056 421.243 451.389C420.957 450.723 420.716 450.037 420.477 449.323C420.239 448.609 420.04 447.843 419.865 447.065C419.691 446.288 419.54 445.525 419.444 444.731C419.349 443.938 419.307 443.159 419.291 442.397C419.275 441.635 419.304 440.84 419.368 440.063C419.431 439.285 419.522 438.435 419.712 437.499C419.903 436.562 420.118 435.777 420.324 435.126C420.531 434.475 420.83 433.697 421.243 432.792C421.656 431.887 422.07 431.109 422.467 430.458C422.864 429.807 423.25 429.228 423.615 428.736C423.98 428.244 424.579 427.552 425.452 426.631C426.325 425.711 426.956 425.118 427.289 424.833C427.622 424.547 428.144 424.154 428.858 423.646C429.572 423.138 430.135 422.752 430.58 422.498C431.024 422.244 431.552 421.981 432.187 421.695C432.822 421.409 433.517 421.152 434.215 420.929C434.914 420.707 435.67 420.514 436.511 420.355C437.352 420.197 438.102 420.097 438.769 420.049C439.435 420.002 440.121 419.957 440.835 419.973ZM476.844 442.665C477.415 442.665 477.843 442.716 478.145 442.78C478.447 442.843 478.611 443.178 478.643 443.813C478.674 444.448 478.652 444.956 478.604 445.305C478.557 445.654 478.293 445.967 477.801 446.3C477.309 446.633 476.765 446.964 476.193 447.218C475.622 447.472 475.059 447.672 474.471 447.831C473.884 447.989 473.276 448.073 472.673 448.137C472.371 448.169 472.094 448.22 471.793 448.252C471.856 447.934 471.921 447.612 471.984 447.295C472.111 446.66 472.175 446.087 472.175 445.611C472.175 445.135 472.118 444.714 472.022 444.348C471.927 443.983 472.22 443.684 472.902 443.43C473.585 443.176 474.248 442.983 474.931 442.856C475.613 442.729 476.273 442.665 476.844 442.665ZM471.142 444.272C471.19 444.288 471.248 444.394 471.295 444.616C471.343 444.839 471.333 445.189 471.333 445.65C471.333 446.11 471.269 446.654 471.142 447.257C471.015 447.86 470.967 448.182 470.951 448.213C470.935 448.245 470.864 448.229 470.721 448.213C470.578 448.198 470.321 448.156 469.956 448.06C469.591 447.965 469.311 447.849 469.152 447.754C468.994 447.659 468.865 447.575 468.77 447.448C468.674 447.321 468.617 447.164 468.617 446.989C468.617 446.814 468.645 446.657 468.693 446.53C468.741 446.403 468.95 446.145 469.267 445.764C469.585 445.383 469.971 445.049 470.415 444.731C470.86 444.414 471.095 444.256 471.142 444.272ZM466.742 445.382C466.773 445.413 466.715 445.607 466.588 445.956C466.461 446.305 466.397 446.655 466.397 446.989C466.397 447.322 466.41 447.608 466.474 447.831C466.537 448.053 466.653 448.259 466.78 448.481C466.907 448.703 467.071 448.925 467.277 449.132C467.484 449.338 467.677 449.48 467.851 449.591C468.026 449.702 468.267 449.831 468.617 449.974C468.966 450.116 469.31 450.216 469.611 450.28C469.762 450.312 469.92 450.363 470.071 450.395C469.872 450.791 469.657 451.184 469.458 451.581C469.062 452.374 468.621 453.189 468.081 454.03C467.541 454.871 466.933 455.737 466.282 456.594C465.632 457.451 464.924 458.278 464.178 459.119C463.432 459.961 462.775 460.691 462.188 461.262C461.601 461.834 461.044 462.333 460.504 462.793C459.964 463.253 459.292 463.746 458.514 464.285C457.736 464.825 457.086 465.24 456.563 465.51C456.039 465.78 455.531 465.979 455.07 466.122C454.84 466.193 454.612 466.28 454.381 466.352C454.413 466.201 454.465 466.043 454.496 465.892C454.56 465.591 454.653 465.327 454.764 465.089C454.875 464.851 455.252 464.487 455.95 463.979C456.649 463.471 457.379 462.87 458.093 462.219C458.808 461.568 459.451 460.94 460.007 460.306C460.562 459.671 461.112 458.934 461.652 458.124C462.192 457.315 462.649 456.552 463.03 455.79C463.411 455.028 463.768 454.163 464.101 453.226C464.434 452.29 464.692 451.469 464.866 450.739C465.041 450.009 465.176 449.166 465.287 448.213C465.399 447.261 465.556 446.682 465.747 446.491C465.937 446.301 466.037 446.101 466.053 445.879C466.069 445.657 466.153 445.483 466.359 445.42C466.565 445.356 466.71 445.35 466.742 445.382ZM477.571 449.017C477.579 449.041 477.601 449.07 477.609 449.093C477.625 449.141 477.59 449.276 477.495 449.514C477.399 449.752 477.177 450.232 476.844 450.93C476.511 451.629 475.954 452.613 475.16 453.915C474.366 455.217 473.617 456.352 472.902 457.321C472.188 458.289 471.522 459.11 470.951 459.808C470.379 460.506 469.523 461.485 468.349 462.755C467.174 464.024 465.938 465.269 464.637 466.428C463.335 467.587 462.171 468.507 461.155 469.222C460.139 469.936 459.289 470.486 458.591 470.867C457.892 471.248 457.365 471.512 456.984 471.671C456.603 471.829 456.101 472.009 455.529 472.168C454.958 472.327 454.53 472.382 454.228 472.398C454.078 472.406 453.92 472.428 453.769 472.436C453.793 471.984 453.822 471.549 453.846 471.097C453.893 470.192 453.98 469.298 454.075 468.456C454.171 467.615 454.319 467.164 454.573 467.117C454.827 467.069 455.219 466.941 455.759 466.734C456.299 466.528 456.923 466.258 457.558 465.892C458.193 465.527 458.878 465.07 459.624 464.515C460.37 463.959 461.197 463.223 462.15 462.334C463.102 461.445 464.025 460.531 464.866 459.578C465.708 458.626 466.464 457.683 467.162 456.747C467.861 455.81 468.488 454.867 469.076 453.915C469.663 452.963 470.136 452.171 470.453 451.504C470.771 450.838 471.186 450.471 471.678 450.471C472.17 450.471 472.762 450.429 473.476 450.318C474.191 450.207 474.847 450.049 475.466 449.859C476.085 449.668 476.6 449.475 476.997 449.285C477.195 449.19 477.373 449.112 477.571 449.017ZM448.029 426.21C447.664 426.163 447.278 426.191 446.881 426.287C446.484 426.382 446.201 426.517 445.963 426.708C445.725 426.898 445.538 427.085 445.427 427.243C445.316 427.402 445.229 427.553 445.198 427.664C445.166 427.775 445.182 427.988 445.198 428.353C445.213 428.718 445.284 429.069 445.427 429.386C445.57 429.704 445.757 429.961 445.963 430.152C446.169 430.342 446.375 430.477 446.613 430.573C446.851 430.668 447.209 430.748 447.685 430.764C448.161 430.78 448.547 430.699 448.833 430.573C449.119 430.446 449.354 430.304 449.56 430.113C449.766 429.923 449.924 429.708 450.019 429.501C450.114 429.295 450.172 429.018 450.172 428.621C450.172 428.224 450.121 427.909 450.057 427.703C449.994 427.496 449.836 427.268 449.598 427.014C449.36 426.76 449.132 426.589 448.909 426.478C448.687 426.367 448.394 426.258 448.029 426.21ZM447.838 427.167C448.187 427.199 448.445 427.263 448.603 427.358C448.762 427.453 448.875 427.537 448.986 427.664C449.097 427.791 449.184 427.942 449.216 428.085C449.247 428.228 449.231 428.428 449.216 428.698C449.2 428.967 449.164 429.138 449.101 429.233C449.037 429.329 448.902 429.473 448.68 429.616C448.458 429.759 448.258 429.83 448.068 429.845C447.877 429.861 447.642 429.855 447.34 429.807C447.039 429.76 446.759 429.586 446.537 429.348C446.315 429.11 446.186 428.811 446.154 428.43C446.122 428.049 446.193 427.778 446.384 427.588C446.574 427.397 446.79 427.269 446.996 427.205C447.202 427.142 447.489 427.135 447.838 427.167Z" fill="#ff4400" fill-rule="nonzero" opacity="1" stroke="none"/>
</g>
</svg>
