<?xml version="1.0" encoding="UTF-8" standalone="no"?>
<!DOCTYPE svg PUBLIC "-//W3C//DTD SVG 1.1//EN" "http://www.w3.org/Graphics/SVG/1.1/DTD/svg11.dtd">
<!-- Created with Vectornator (http://vectornator.io/) -->
<svg height="100%" stroke-miterlimit="10" style="fill-rule:nonzero;clip-rule:evenodd;stroke-linecap:round;stroke-linejoin:round;" version="1.1" viewBox="0 0 510 510" width="100%" xml:space="preserve" xmlns="http://www.w3.org/2000/svg" xmlns:xlink="http://www.w3.org/1999/xlink">
<defs/>
<g id="Layer-1">
<path d="M0 0L510 0L510 510L0 510L0 0Z" fill="#ffffff" fill-rule="nonzero" opacity="1" stroke="none"/>
<path d="M255 98.5455C215.299 98.5455 183.116 130.729 183.116 170.43C183.116 210.131 215.299 242.315 255 242.315C294.701 242.315 326.884 210.131 326.884 170.43C326.884 130.729 294.701 98.5455 255 98.5455Z" fill="#b6dcfe" fill-rule="nonzero" opacity="1" stroke="none"/>
<path d="M255 102.774C292.304 102.774 322.656 133.126 322.656 170.43C322.656 207.734 292.304 238.086 255 238.086C217.696 238.086 187.344 207.734 187.344 170.43C187.344 133.126 217.696 102.774 255 102.774M255 94.317C212.96 94.317 178.887 128.39 178.887 170.43C178.887 212.47 212.96 246.543 255 246.543C297.04 246.543 331.113 212.47 331.113 170.43C331.113 128.39 297.04 94.317 255 94.317L255 94.317Z" fill="#4788c7" fill-rule="nonzero" opacity="1" stroke="none"/>
<path d="M358.294 308.161C341.642 308.161 328.094 294.613 328.094 277.961C328.094 261.309 341.642 247.761 358.294 247.761C380.028 247.761 388.494 253.013 388.494 266.485C388.502 282.933 374.971 308.161 358.294 308.161Z" fill="#dff0fe" fill-rule="nonzero" opacity="1" stroke="none"/>
<path d="M358.294 251.981C382.286 251.981 384.265 258.839 384.265 266.476C384.265 282.139 371.174 303.932 358.294 303.932C343.968 303.932 332.322 292.278 332.322 277.961C332.322 263.635 343.976 251.981 358.294 251.981M358.294 243.524C339.274 243.524 323.865 258.941 323.865 277.952C323.865 296.972 339.282 312.381 358.294 312.381C377.305 312.381 392.722 285.487 392.722 266.468C392.722 247.448 377.314 243.524 358.294 243.524L358.294 243.524Z" fill="#4788c7" fill-rule="nonzero" opacity="1" stroke="none"/>
<path d="M151.706 308.161C135.037 308.161 121.506 282.942 121.506 266.476C121.506 253.004 129.972 247.752 151.706 247.752C168.358 247.752 181.906 261.3 181.906 277.952C181.906 294.604 168.358 308.161 151.706 308.161Z" fill="#dff0fe" fill-rule="nonzero" opacity="1" stroke="none"/>
<path d="M151.706 251.981C166.032 251.981 177.678 263.635 177.678 277.952C177.678 292.278 166.024 303.924 151.706 303.924C138.818 303.924 125.735 282.13 125.735 266.468C125.726 258.839 127.714 251.981 151.706 251.981M151.706 243.524C132.686 243.524 117.278 247.465 117.278 266.476C117.278 285.487 132.695 312.389 151.706 312.389C170.718 312.389 186.135 296.972 186.135 277.961C186.135 258.941 170.718 243.524 151.706 243.524L151.706 243.524Z" fill="#4788c7" fill-rule="nonzero" opacity="1" stroke="none"/>
<path d="M230.204 397.923L229.333 396.579L227.785 396.147C181.855 383.377 151.368 341.236 153.634 293.665L156.51 216.318C158.049 184.029 184.612 158.7 216.986 158.7L293.014 158.7C325.388 158.7 351.951 184.029 353.49 216.368L356.366 293.623C358.632 341.244 328.145 383.386 282.215 396.156L280.667 396.587L279.796 397.923C274.29 406.397 235.71 406.397 230.204 397.923Z" fill="#ffffff" fill-rule="nonzero" opacity="1" stroke="none"/>
<path d="M293.014 162.937C323.13 162.937 347.832 186.498 349.262 216.487L352.137 293.868C354.311 339.46 325.083 379.842 281.073 392.079L277.986 392.934L276.244 395.615C271.533 402.888 238.467 402.888 233.748 395.623L232.005 392.942L228.919 392.088C184.908 379.851 155.681 339.469 157.854 293.784L160.73 216.571C162.159 186.49 186.87 162.937 216.986 162.937L293.014 162.937M293.014 154.48L216.986 154.48C182.414 154.48 153.93 181.636 152.281 216.174L149.406 293.471C147.004 343.925 180.35 387.36 226.652 400.232C232.69 409.518 277.31 409.518 283.339 400.232C329.641 387.36 362.987 343.925 360.586 293.471L357.71 216.174C356.07 181.636 327.586 154.48 293.014 154.48L293.014 154.48Z" fill="#4788c7" fill-rule="nonzero" opacity="1" stroke="none"/>
<path d="M193.357 378.548C142.598 366.785 98.5455 303.044 98.5455 252.556C98.5455 169.948 177.128 132.974 255 132.974C332.872 132.974 411.454 169.948 411.454 252.556C411.454 303.07 367.292 366.886 316.55 378.244C330.284 366.7 350.226 344.56 356.146 309.987C360.205 305.827 374.007 290.071 374.007 267.77C374.007 257.038 367.909 250.628 357.693 250.628C356.687 250.628 355.731 250.687 354.835 250.788C353.093 203.987 327.24 198.203 302.207 192.613C286.477 189.095 223.523 189.103 207.785 192.621C182.752 198.22 156.899 203.996 155.157 250.797C154.269 250.704 153.305 250.636 152.298 250.636C142.082 250.636 135.985 257.047 135.985 267.779C135.985 290.13 149.888 305.911 153.939 310.03C160.578 345.574 179.767 367.233 193.357 378.548Z" fill="#b6dcfe" fill-rule="nonzero" opacity="1" stroke="none"/>
<path d="M255 137.202C330.775 137.202 407.226 172.874 407.226 252.556C407.226 295.687 374.091 348.856 332.728 368.256C344.069 355.317 355.562 336.762 360.078 311.975C365.338 306.283 378.227 290.08 378.227 267.779C378.227 255 370.827 246.915 358.827 246.433C355.545 200.199 327.789 194 303.12 188.486C287.356 184.959 222.635 184.959 206.871 188.486C182.202 194 154.446 200.199 151.165 246.433C139.173 246.915 131.773 255 131.773 267.779C131.773 290.156 144.78 306.393 150.032 312.034C154.971 337.219 166.058 355.613 177.06 368.375C135.756 348.678 102.774 295.636 102.774 252.556C102.774 172.874 179.225 137.202 255 137.202M255 128.745C169.88 128.745 94.317 171.267 94.317 252.556C94.317 311.797 151.106 384.68 209.687 384.68C209.687 384.68 167.639 363.52 157.863 307.941C157.863 307.941 140.222 291.796 140.222 267.77C140.222 257.055 146.86 254.856 152.307 254.856C156.087 254.856 159.301 255.913 159.301 255.913C159.301 177.695 350.699 177.695 350.699 255.913C350.699 255.913 353.905 254.856 357.693 254.856C363.14 254.856 369.778 257.055 369.778 267.77C369.778 291.796 352.196 307.941 352.196 307.941C343.824 360.679 300.888 384.24 300.888 384.24C359.469 384.248 415.683 311.797 415.683 252.556C415.683 171.276 340.12 128.745 255 128.745L255 128.745Z" fill="#4788c7" fill-rule="nonzero" opacity="1" stroke="none"/>
<path d="M233.858 255L183.116 255C180.79 255 178.887 253.097 178.887 250.772L178.887 250.772C178.887 248.446 180.79 246.543 183.116 246.543L233.858 246.543C236.183 246.543 238.086 248.446 238.086 250.772L238.086 250.772C238.086 253.097 236.183 255 233.858 255Z" fill="#4788c7" fill-rule="nonzero" opacity="1" stroke="none"/>
<path d="M326.884 255L276.142 255C273.817 255 271.914 253.097 271.914 250.772L271.914 250.772C271.914 248.446 273.817 246.543 276.142 246.543L313.915 235.265C313.915 235.265 331.113 248.446 331.113 250.772L331.113 250.772C331.113 253.097 329.21 255 326.884 255Z" fill="#4788c7" fill-rule="nonzero" opacity="1" stroke="none"/>
<path d="M193.037 290.467C193.037 283.555 199.954 277.952 208.487 277.952C217.019 277.952 223.936 283.555 223.936 290.467C223.936 297.378 217.019 302.981 208.487 302.981C199.954 302.981 193.037 297.378 193.037 290.467Z" fill="#4788c7" fill-rule="nonzero" opacity="1" stroke="none"/>
<path d="M283.015 287.061C283.015 278.528 289.932 271.611 298.465 271.611C306.998 271.611 313.915 278.528 313.915 287.061C313.915 295.594 306.998 302.511 298.465 302.511C289.932 302.511 283.015 295.594 283.015 287.061Z" fill="#4788c7" fill-rule="nonzero" opacity="1" stroke="none"/>
</g>
<g id="Xonyagar">
<path d="M427.859 32.9039C426.875 32.9038 425.916 32.9458 425.028 33.0569C424.139 33.1681 423.382 33.3192 422.732 33.4779C422.081 33.6366 421.418 33.8361 420.704 34.0901C419.989 34.3441 419.137 34.7171 418.216 35.1616C417.296 35.606 416.539 36.0275 415.92 36.4244C415.301 36.8214 414.709 37.2492 414.122 37.7254C413.534 38.2016 412.955 38.723 412.4 39.2944C411.844 39.8657 411.236 40.5223 410.601 41.2842C409.966 42.0461 409.49 42.7314 409.109 43.3506C408.728 43.9698 408.348 44.6645 407.999 45.3787C407.65 46.093 407.306 46.8494 407.004 47.6747C406.703 48.5001 406.49 49.2722 406.315 49.9707C406.141 50.669 405.983 51.5121 405.856 52.4963C405.729 53.4806 405.642 54.4717 405.627 55.5193C405.611 56.5669 405.662 57.5257 405.741 58.351C405.821 59.1763 405.943 59.997 406.086 60.8383C406.229 61.6796 406.399 62.4648 406.621 63.2108C406.844 63.9569 407.114 64.7868 407.463 65.6599C407.813 66.533 408.241 67.4468 408.764 68.4151C409.288 69.3833 409.867 70.2972 410.486 71.1702C411.105 72.0433 411.672 72.7511 412.132 73.2749C412.592 73.7987 413.22 74.4487 414.045 75.2265C414.871 76.0043 415.678 76.6608 416.456 77.2163C417.234 77.7719 417.983 78.2801 418.714 78.7087C419.444 79.1374 420.222 79.5141 421.048 79.895C421.873 80.2758 422.7 80.6041 423.573 80.8899C424.447 81.1757 425.318 81.4423 426.176 81.617C427.033 81.7916 427.991 81.9043 429.007 81.9996C430.023 82.0949 430.85 82.1302 431.533 82.1144C432.215 82.0985 433.116 82.0277 434.212 81.8848C435.307 81.742 436.208 81.6003 436.89 81.4256C437.573 81.251 438.358 80.9937 439.263 80.6603C439.715 80.4936 440.15 80.3295 440.602 80.1628C440.594 82.4326 440.61 84.7044 440.602 86.9743C440.586 91.514 440.57 95.3915 440.602 98.6455C440.634 101.9 440.663 103.608 440.679 103.735C440.694 103.862 440.746 103.917 440.793 103.965C440.841 104.012 440.925 104.048 441.099 104.079C441.274 104.111 441.448 104.12 441.559 104.041C441.67 103.962 441.718 103.711 441.75 103.314C441.782 102.917 441.817 100.137 441.865 95.0102C441.912 89.8833 442.215 87.3057 442.707 87.2421C443.199 87.1786 443.755 87.0276 444.39 86.8212C445.025 86.6148 445.704 86.3667 446.419 86.0176C447.133 85.6684 447.854 85.231 448.6 84.7548C449.346 84.2786 450.089 83.7797 450.819 83.2242C451.549 82.6686 452.277 82.0541 453.039 81.3874C453.801 80.7208 454.888 79.6623 456.253 78.2495C457.618 76.8368 458.76 75.5658 459.697 74.4229C460.633 73.28 461.56 72.0314 462.529 70.6345C463.497 69.2377 464.276 67.9862 464.863 66.9227C465.45 65.8591 465.894 65.0163 466.164 64.3971C466.434 63.7779 466.627 63.2921 466.738 62.943C466.849 62.5939 467.142 62.2814 467.618 61.9481C468.094 61.6147 468.464 61.2706 468.766 60.9531C469.068 60.6357 469.312 60.3942 469.455 60.1878C469.598 59.9814 469.739 59.6148 469.914 59.1546C470.089 58.6943 470.182 58.3175 470.182 57.9683C470.182 57.6192 470.124 57.2975 470.029 57.0117C469.934 56.7259 469.821 56.4621 469.646 56.2081C469.559 56.0811 469.466 55.9523 469.378 55.8254C469.521 55.7938 469.656 55.7424 469.799 55.7106C470.085 55.647 470.384 55.6116 470.718 55.5958C471.051 55.5801 471.437 55.5866 471.866 55.6341C472.294 55.6816 472.738 55.7908 473.167 55.902C473.595 56.0131 474.039 56.1324 474.468 56.3229C474.896 56.5134 475.225 56.7 475.463 56.8586C475.701 57.0173 475.871 57.175 475.998 57.3178C476.125 57.4606 476.225 57.6248 476.305 57.8153C476.384 58.0058 476.535 58.1476 476.725 58.2745C476.916 58.4014 477.109 58.4658 477.299 58.4658C477.49 58.4658 477.638 58.4463 477.797 58.351C477.956 58.2557 478.142 58.1755 478.333 58.1597C478.523 58.1438 478.658 58.1307 478.754 58.0831C478.849 58.0356 478.971 57.9199 479.098 57.777C479.225 57.6341 479.296 57.457 479.328 57.203C479.359 56.9491 478.751 54.8993 477.529 51.0421C476.307 47.185 475.621 45.1707 475.463 44.996C475.304 44.8213 475.127 44.6992 474.889 44.6517C474.651 44.6041 474.458 44.6041 474.315 44.6517C474.172 44.6991 474.072 44.7411 474.009 44.8047C473.945 44.8683 473.794 44.9037 473.588 44.9195C473.381 44.9353 473.188 45.0222 473.014 45.1491C472.839 45.2761 472.733 45.4336 472.669 45.6083C472.606 45.783 472.577 45.9471 472.593 46.1058C472.609 46.2645 472.602 46.4063 472.554 46.565C472.507 46.7238 472.385 46.9877 472.21 47.3686C472.035 47.7494 471.82 48.1515 471.598 48.5166C471.376 48.8817 471.147 49.194 470.909 49.5115C470.671 49.829 470.378 50.1956 470.029 50.5447C469.68 50.8939 469.409 51.1131 469.187 51.2717C468.965 51.4304 468.759 51.575 468.536 51.6544C468.314 51.7337 468.121 51.8111 467.962 51.9223C467.804 52.0334 467.659 52.1845 467.58 52.3432C467.5 52.5018 467.481 52.666 467.465 52.8407C467.449 53.0153 465.126 53.8069 460.539 55.2514C458.245 55.9737 455.945 56.7104 453.651 57.4326C453.619 57.0835 453.606 56.7485 453.574 56.3994C453.511 55.701 453.405 54.9223 453.23 54.0652C453.055 53.208 452.817 52.3939 452.579 51.6161C452.341 50.8383 452.071 50.0149 451.738 49.2053C451.404 48.3959 451.005 47.5239 450.513 46.6032C450.021 45.6826 449.555 44.9551 449.174 44.3838C448.793 43.8124 448.294 43.127 447.643 42.3174C446.992 41.5078 446.336 40.7646 445.653 40.098C444.971 39.4313 444.24 38.7943 443.51 38.2229C442.78 37.6515 442.095 37.1815 441.444 36.7688C440.793 36.3561 440.137 35.9924 439.454 35.6591C438.771 35.3257 438.064 34.9882 437.349 34.7024C436.635 34.4166 435.885 34.1751 435.092 33.9371C434.298 33.6991 433.426 33.4995 432.49 33.3248C431.553 33.1501 430.781 33.0279 430.194 32.9804C429.606 32.9328 428.843 32.9039 427.859 32.9039ZM429.007 34.0136C429.722 34.0293 430.394 34.0648 430.997 34.1284C431.6 34.192 432.237 34.3076 432.872 34.4345C433.507 34.5615 434.128 34.719 434.747 34.8937C435.366 35.0684 435.965 35.268 436.584 35.506C437.203 35.744 437.834 35.9855 438.421 36.2713C439.008 36.557 439.665 36.9591 440.411 37.4193C441.157 37.8796 441.813 38.3142 442.401 38.7586C442.988 39.2032 443.602 39.7402 444.237 40.3276C444.872 40.9148 445.422 41.465 445.883 41.973C446.343 42.4811 446.8 43.0154 447.26 43.6185C447.721 44.2215 448.165 44.8361 448.561 45.4552C448.958 46.0743 449.322 46.7178 449.671 47.3686C450.02 48.0194 450.355 48.7402 450.704 49.5497C451.054 50.3593 451.34 51.096 451.546 51.7309C451.753 52.3659 451.939 52.9934 452.082 53.6442C452.225 54.2951 452.309 54.9804 452.388 55.7106C452.467 56.4407 452.39 56.8333 452.12 56.8969C451.85 56.9605 451.615 57.0117 451.393 57.0117C451.171 57.0117 450.891 56.954 450.59 56.8586C450.288 56.7634 450.002 56.7056 449.748 56.7056C449.494 56.7055 449.281 56.741 449.059 56.8204C448.837 56.8997 448.628 57.0508 448.485 57.2413C448.342 57.4318 448.294 57.6538 448.294 57.8918C448.294 58.13 448.471 58.8572 448.868 60.1113C449.264 61.3652 449.515 62.073 449.595 62.2159C449.674 62.3588 449.803 62.4875 449.977 62.5986C450.152 62.7097 450.329 62.7516 450.551 62.7516C450.774 62.7516 451.024 62.6872 451.278 62.5603C451.532 62.4334 451.777 62.2693 451.967 62.0628C452.062 61.9597 452.14 61.8598 452.235 61.7567C452.148 62.1854 452.054 62.6292 451.967 63.0578C451.793 63.9149 451.615 64.6713 451.393 65.3538C451.171 66.0362 450.827 66.8504 450.398 67.8028C449.97 68.7553 449.584 69.5274 449.25 70.0988C448.917 70.6701 448.582 71.2204 448.217 71.7442C447.852 72.268 447.379 72.8313 446.839 73.4662C446.3 74.1011 445.75 74.7027 445.194 75.2265C444.638 75.7504 444.117 76.1849 443.625 76.5658C443.133 76.9467 442.612 77.3264 442.056 77.6755C441.501 78.0246 440.944 78.3464 440.372 78.6322C439.801 78.918 439.257 79.1305 438.765 79.321C438.273 79.5114 437.61 79.7493 436.737 79.9715C435.864 80.1937 435.185 80.3289 434.709 80.3924C434.233 80.456 433.496 80.469 432.528 80.469C431.56 80.4689 430.61 80.4045 429.658 80.2776C428.705 80.1508 427.834 79.9931 427.056 79.8184C426.278 79.6437 425.644 79.4796 425.104 79.321C424.564 79.1624 423.899 78.9563 423.153 78.6705C422.407 78.3846 421.628 78.05 420.818 77.6373C420.009 77.2246 419.31 76.7872 418.675 76.3745C418.04 75.9618 417.426 75.5337 416.839 75.0734C416.251 74.6131 415.585 74.0339 414.887 73.3514C414.189 72.6689 413.603 72.0477 413.127 71.4764C412.651 70.905 412.223 70.3257 411.826 69.7544C411.429 69.1829 411.023 68.5133 410.563 67.688C410.103 66.8627 409.701 66.097 409.415 65.4303C409.129 64.7636 408.888 64.0781 408.65 63.3639C408.411 62.6497 408.212 61.884 408.037 61.1062C407.863 60.3283 407.712 59.5655 407.616 58.7719C407.521 57.9783 407.479 57.1996 407.463 56.4377C407.447 55.6757 407.476 54.8812 407.54 54.1034C407.603 53.3255 407.694 52.476 407.884 51.5396C408.075 50.6032 408.29 49.8179 408.497 49.1671C408.703 48.5162 409.002 47.7375 409.415 46.8328C409.828 45.9281 410.243 45.1494 410.639 44.4986C411.036 43.8477 411.422 43.2686 411.787 42.7766C412.153 42.2845 412.751 41.5926 413.624 40.6719C414.497 39.7514 415.128 39.1592 415.461 38.8734C415.794 38.5877 416.316 38.1952 417.03 37.6872C417.744 37.1792 418.307 36.7932 418.752 36.5392C419.196 36.2853 419.724 36.0214 420.359 35.7356C420.994 35.4498 421.689 35.1925 422.387 34.9703C423.086 34.748 423.842 34.5549 424.683 34.3963C425.524 34.2375 426.274 34.1377 426.941 34.0901C427.608 34.0426 428.293 33.9978 429.007 34.0136ZM465.016 56.7056C465.587 56.7054 466.015 56.7568 466.317 56.8204C466.619 56.8839 466.783 57.2186 466.814 57.8535C466.846 58.4885 466.824 58.9968 466.776 59.3459C466.729 59.6951 466.465 60.0075 465.973 60.3409C465.481 60.6742 464.937 61.0053 464.365 61.2593C463.794 61.5133 463.231 61.7129 462.643 61.8715C462.056 62.0301 461.448 62.1141 460.845 62.1776C460.543 62.2093 460.266 62.2607 459.965 62.2924C460.028 61.975 460.093 61.6533 460.156 61.3358C460.283 60.7008 460.347 60.1283 460.347 59.6521C460.347 59.1758 460.29 58.7544 460.194 58.3893C460.099 58.0242 460.392 57.7249 461.075 57.4709C461.757 57.2169 462.42 57.0238 463.103 56.8969C463.785 56.77 464.445 56.7056 465.016 56.7056ZM459.314 58.3127C459.362 58.3286 459.42 58.4349 459.467 58.6571C459.515 58.8794 459.506 59.2301 459.506 59.6903C459.506 60.1506 459.441 60.6944 459.314 61.2975C459.187 61.9007 459.139 62.2224 459.123 62.2542C459.107 62.2859 459.036 62.27 458.893 62.2542C458.75 62.2384 458.493 62.1965 458.128 62.1011C457.763 62.0058 457.483 61.8903 457.324 61.795C457.166 61.6997 457.037 61.6157 456.942 61.4889C456.847 61.362 456.789 61.2044 456.789 61.0297C456.789 60.8549 456.818 60.6974 456.865 60.5705C456.913 60.4435 457.122 60.186 457.439 59.8051C457.757 59.4243 458.143 59.0894 458.587 58.7719C459.032 58.4544 459.267 58.297 459.314 58.3127ZM454.914 59.4225C454.945 59.4542 454.888 59.6473 454.761 59.9965C454.634 60.3456 454.569 60.6963 454.569 61.0297C454.569 61.363 454.582 61.6493 454.646 61.8715C454.709 62.0937 454.825 62.2998 454.952 62.522C455.079 62.7442 455.243 62.9661 455.449 63.1726C455.656 63.379 455.849 63.5207 456.023 63.6318C456.198 63.743 456.439 63.8716 456.789 64.0144C457.138 64.1572 457.482 64.257 457.784 64.3206C457.934 64.3524 458.092 64.4036 458.243 64.4354C458.044 64.8321 457.829 65.2247 457.631 65.6216C457.234 66.4152 456.793 67.2294 456.253 68.0707C455.713 68.9119 455.105 69.7774 454.454 70.6345C453.804 71.4917 453.096 72.3187 452.35 73.1601C451.604 74.0014 450.947 74.7317 450.36 75.303C449.773 75.8745 449.216 76.3734 448.676 76.8337C448.137 77.2939 447.464 77.7864 446.686 78.3261C445.909 78.8658 445.259 79.2808 444.735 79.5506C444.211 79.8204 443.703 80.02 443.242 80.1628C443.012 80.2342 442.784 80.3211 442.554 80.3924C442.585 80.2417 442.637 80.0841 442.668 79.9332C442.732 79.6317 442.825 79.3677 442.936 79.1297C443.047 78.8916 443.424 78.528 444.123 78.0199C444.821 77.5119 445.551 76.9105 446.265 76.2597C446.98 75.6088 447.623 74.9813 448.179 74.3464C448.734 73.7114 449.285 72.9747 449.824 72.1652C450.364 71.3556 450.821 70.5928 451.202 69.8309C451.583 69.069 451.94 68.2035 452.273 67.2671C452.607 66.3307 452.864 65.51 453.039 64.7798C453.213 64.0495 453.348 63.2066 453.46 62.2542C453.571 61.3018 453.728 60.7227 453.919 60.5322C454.109 60.3417 454.209 60.1422 454.225 59.9199C454.241 59.6978 454.325 59.5243 454.531 59.4607C454.737 59.3972 454.882 59.3907 454.914 59.4225ZM465.743 63.0578C465.751 63.0816 465.773 63.1105 465.781 63.1343C465.797 63.1818 465.762 63.3172 465.666 63.5552C465.571 63.7933 465.349 64.2727 465.016 64.9711C464.683 65.6695 464.126 66.6542 463.332 67.9559C462.539 69.2575 461.789 70.3933 461.075 71.3616C460.36 72.3299 459.694 73.1504 459.123 73.8489C458.552 74.5472 457.695 75.5255 456.521 76.7954C455.346 78.0653 454.111 79.3102 452.809 80.469C451.507 81.6277 450.343 82.5482 449.327 83.2624C448.311 83.9767 447.461 84.527 446.763 84.9079C446.064 85.2888 445.537 85.5528 445.156 85.7115C444.775 85.8703 444.273 86.0503 443.702 86.2089C443.13 86.3675 442.702 86.4227 442.401 86.4385C442.25 86.4465 442.092 86.4688 441.941 86.4768C441.965 86.0244 441.994 85.59 442.018 85.1375C442.065 84.2328 442.152 83.3384 442.247 82.4971C442.343 81.6557 442.491 81.2053 442.745 81.1578C442.999 81.1102 443.392 80.9816 443.931 80.7751C444.471 80.5686 445.095 80.2983 445.73 79.9332C446.365 79.5681 447.05 79.1112 447.796 78.5557C448.542 78.0001 449.369 77.2634 450.322 76.3745C451.274 75.4856 452.197 74.5717 453.039 73.6193C453.88 72.6669 454.636 71.724 455.335 70.7876C456.033 69.8511 456.661 68.9083 457.248 67.9559C457.835 67.0035 458.308 66.2118 458.625 65.5451C458.943 64.8784 459.358 64.5119 459.85 64.5119C460.342 64.5119 460.934 64.4699 461.649 64.3588C462.363 64.2477 463.019 64.0901 463.638 63.8996C464.257 63.7092 464.772 63.5161 465.169 63.3256C465.367 63.2304 465.545 63.1531 465.743 63.0578ZM436.201 40.251C435.836 40.2034 435.45 40.2322 435.053 40.3276C434.657 40.4228 434.373 40.558 434.135 40.7485C433.897 40.939 433.71 41.1256 433.599 41.2842C433.488 41.4429 433.401 41.594 433.37 41.7051C433.338 41.8162 433.354 42.0288 433.37 42.3939C433.386 42.759 433.456 43.1097 433.599 43.4271C433.742 43.7446 433.929 44.002 434.135 44.1925C434.341 44.383 434.547 44.518 434.786 44.6134C435.024 44.7087 435.381 44.7889 435.857 44.8047C436.333 44.8205 436.719 44.7403 437.005 44.6134C437.291 44.4864 437.526 44.3447 437.732 44.1542C437.938 43.9638 438.096 43.7484 438.191 43.5419C438.286 43.3356 438.344 43.0587 438.344 42.6618C438.344 42.2648 438.293 41.9499 438.23 41.7434C438.166 41.537 438.008 41.3086 437.77 41.0546C437.532 40.8006 437.304 40.63 437.082 40.5189C436.859 40.4078 436.566 40.2986 436.201 40.251ZM436.01 41.2077C436.359 41.2394 436.617 41.3037 436.775 41.399C436.934 41.4943 437.047 41.5782 437.158 41.7051C437.269 41.8321 437.356 41.9832 437.388 42.1261C437.419 42.2689 437.404 42.4686 437.388 42.7383C437.372 43.0082 437.336 43.1787 437.273 43.2741C437.209 43.3694 437.074 43.5139 436.852 43.6567C436.63 43.7996 436.43 43.8705 436.24 43.8863C436.049 43.9021 435.814 43.8956 435.513 43.8481C435.211 43.8005 434.931 43.6269 434.709 43.3889C434.487 43.1507 434.358 42.8513 434.326 42.4705C434.295 42.0897 434.365 41.8191 434.556 41.6286C434.746 41.4382 434.962 41.3095 435.168 41.2459C435.375 41.1824 435.661 41.1759 436.01 41.2077Z" fill="#4788c7" fill-rule="nonzero" opacity="1" stroke="none"/>
</g>
</svg>
