<?xml version="1.0" encoding="UTF-8" standalone="no"?>
<!DOCTYPE svg PUBLIC "-//W3C//DTD SVG 1.1//EN" "http://www.w3.org/Graphics/SVG/1.1/DTD/svg11.dtd">
<!-- Created with Vectornator (http://vectornator.io/) -->
<svg height="100%" stroke-miterlimit="10" style="fill-rule:nonzero;clip-rule:evenodd;stroke-linecap:round;stroke-linejoin:round;" version="1.1" viewBox="0 0 510 510" width="100%" xml:space="preserve" xmlns="http://www.w3.org/2000/svg" xmlns:xlink="http://www.w3.org/1999/xlink">
<defs/>
<g id="Layer-1">
<path d="M0 0L510 0L510 510L0 510L0 0Z" fill="#ffffff" fill-rule="nonzero" opacity="1" stroke="none"/>
<path d="M41.5458 420.499C40.5617 420.499 39.603 420.541 38.7141 420.652C37.8252 420.763 37.0689 420.914 36.4181 421.073C35.7673 421.232 35.1043 421.431 34.39 421.685C33.6757 421.939 32.8233 422.312 31.9027 422.757C30.982 423.201 30.2257 423.622 29.6067 424.019C28.9876 424.416 28.3955 424.844 27.8082 425.32C27.2209 425.797 26.6417 426.318 26.0862 426.889C25.5306 427.461 24.9226 428.117 24.2877 428.879C23.6527 429.641 23.1762 430.326 22.7953 430.946C22.4143 431.565 22.0348 432.259 21.6855 432.974C21.3363 433.688 20.9922 434.444 20.6906 435.27C20.389 436.095 20.1764 436.867 20.0018 437.566C19.8272 438.264 19.6696 439.107 19.5426 440.091C19.4156 441.076 19.3289 442.067 19.313 443.114C19.2972 444.162 19.3485 445.121 19.4278 445.946C19.5072 446.771 19.6294 447.592 19.7722 448.433C19.9151 449.275 20.0857 450.06 20.308 450.806C20.5302 451.552 20.8006 452.382 21.1498 453.255C21.499 454.128 21.9271 455.042 22.4509 456.01C22.9747 456.978 23.5538 457.892 24.1729 458.765C24.7919 459.638 25.358 460.346 25.8183 460.87C26.2786 461.394 26.9062 462.044 27.7316 462.821C28.557 463.599 29.3646 464.256 30.1424 464.811C30.9202 465.367 31.67 465.875 32.4001 466.304C33.1303 466.732 33.909 467.109 34.7344 467.49C35.5598 467.871 36.3869 468.199 37.26 468.485C38.133 468.771 39.0049 469.037 39.8621 469.212C40.7192 469.387 41.6779 469.499 42.6938 469.595C43.7097 469.69 44.5368 469.725 45.2194 469.709C45.9019 469.693 46.8028 469.623 47.898 469.48C48.9933 469.337 49.8941 469.195 50.5767 469.021C51.2592 468.846 52.0444 468.589 52.9492 468.255C53.4016 468.089 53.8361 467.924 54.2885 467.758C54.2806 470.028 54.2964 472.299 54.2885 474.569C54.2726 479.109 54.2567 482.986 54.2885 486.24C54.3202 489.494 54.3492 491.203 54.365 491.33C54.3809 491.457 54.4322 491.512 54.4798 491.559C54.5274 491.607 54.6113 491.643 54.786 491.674C54.9606 491.706 55.134 491.715 55.2451 491.636C55.3563 491.557 55.4047 491.306 55.4365 490.909C55.4682 490.512 55.5037 487.732 55.5513 482.605C55.5989 477.478 55.9011 474.901 56.3931 474.837C56.8852 474.774 57.4419 474.623 58.0769 474.416C58.7118 474.21 59.3907 473.962 60.105 473.613C60.8193 473.263 61.5401 472.826 62.2862 472.35C63.0322 471.874 63.7754 471.375 64.5056 470.819C65.2358 470.264 65.9632 469.649 66.7251 468.982C67.487 468.316 68.5743 467.257 69.9394 465.844C71.3045 464.432 72.4469 463.161 73.3834 462.018C74.3199 460.875 75.2469 459.626 76.2151 458.229C77.1834 456.833 77.9621 455.581 78.5494 454.518C79.1367 453.454 79.5806 452.611 79.8504 451.992C80.1203 451.373 80.3133 450.887 80.4244 450.538C80.5355 450.189 80.8284 449.876 81.3045 449.543C81.7807 449.21 82.1509 448.866 82.4525 448.548C82.7541 448.231 82.9985 447.989 83.1413 447.783C83.2842 447.576 83.4259 447.21 83.6005 446.75C83.7751 446.289 83.8684 445.912 83.8684 445.563C83.8684 445.214 83.8106 444.892 83.7153 444.607C83.6201 444.321 83.5073 444.057 83.3327 443.803C83.2454 443.676 83.1521 443.547 83.0648 443.42C83.2077 443.389 83.3429 443.337 83.4857 443.306C83.7714 443.242 84.0708 443.207 84.4041 443.191C84.7375 443.175 85.1235 443.182 85.5521 443.229C85.9807 443.277 86.4246 443.386 86.8532 443.497C87.2818 443.608 87.7256 443.727 88.1542 443.918C88.5828 444.108 88.9111 444.295 89.1492 444.454C89.3872 444.612 89.5579 444.77 89.6849 444.913C89.8119 445.056 89.9116 445.22 89.991 445.41C90.0704 445.601 90.2215 445.743 90.4119 445.869C90.6024 445.996 90.7955 446.061 90.9859 446.061C91.1764 446.061 91.3247 446.041 91.4834 445.946C91.6421 445.851 91.8286 445.77 92.0191 445.755C92.2096 445.739 92.3448 445.726 92.4401 445.678C92.5353 445.631 92.6575 445.515 92.7845 445.372C92.9114 445.229 92.9823 445.052 93.0141 444.798C93.0458 444.544 92.4378 442.494 91.2155 438.637C89.9933 434.78 89.3079 432.766 89.1492 432.591C88.9904 432.416 88.8133 432.294 88.5752 432.247C88.3371 432.199 88.144 432.199 88.0012 432.247C87.8583 432.294 87.7585 432.336 87.695 432.4C87.6315 432.463 87.4804 432.499 87.2741 432.514C87.0678 432.53 86.8747 432.617 86.7001 432.744C86.5255 432.871 86.4192 433.029 86.3557 433.203C86.2922 433.378 86.2633 433.542 86.2792 433.701C86.295 433.859 86.2885 434.001 86.2409 434.16C86.1933 434.319 86.0711 434.583 85.8965 434.964C85.7219 435.344 85.5065 435.746 85.2843 436.112C85.062 436.477 84.8336 436.789 84.5955 437.106C84.3573 437.424 84.0645 437.791 83.7153 438.14C83.3661 438.489 83.0957 438.708 82.8735 438.867C82.6512 439.025 82.4452 439.17 82.2229 439.249C82.0007 439.329 81.8077 439.406 81.6489 439.517C81.4902 439.628 81.3456 439.78 81.2663 439.938C81.1869 440.097 81.1674 440.261 81.1515 440.436C81.1356 440.61 78.8126 441.402 74.2253 442.846C71.9316 443.569 69.631 444.305 67.3373 445.028C67.3056 444.678 67.2925 444.344 67.2608 443.994C67.1973 443.296 67.091 442.517 66.9164 441.66C66.7418 440.803 66.504 439.989 66.2659 439.211C66.0278 438.433 65.7573 437.61 65.424 436.8C65.0907 435.991 64.6915 435.119 64.1995 434.198C63.7074 433.278 63.2411 432.55 62.8602 431.979C62.4792 431.407 61.9803 430.722 61.3295 429.912C60.6787 429.103 60.0222 428.36 59.3397 427.693C58.6571 427.026 57.9269 426.389 57.1967 425.818C56.4666 425.246 55.7811 424.776 55.1304 424.364C54.4795 423.951 53.823 423.587 53.1405 423.254C52.458 422.921 51.7501 422.583 51.0358 422.297C50.3216 422.012 49.5718 421.77 48.7781 421.532C47.9845 421.294 47.1125 421.094 46.176 420.92C45.2395 420.745 44.4673 420.623 43.88 420.575C43.2927 420.528 42.5299 420.499 41.5458 420.499ZM42.6938 421.609C43.4081 421.624 44.0805 421.66 44.6836 421.723C45.2868 421.787 45.9238 421.903 46.5587 422.029C47.1936 422.156 47.8147 422.314 48.4337 422.489C49.0528 422.663 49.6515 422.863 50.2705 423.101C50.8896 423.339 51.52 423.58 52.1073 423.866C52.6946 424.152 53.3511 424.554 54.0972 425.014C54.8432 425.475 55.4997 425.909 56.087 426.354C56.6743 426.798 57.2889 427.335 57.9238 427.923C58.5587 428.51 59.1089 429.06 59.5692 429.568C60.0296 430.076 60.4865 430.61 60.9468 431.213C61.4071 431.817 61.8511 432.431 62.2479 433.05C62.6447 433.669 63.0084 434.313 63.3576 434.964C63.7068 435.614 64.0416 436.335 64.3908 437.145C64.74 437.954 65.0263 438.691 65.2327 439.326C65.439 439.961 65.6255 440.588 65.7684 441.239C65.9113 441.89 65.9952 442.575 66.0745 443.306C66.1539 444.036 66.0765 444.428 65.8067 444.492C65.5368 444.555 65.3018 444.607 65.0796 444.607C64.8574 444.607 64.5776 444.549 64.276 444.454C63.9744 444.358 63.6881 444.301 63.4342 444.301C63.1802 444.3 62.9676 444.336 62.7454 444.415C62.5231 444.495 62.3142 444.646 62.1714 444.836C62.0285 445.027 61.98 445.249 61.98 445.487C61.98 445.725 62.1572 446.452 62.554 447.706C62.9509 448.96 63.2017 449.668 63.2811 449.811C63.3604 449.954 63.4891 450.082 63.6638 450.194C63.8384 450.305 64.0155 450.347 64.2377 450.347C64.46 450.347 64.7108 450.282 64.9648 450.155C65.2188 450.028 65.4631 449.864 65.6536 449.658C65.7488 449.555 65.8262 449.455 65.9215 449.352C65.8342 449.78 65.7409 450.224 65.6536 450.653C65.479 451.51 65.3018 452.266 65.0796 452.949C64.8574 453.631 64.5133 454.445 64.0847 455.398C63.6561 456.35 63.27 457.122 62.9367 457.694C62.6033 458.265 62.2686 458.815 61.9035 459.339C61.5384 459.863 61.0656 460.426 60.5259 461.061C59.9862 461.696 59.436 462.298 58.8805 462.821C58.3249 463.345 57.8036 463.78 57.3115 464.161C56.8195 464.542 56.2982 464.921 55.7426 465.27C55.187 465.62 54.6303 465.941 54.0589 466.227C53.4875 466.513 52.9438 466.725 52.4517 466.916C51.9596 467.106 51.2966 467.344 50.4236 467.566C49.5506 467.789 48.8717 467.924 48.3955 467.987C47.9193 468.051 47.1825 468.064 46.2143 468.064C45.246 468.064 44.2967 467.999 43.3443 467.873C42.3919 467.746 41.52 467.588 40.7422 467.413C39.9644 467.239 39.3303 467.075 38.7906 466.916C38.2509 466.757 37.5851 466.551 36.839 466.265C36.093 465.98 35.3143 465.645 34.5048 465.232C33.6952 464.82 32.9968 464.382 32.3619 463.969C31.7269 463.557 31.1124 463.129 30.5251 462.668C29.9378 462.208 29.2719 461.629 28.5735 460.946C27.8751 460.264 27.2894 459.643 26.8132 459.071C26.337 458.5 25.909 457.921 25.5122 457.349C25.1154 456.778 24.7097 456.108 24.2494 455.283C23.7891 454.458 23.3871 453.692 23.1014 453.025C22.8157 452.359 22.5742 451.673 22.3361 450.959C22.098 450.245 21.8984 449.479 21.7238 448.701C21.5492 447.923 21.3981 447.16 21.3029 446.367C21.2076 445.573 21.1657 444.795 21.1498 444.033C21.1339 443.271 21.1629 442.476 21.2263 441.698C21.2898 440.921 21.3803 440.071 21.5707 439.135C21.7612 438.198 21.9767 437.413 22.183 436.762C22.3894 436.111 22.6887 435.332 23.1014 434.428C23.5141 433.523 23.9291 432.744 24.3259 432.094C24.7228 431.443 25.1088 430.864 25.4739 430.372C25.839 429.879 26.4377 429.188 27.3107 428.267C28.1837 427.346 28.8141 426.754 29.1475 426.468C29.4808 426.183 30.0021 425.79 30.7164 425.282C31.4307 424.774 31.9939 424.388 32.4384 424.134C32.8828 423.88 33.4107 423.616 34.0456 423.331C34.6805 423.045 35.3753 422.787 36.0737 422.565C36.7721 422.343 37.5284 422.15 38.3697 421.991C39.211 421.832 39.9607 421.733 40.6274 421.685C41.2941 421.638 41.9795 421.593 42.6938 421.609ZM78.7024 444.301C79.2739 444.3 79.7019 444.352 80.0035 444.415C80.3051 444.479 80.4692 444.814 80.501 445.449C80.5327 446.083 80.5103 446.592 80.4627 446.941C80.4151 447.29 80.1512 447.602 79.6591 447.936C79.167 448.269 78.6233 448.6 78.0519 448.854C77.4805 449.108 76.9172 449.308 76.3299 449.466C75.7426 449.625 75.1346 449.709 74.5314 449.773C74.2298 449.804 73.9529 449.856 73.6513 449.887C73.7148 449.57 73.7791 449.248 73.8426 448.931C73.9696 448.296 74.0339 447.723 74.0339 447.247C74.0339 446.771 73.9761 446.349 73.8809 445.984C73.7856 445.619 74.0785 445.32 74.761 445.066C75.4435 444.812 76.1066 444.619 76.7891 444.492C77.4717 444.365 78.131 444.301 78.7024 444.301ZM73.0007 445.908C73.0484 445.924 73.1062 446.03 73.1538 446.252C73.2014 446.474 73.1921 446.825 73.1921 447.285C73.1921 447.746 73.1277 448.289 73.0007 448.892C72.8738 449.496 72.8253 449.817 72.8094 449.849C72.7935 449.881 72.7227 449.865 72.5798 449.849C72.437 449.833 72.1796 449.791 71.8145 449.696C71.4494 449.601 71.1696 449.485 71.0109 449.39C70.8522 449.295 70.7235 449.211 70.6282 449.084C70.533 448.957 70.4752 448.799 70.4752 448.625C70.4752 448.45 70.5041 448.292 70.5517 448.165C70.5993 448.038 70.8082 447.781 71.1257 447.4C71.4432 447.019 71.8292 446.684 72.2737 446.367C72.7181 446.049 72.9531 445.892 73.0007 445.908ZM68.6001 447.017C68.6319 447.049 68.574 447.242 68.447 447.591C68.3201 447.941 68.2557 448.291 68.2557 448.625C68.2557 448.958 68.2687 449.244 68.3322 449.466C68.3958 449.689 68.5114 449.895 68.6384 450.117C68.7654 450.339 68.9295 450.561 69.1358 450.768C69.3422 450.974 69.5352 451.116 69.7098 451.227C69.8845 451.338 70.126 451.467 70.4752 451.609C70.8244 451.752 71.1685 451.852 71.4701 451.916C71.6209 451.947 71.7785 451.999 71.9293 452.03C71.7309 452.427 71.5154 452.82 71.317 453.217C70.9202 454.01 70.4791 454.824 69.9394 455.666C69.3997 456.507 68.7917 457.372 68.1409 458.229C67.4901 459.087 66.7823 459.914 66.0363 460.755C65.2902 461.596 64.6337 462.327 64.0464 462.898C63.4591 463.469 62.9024 463.968 62.3627 464.429C61.823 464.889 61.1506 465.381 60.3728 465.921C59.5951 466.461 58.9451 466.876 58.4213 467.146C57.8974 467.415 57.3892 467.615 56.9289 467.758C56.6987 467.829 56.4702 467.916 56.2401 467.987C56.2718 467.837 56.3231 467.679 56.3549 467.528C56.4184 467.227 56.5116 466.963 56.6227 466.725C56.7339 466.487 57.1106 466.123 57.809 465.615C58.5074 465.107 59.2376 464.505 59.9519 463.855C60.6662 463.204 61.3097 462.576 61.8652 461.941C62.4208 461.306 62.971 460.57 63.5107 459.76C64.0504 458.951 64.5073 458.188 64.8883 457.426C65.2692 456.664 65.6264 455.798 65.9597 454.862C66.2931 453.926 66.5505 453.105 66.7251 452.375C66.8997 451.644 67.0349 450.802 67.146 449.849C67.2571 448.897 67.4147 448.318 67.6052 448.127C67.7957 447.937 67.8955 447.737 67.9113 447.515C67.9272 447.293 68.0111 447.119 68.2174 447.056C68.4238 446.992 68.5684 446.986 68.6001 447.017ZM79.4295 450.653C79.4374 450.677 79.4598 450.705 79.4678 450.729C79.4836 450.777 79.4482 450.912 79.353 451.15C79.2577 451.388 79.0358 451.868 78.7024 452.566C78.3691 453.264 77.8124 454.249 77.0187 455.551C76.2251 456.852 75.4753 457.988 74.761 458.957C74.0467 459.925 73.3808 460.745 72.8094 461.444C72.238 462.142 71.3819 463.12 70.2073 464.39C69.0327 465.66 67.7971 466.905 66.4955 468.064C65.1939 469.223 64.0291 470.143 63.0132 470.857C61.9973 471.572 61.1478 472.122 60.4494 472.503C59.751 472.884 59.2232 473.148 58.8422 473.306C58.4612 473.465 57.9595 473.645 57.3881 473.804C56.8166 473.963 56.3886 474.018 56.087 474.033C55.9362 474.041 55.7786 474.064 55.6278 474.072C55.6516 473.619 55.6805 473.185 55.7043 472.732C55.752 471.828 55.8387 470.933 55.9339 470.092C56.0292 469.251 56.1774 468.8 56.4314 468.753C56.6854 468.705 57.078 468.577 57.6177 468.37C58.1573 468.164 58.7813 467.893 59.4162 467.528C60.0511 467.163 60.7365 466.706 61.4826 466.151C62.2286 465.595 63.0558 464.858 64.0081 463.969C64.9605 463.081 65.8838 462.167 66.7251 461.214C67.5663 460.262 68.3226 459.319 69.021 458.383C69.7195 457.446 70.347 456.503 70.9344 455.551C71.5217 454.598 71.9945 453.807 72.312 453.14C72.6294 452.473 73.0444 452.107 73.5365 452.107C74.0285 452.107 74.6207 452.065 75.335 451.954C76.0493 451.843 76.7058 451.685 77.3248 451.495C77.9439 451.304 78.4587 451.111 78.8555 450.921C79.0539 450.825 79.2311 450.748 79.4295 450.653ZM49.8879 427.846C49.5228 427.798 49.1367 427.827 48.7399 427.923C48.343 428.018 48.0596 428.153 47.8215 428.343C47.5834 428.534 47.3969 428.721 47.2857 428.879C47.1746 429.038 47.0879 429.189 47.0561 429.3C47.0244 429.411 47.0403 429.624 47.0561 429.989C47.072 430.354 47.1429 430.705 47.2857 431.022C47.4286 431.34 47.6151 431.597 47.8215 431.787C48.0278 431.978 48.2339 432.113 48.472 432.208C48.7101 432.304 49.0673 432.384 49.5435 432.4C50.0197 432.415 50.4057 432.335 50.6915 432.208C50.9772 432.081 51.2122 431.94 51.4185 431.749C51.6249 431.559 51.7825 431.343 51.8777 431.137C51.973 430.931 52.0308 430.654 52.0308 430.257C52.0308 429.86 51.9795 429.545 51.916 429.338C51.8525 429.132 51.6949 428.904 51.4568 428.65C51.2187 428.396 50.9902 428.225 50.768 428.114C50.5458 428.003 50.2529 427.894 49.8879 427.846ZM49.6965 428.803C50.0457 428.834 50.3031 428.899 50.4619 428.994C50.6206 429.089 50.7334 429.173 50.8445 429.3C50.9556 429.427 51.0424 429.578 51.0741 429.721C51.1058 429.864 51.09 430.064 51.0741 430.333C51.0583 430.603 51.0228 430.774 50.9593 430.869C50.8958 430.964 50.7606 431.109 50.5384 431.252C50.3162 431.395 50.1166 431.466 49.9261 431.481C49.7356 431.497 49.5007 431.491 49.1991 431.443C48.8975 431.395 48.6177 431.222 48.3955 430.984C48.1732 430.746 48.0446 430.446 48.0128 430.065C47.9811 429.685 48.0519 429.414 48.2424 429.224C48.4329 429.033 48.6483 428.904 48.8547 428.841C49.061 428.777 49.3473 428.771 49.6965 428.803Z" fill="#4788c7" fill-rule="nonzero" opacity="1" stroke="none"/>
<path d="M93.9632 93.9632L416.037 93.9632L416.037 416.037L93.9632 416.037L93.9632 93.9632Z" fill="#1976d2" fill-rule="nonzero" opacity="1" stroke="none"/>
<path d="M93.9632 93.9632L416.037 93.9632L93.9632 416.037L93.9632 93.9632Z" fill="#2196f3" fill-rule="nonzero" opacity="1" stroke="none"/>
<path d="M129.749 129.749L380.251 129.749L380.251 380.251L129.749 380.251L129.749 129.749Z" fill="#2196f3" fill-rule="nonzero" opacity="1" stroke="none"/>
<path d="M129.749 380.251L129.749 129.749L380.251 129.749L129.749 380.251Z" fill="#64b5f6" fill-rule="nonzero" opacity="1" stroke="none"/>
<path d="M183.428 129.749L326.572 129.749L255 165.535L183.428 129.749ZM416.037 93.9632L326.572 129.749L326.572 183.428L380.251 183.428L416.037 93.9632ZM416.037 416.037L326.572 380.251L326.572 326.572L380.251 326.572L416.037 416.037Z" fill="#64b5f6" fill-rule="nonzero" opacity="1" stroke="none"/>
<path d="M93.9632 93.9632L183.428 129.749L183.428 183.428L129.749 183.428L93.9632 93.9632Z" fill="#bbdefb" fill-rule="nonzero" opacity="1" stroke="none"/>
<path d="M93.9632 416.037L183.428 380.251L183.428 326.572L129.749 326.572L93.9632 416.037ZM183.428 183.428L255 165.535L326.572 183.428L344.465 263.132L326.572 326.572L255 344.465L183.428 326.572L165.535 255L183.428 183.428Z" fill="#90caf9" fill-rule="nonzero" opacity="1" stroke="none"/>
<path d="M183.428 183.428L255 165.535L326.572 183.428L183.428 326.572L165.535 255L183.428 183.428Z" fill="#bbdefb" fill-rule="nonzero" opacity="1" stroke="none"/>
<path d="M380.251 183.428L344.465 263.946L326.572 183.428L380.251 183.428ZM326.572 326.572L344.465 263.946L380.251 326.572L326.572 326.572Z" fill="#1976d2" fill-rule="nonzero" opacity="1" stroke="none"/>
<path d="M255 165.535L326.572 129.749L326.572 183.428L255 165.535Z" fill="#2196f3" fill-rule="nonzero" opacity="1" stroke="none"/>
<path d="M129.749 183.428L165.535 255L129.749 326.572L129.749 183.428Z" fill="#bbdefb" fill-rule="nonzero" opacity="1" stroke="none"/>
<path d="M183.428 129.749L255 165.535L183.428 183.428L183.428 129.749Z" fill="#90caf9" fill-rule="nonzero" opacity="1" stroke="none"/>
<path d="M255 344.465L326.572 380.251L326.572 326.572L255 344.465ZM183.428 380.251L183.428 326.572L255 344.465L183.428 380.251Z" fill="#1976d2" fill-rule="nonzero" opacity="1" stroke="none"/>
</g>
</svg>
